<svg width="79" height="83" viewBox="0 0 79 83" fill="none" xmlns="http://www.w3.org/2000/svg">
<path d="M39.165 63.7254C37.3739 63.7254 35.545 63.4555 33.4084 62.872C32.9439 62.7442 32.671 62.2652 32.7959 61.8037C32.9236 61.3392 33.4026 61.0663 33.8642 61.1911C35.8469 61.7311 37.5306 61.9836 39.1621 61.9836C39.644 61.9836 40.033 62.3726 40.033 62.8545C40.0359 63.3364 39.644 63.7254 39.165 63.7254Z" fill="#BEBDBD"/>
<path d="M33.5006 22.2594C33.1203 22.2594 32.769 22.0069 32.6616 21.6237C32.531 21.1592 32.8038 20.6802 33.2654 20.5496C35.4688 19.9341 37.3412 19.6497 39.1614 19.6497C39.6433 19.6497 40.0323 20.0387 40.0323 20.5206C40.0323 21.0024 39.6433 21.3914 39.1614 21.3914C37.5038 21.3914 35.7794 21.6585 33.7328 22.2275C33.6573 22.2478 33.5789 22.2594 33.5006 22.2594Z" fill="#BEBDBD"/>
<path d="M39.1679 73.1367C35.0689 73.1367 31.0541 72.3442 27.2367 70.7824C26.7925 70.5995 26.5777 70.0915 26.7606 69.6473C26.9435 69.2032 27.4515 68.9884 27.8957 69.1712C31.5041 70.6489 35.2983 71.3978 39.1679 71.3978C39.6498 71.3978 40.0388 71.7868 40.0388 72.2687C40.0388 72.7477 39.6469 73.1367 39.1679 73.1367Z" fill="#BEBDBD"/>
<path d="M27.3876 14.3456C27.0479 14.3456 26.7228 14.1453 26.5834 13.8114C26.3977 13.3673 26.6067 12.8563 27.0508 12.6705C30.8973 11.0594 34.9731 10.2437 39.1737 10.2437C39.6556 10.2437 40.0446 10.6327 40.0446 11.1145C40.0446 11.5964 39.6556 11.9854 39.1737 11.9854C35.2082 11.9854 31.3559 12.7576 27.7243 14.2788C27.614 14.3223 27.5008 14.3456 27.3876 14.3456Z" fill="#BEBDBD"/>
<path d="M4.85866 62.9941C4.56255 62.9941 4.27225 62.8432 4.10969 62.5703C2.38532 59.6876 1.03833 56.6888 0.109377 53.661C-0.0328687 53.2024 0.225497 52.7147 0.687071 52.5724C1.14574 52.4331 1.63344 52.6914 1.77569 53.1501C2.664 56.0444 3.95002 58.9125 5.60472 61.6762C5.85148 62.0884 5.71794 62.6225 5.30571 62.8693C5.16347 62.9535 5.00961 62.9941 4.85866 62.9941Z" fill="#BEBDBD"/>
<path d="M4.71181 22.3468C4.56086 22.3468 4.4099 22.309 4.27056 22.2277C3.85543 21.9839 3.71609 21.4497 3.95994 21.0346C5.73947 18.0068 7.82962 15.278 10.1752 12.9237C10.5149 12.584 11.0664 12.5811 11.4061 12.9208C11.7457 13.2604 11.7486 13.812 11.409 14.1516C9.16789 16.4014 7.16774 19.0141 5.46078 21.9142C5.30112 22.1929 5.01082 22.3468 4.71181 22.3468Z" fill="#BEBDBD"/>
<path d="M39.1616 82.5427C32.0638 82.5427 25.0386 80.6615 18.8437 77.0996C18.4256 76.8586 18.2834 76.3274 18.5214 75.9093C18.7624 75.4913 19.2936 75.3491 19.7117 75.5871C25.6424 78.9981 32.3687 80.8009 39.1616 80.8009C39.6435 80.8009 40.0325 81.1899 40.0325 81.6718C40.0325 82.1537 39.6406 82.5427 39.1616 82.5427Z" fill="#BEBDBD"/>
<path d="M19.2806 77.2155C19.1326 77.2155 18.9845 77.1778 18.8481 77.0994C15.7041 75.2908 12.8505 73.1223 10.3656 70.6519C10.0259 70.3122 10.023 69.7606 10.3627 69.421C10.7023 69.0813 11.2539 69.0784 11.5935 69.4181C13.9711 71.7811 16.7028 73.8567 19.7161 75.5898C20.1341 75.8308 20.2763 76.362 20.0383 76.78C19.8757 77.0587 19.5825 77.2155 19.2806 77.2155Z" fill="#BEBDBD"/>
<path d="M19.0587 8.04043C18.7597 8.04043 18.4665 7.88657 18.3068 7.60789C18.063 7.19276 18.2052 6.65861 18.6204 6.41767C24.8647 2.76862 31.9625 0.838135 39.1503 0.838135C39.6321 0.838135 40.0211 1.22713 40.0211 1.70903C40.0211 2.19092 39.6321 2.57992 39.1503 2.57992C32.2731 2.57992 25.4772 4.42622 19.4971 7.92141C19.3606 8.00269 19.2097 8.04043 19.0587 8.04043Z" fill="#BEBDBD"/>
<path d="M39.1717 63.7252C38.6898 63.7252 38.3008 63.3362 38.3008 62.8543C38.3008 62.3724 38.6898 61.9834 39.1717 61.9834C40.8032 61.9834 42.4898 61.7309 44.4754 61.1909C44.9399 61.0632 45.4189 61.339 45.5437 61.8034C45.6715 62.2679 45.3957 62.7469 44.9312 62.8717C42.7917 63.4552 40.9628 63.7252 39.1717 63.7252Z" fill="#BEBDBD"/>
<path d="M44.8325 22.2594C44.7541 22.2594 44.6757 22.2478 44.5973 22.2275C42.5653 21.6556 40.8409 21.3914 39.1717 21.3914C38.6898 21.3914 38.3008 21.0024 38.3008 20.5206C38.3008 20.0387 38.6898 19.6497 39.1717 19.6497C41.0035 19.6497 42.8788 19.9371 45.0705 20.5496C45.535 20.6802 45.805 21.1592 45.6744 21.6237C45.5611 22.0069 45.2128 22.2594 44.8325 22.2594Z" fill="#BEBDBD"/>
<path d="M50.9694 14.3456C50.8562 14.3456 50.743 14.3223 50.6326 14.2788C46.9981 12.7576 43.1401 11.9854 39.1717 11.9854C38.6898 11.9854 38.3008 11.5964 38.3008 11.1145C38.3008 10.6327 38.6898 10.2437 39.1717 10.2437C43.3723 10.2437 47.4568 11.0594 51.3061 12.6705C51.7503 12.8563 51.9593 13.3673 51.7735 13.8114C51.6313 14.1424 51.309 14.3456 50.9694 14.3456Z" fill="#BEBDBD"/>
<path d="M39.1717 73.1369C38.6898 73.1369 38.3008 72.7479 38.3008 72.266C38.3008 71.7841 38.6898 71.3951 39.1717 71.3951C43.0413 71.3951 46.8355 70.6462 50.4469 69.1686C50.891 68.9857 51.4019 69.2005 51.5819 69.6446C51.7648 70.0888 51.55 70.5997 51.1058 70.7797C47.2826 72.3444 43.2678 73.1369 39.1717 73.1369Z" fill="#BEBDBD"/>
<path d="M59.2719 8.04043C59.1239 8.04043 58.9729 8.00269 58.8336 7.92141C52.8505 4.42622 46.0517 2.57992 39.1717 2.57992C38.6898 2.57992 38.3008 2.19092 38.3008 1.70903C38.3008 1.22713 38.6898 0.838135 39.1717 0.838135C46.3595 0.838135 53.4631 2.76862 59.7103 6.41767C60.1254 6.66152 60.2647 7.19276 60.0238 7.60789C59.8612 7.88657 59.5709 8.04043 59.2719 8.04043Z" fill="#BEBDBD"/>
<path d="M67.5461 14.4094C67.3225 14.4094 67.099 14.3223 66.9277 14.151C64.5647 11.7705 61.8417 9.67459 58.8313 7.92119C58.4162 7.68024 58.2739 7.14609 58.5178 6.73096C58.7587 6.31584 59.2929 6.17359 59.708 6.41744C62.849 8.24922 65.694 10.4381 68.1644 12.9259C68.504 13.2685 68.5011 13.82 68.1586 14.1568C67.9902 14.3252 67.7667 14.4094 67.5461 14.4094Z" fill="#BEBDBD"/>
<path d="M77.4597 31.0957C77.0852 31.0957 76.7369 30.8519 76.6266 30.4745C75.7557 27.5628 74.4929 24.683 72.8701 21.9165C72.6262 21.5014 72.7656 20.9672 73.1807 20.7234C73.5958 20.4795 74.13 20.6189 74.3738 21.034C76.0692 23.9196 77.39 26.9299 78.2987 29.9781C78.4351 30.4396 78.1738 30.9244 77.7123 31.0609C77.6252 31.0841 77.541 31.0957 77.4597 31.0957Z" fill="#BEBDBD"/>
<path d="M39.1717 82.5427C38.6898 82.5427 38.3008 82.1537 38.3008 81.6718C38.3008 81.1899 38.6898 80.8009 39.1717 80.8009C45.9647 80.8009 52.6909 78.9981 58.6217 75.5871C59.0397 75.3491 59.5709 75.4913 59.8119 75.9093C60.0528 76.3274 59.9077 76.8586 59.4896 77.0996C53.2947 80.6586 46.2695 82.5427 39.1717 82.5427Z" fill="#BEBDBD"/>
<path d="M67.3503 70.904C67.1267 70.904 66.9032 70.8198 66.7348 70.6485C66.3952 70.3089 66.3952 69.7573 66.7377 69.4177C68.9905 67.1708 71.008 64.5668 72.7324 61.6754C72.9792 61.2632 73.5133 61.1268 73.9255 61.3735C74.3378 61.6203 74.4742 62.1544 74.2274 62.5666C72.4276 65.5828 70.3229 68.3029 67.9657 70.6485C67.7944 70.8198 67.5709 70.904 67.3503 70.904Z" fill="#BEBDBD"/>
<path d="M0.939652 54.2759C0.515817 54.2759 0.144235 53.9653 0.0803694 53.5357C0.00779486 53.0596 0.335832 52.6154 0.811921 52.5429C4.0081 52.0581 6.80077 50.1914 8.47869 47.4162C8.72835 47.004 9.2625 46.8733 9.67472 47.123C10.0869 47.3727 10.2176 47.9068 9.96793 48.319C8.02293 51.5355 4.7803 53.7041 1.07029 54.2643C1.02674 54.2701 0.983197 54.2759 0.939652 54.2759Z" fill="#BEBDBD"/>
<path d="M9.18565 36.5797C8.89245 36.5797 8.60506 36.4316 8.44249 36.1646C6.75586 33.4096 3.95158 31.5575 0.743783 31.0872C0.267694 31.0176 -0.0603425 30.5763 0.00932903 30.1002C0.0790006 29.6241 0.523157 29.2961 0.996343 29.3658C4.71506 29.9115 7.9693 32.0597 9.92591 35.2559C10.1756 35.6652 10.0478 36.2023 9.63852 36.452C9.49918 36.539 9.34241 36.5797 9.18565 36.5797Z" fill="#BEBDBD"/>
<path d="M9.20865 48.7373C9.05479 48.7373 8.90093 48.6966 8.76159 48.6124C8.34936 48.3657 8.21583 47.8286 8.46548 47.4164C9.52507 45.6543 10.0621 43.7703 10.0621 41.8137C10.0621 39.828 9.51346 37.9266 8.43355 36.1645C8.18099 35.7551 8.31162 35.2181 8.72095 34.9655C9.13027 34.713 9.66732 34.8436 9.91988 35.2529C11.1536 37.2647 11.8068 39.5319 11.8068 41.8137C11.8068 44.0925 11.1856 46.2814 9.96052 48.3163C9.79214 48.5892 9.50475 48.7373 9.20865 48.7373Z" fill="#BEBDBD"/>
<path d="M13.0116 26.7825C12.8084 26.7825 12.6052 26.7129 12.4397 26.5677C10.1231 24.5501 7.44655 23.119 4.48261 22.3148C4.01813 22.19 3.74525 21.711 3.87008 21.2465C3.99491 20.7821 4.4739 20.5063 4.93838 20.634C8.15778 21.5078 11.0666 23.0638 13.5835 25.2556C13.9463 25.572 13.9841 26.1207 13.6676 26.4835C13.4964 26.6838 13.2554 26.7825 13.0116 26.7825Z" fill="#BEBDBD"/>
<path d="M19.1943 49.289C19.1043 49.289 19.0114 49.2745 18.9214 49.2454C18.4657 49.0945 18.216 48.6039 18.367 48.1452C19.1101 45.8838 19.473 43.814 19.473 41.8138C19.473 39.7585 19.0985 37.6509 18.3234 35.3692C18.1696 34.9134 18.4134 34.4199 18.8692 34.2661C19.325 34.1122 19.8185 34.356 19.9723 34.8118C20.8084 37.2794 21.2119 39.5698 21.2119 41.8167C21.2119 44.0027 20.82 46.2525 20.0188 48.6939C19.9027 49.0567 19.5601 49.289 19.1943 49.289Z" fill="#BEBDBD"/>
<path d="M4.86384 62.9937C4.48355 62.9937 4.13229 62.7411 4.02488 62.3579C3.89425 61.8934 4.16713 61.4145 4.6287 61.2838C7.59265 60.4565 10.2576 59.0108 12.5538 56.9845C12.9138 56.6652 13.4654 56.7 13.7818 57.0629C14.1011 57.4229 14.0663 57.9744 13.7034 58.2909C11.2069 60.4913 8.30968 62.0647 5.09318 62.9617C5.0177 62.9821 4.93932 62.9937 4.86384 62.9937Z" fill="#BEBDBD"/>
<path d="M13.1138 58.5061C12.8728 58.5061 12.6319 58.4074 12.4606 58.21C12.1413 57.85 12.1761 57.2985 12.539 56.9821C15.2184 54.6161 17.2331 51.5622 18.3652 48.1425C18.5162 47.6867 19.0097 47.4371 19.4655 47.588C19.9212 47.739 20.1709 48.2325 20.0199 48.6882C18.792 52.3982 16.6031 55.7164 13.6914 58.2855C13.5231 58.4364 13.317 58.5061 13.1138 58.5061Z" fill="#BEBDBD"/>
<path d="M19.1522 35.9614C18.7893 35.9614 18.4497 35.7321 18.3278 35.3692C17.184 31.9727 15.1519 28.9304 12.4434 26.5703C12.0805 26.2539 12.0428 25.7052 12.3592 25.3423C12.6756 24.9795 13.2243 24.9417 13.5872 25.2581C16.5279 27.8215 18.7371 31.1251 19.9766 34.8148C20.1305 35.2705 19.8838 35.764 19.428 35.9179C19.338 35.9469 19.2422 35.9614 19.1522 35.9614Z" fill="#BEBDBD"/>
<path d="M29.1617 48.6645C29.1066 48.6645 29.0514 48.6587 28.9934 48.6471C28.5202 48.5542 28.2124 48.0984 28.3053 47.6253C28.6827 45.6948 28.8743 43.7382 28.8743 41.8106C28.8743 39.8017 28.6711 37.7813 28.2676 35.8072C28.1718 35.3369 28.4766 34.8754 28.9469 34.7796C29.4172 34.6838 29.8788 34.9886 29.9746 35.4589C30.4013 37.5461 30.6161 39.6856 30.6161 41.8106C30.6161 43.8485 30.4129 45.9154 30.0152 47.9591C29.9339 48.3771 29.571 48.6645 29.1617 48.6645Z" fill="#BEBDBD"/>
<path d="M29.1262 36.5072C28.7227 36.5072 28.3598 36.2227 28.2727 35.8105C27.5934 32.5098 26.319 29.3165 24.4843 26.3206C24.2318 25.9113 24.3624 25.3743 24.7717 25.1217C25.181 24.8721 25.7181 24.9998 25.9707 25.4091C27.9128 28.5792 29.2597 31.9582 29.9797 35.4592C30.0755 35.9295 29.7736 36.3911 29.3033 36.4869C29.2423 36.5014 29.1843 36.5072 29.1262 36.5072Z" fill="#BEBDBD"/>
<path d="M19.1093 19.5246C18.909 19.5246 18.7058 19.4549 18.5433 19.3155C16.0989 17.2167 13.3818 15.5446 10.4672 14.3456C10.023 14.1628 9.80818 13.6547 9.99107 13.2106C10.174 12.7664 10.682 12.5545 11.1261 12.7345C14.2149 14.0031 17.0918 15.771 19.6754 17.9947C20.0412 18.3082 20.0818 18.8569 19.7683 19.2227C19.597 19.4201 19.3532 19.5246 19.1093 19.5246Z" fill="#BEBDBD"/>
<path d="M25.3472 58.4683C25.1933 58.4683 25.0395 58.4277 24.8972 58.3435C24.485 58.0939 24.3544 57.5597 24.6011 57.1475C26.4039 54.1632 27.658 50.9583 28.3257 47.6257C28.4215 47.1554 28.8801 46.8477 29.3504 46.9435C29.8207 47.0393 30.1284 47.498 30.0326 47.9683C29.3243 51.4983 27.9976 54.8919 26.0904 58.0474C25.9307 58.3174 25.6433 58.4683 25.3472 58.4683Z" fill="#BEBDBD"/>
<path d="M25.2257 26.7382C24.9325 26.7382 24.6481 26.5902 24.4826 26.3231C22.8598 23.6785 20.8597 21.3212 18.5315 19.3124C18.1686 18.9989 18.128 18.4473 18.4415 18.0844C18.755 17.7215 19.3066 17.678 19.6694 17.9944C22.1312 20.1194 24.2503 22.6131 25.966 25.4115C26.2186 25.8209 26.0879 26.3579 25.6786 26.6105C25.5393 26.6947 25.3825 26.7382 25.2257 26.7382Z" fill="#BEBDBD"/>
<path d="M19.2396 65.7252C18.9958 65.7252 18.7548 65.6236 18.5806 65.4262C18.2642 65.0633 18.3048 64.5118 18.6677 64.1982C20.9756 62.1923 22.967 59.8206 24.584 57.1469C24.8336 56.7347 25.3678 56.6041 25.78 56.8537C26.1922 57.1034 26.3229 57.6375 26.0732 58.0497C24.3605 60.8801 22.2529 63.3912 19.8086 65.5162C19.646 65.6555 19.4399 65.7252 19.2396 65.7252Z" fill="#BEBDBD"/>
<path d="M10.9774 70.9042C10.6378 70.9042 10.3126 70.7039 10.1733 70.37C9.9875 69.9259 10.1965 69.415 10.6407 69.2292C13.5291 68.0186 16.2318 66.3233 18.6732 64.1954C19.0361 63.879 19.5848 63.9167 19.9012 64.2796C20.2176 64.6425 20.1799 65.1911 19.817 65.5076C17.2362 67.7574 14.3739 69.5514 11.3113 70.8345C11.2038 70.8839 11.0906 70.9042 10.9774 70.9042Z" fill="#BEBDBD"/>
<path d="M27.3649 14.3458C27.1443 14.3458 26.9208 14.2616 26.7524 14.0932C24.3806 11.7389 21.646 9.66325 18.624 7.92437C18.206 7.68342 18.0638 7.15217 18.3047 6.73414C18.5457 6.31611 19.0769 6.17387 19.4949 6.41482C22.6447 8.22918 25.5012 10.3948 27.9803 12.8565C28.3229 13.1962 28.3229 13.7477 27.9862 14.0874C27.8149 14.2587 27.5884 14.3458 27.3649 14.3458Z" fill="#BEBDBD"/>
<path d="M27.5655 70.8463C27.3449 70.8463 27.1213 70.7621 26.953 70.5937C26.6104 70.2541 26.6104 69.7025 26.9472 69.3629C29.1912 67.1015 31.1913 64.4859 32.8896 61.5916C33.1334 61.1765 33.6676 61.0371 34.0827 61.281C34.4978 61.5248 34.6371 62.059 34.3933 62.4741C32.6196 65.4932 30.5323 68.222 28.1838 70.5879C28.0125 70.7592 27.789 70.8463 27.5655 70.8463Z" fill="#BEBDBD"/>
<path d="M44.7 62.9045C44.3168 62.9045 43.9685 62.6519 43.8611 62.2658L32.6643 21.6212C32.5365 21.1567 32.8094 20.6777 33.2739 20.55C33.7355 20.4223 34.2174 20.6952 34.3451 21.1596L45.539 61.8014C45.6667 62.2658 45.3938 62.7448 44.9294 62.8726C44.8539 62.8958 44.7755 62.9045 44.7 62.9045Z" fill="#BEBDBD"/>
<path d="M69.1426 36.5794C68.9887 36.5794 68.829 36.5388 68.6897 36.4517C68.2804 36.1991 68.1497 35.665 68.4023 35.2527C70.3618 32.0566 73.6161 29.9084 77.3319 29.3626C77.808 29.2929 78.2492 29.621 78.3189 30.0971C78.3886 30.5731 78.0605 31.0144 77.5844 31.0841C74.3795 31.5544 71.5753 33.4065 69.8857 36.1614C69.7232 36.4343 69.4358 36.5794 69.1426 36.5794Z" fill="#BEBDBD"/>
<path d="M77.3892 54.2761C77.3457 54.2761 77.3021 54.2732 77.2586 54.2674C73.5428 53.7042 70.3031 51.5356 68.3668 48.3191C68.12 47.9069 68.2506 47.3728 68.6629 47.1231C69.0751 46.8764 69.6092 47.007 69.8589 47.4192C71.5281 50.1887 74.3179 52.0582 77.5199 52.543C77.996 52.6156 78.3211 53.0597 78.2514 53.5358C78.1817 53.9654 77.8102 54.2761 77.3892 54.2761Z" fill="#BEBDBD"/>
<path d="M69.1128 48.7373C68.8196 48.7373 68.5322 48.5892 68.3667 48.3192C67.1533 46.3191 66.5117 44.0693 66.5117 41.8137C66.5117 39.5319 67.162 37.2647 68.3958 35.2529C68.6483 34.8436 69.1825 34.713 69.5947 34.9655C70.004 35.2181 70.1317 35.7522 69.8821 36.1645C68.8022 37.9237 68.2564 39.8251 68.2564 41.8137C68.2564 43.779 68.7964 45.663 69.8589 47.4164C70.1085 47.8286 69.9779 48.3628 69.5657 48.6124C69.4205 48.6966 69.2666 48.7373 69.1128 48.7373Z" fill="#BEBDBD"/>
<path d="M59.1268 49.2885C58.7611 49.2885 58.4214 49.0563 58.2995 48.6905C57.4925 46.2375 57.0977 43.9877 57.0977 41.8133C57.0977 39.5867 57.5041 37.2963 58.3372 34.8113C58.4911 34.3556 58.9846 34.1117 59.4404 34.2627C59.8961 34.4165 60.1429 34.91 59.989 35.3658C59.2168 37.6708 58.8394 39.7783 58.8394 41.8133C58.8394 43.799 59.2023 45.8688 59.9513 48.1447C60.1022 48.6005 59.8526 49.094 59.3968 49.245C59.3097 49.274 59.2168 49.2885 59.1268 49.2885Z" fill="#BEBDBD"/>
<path d="M65.2179 58.5061C65.0147 58.5061 64.8086 58.4335 64.6431 58.2884C61.7285 55.7193 59.5397 52.4012 58.3175 48.6882C58.1665 48.2325 58.4162 47.739 58.872 47.588C59.3277 47.4371 59.8212 47.6867 59.9722 48.1425C61.0986 51.5593 63.1132 54.6161 65.7956 56.9792C66.1556 57.2985 66.1904 57.8471 65.874 58.2071C65.6998 58.4074 65.4588 58.5061 65.2179 58.5061Z" fill="#BEBDBD"/>
<path d="M59.1689 35.9614C59.076 35.9614 58.9831 35.9469 58.8902 35.915C58.4344 35.7611 58.1906 35.2676 58.3415 34.8118C59.584 31.1221 61.7961 27.8156 64.7368 25.2552C65.0997 24.9388 65.6483 24.9765 65.9648 25.3394C66.2812 25.7023 66.2435 26.2509 65.8806 26.5674C63.1721 28.9246 61.1342 31.9669 59.9933 35.3663C59.8714 35.7321 59.5318 35.9614 59.1689 35.9614Z" fill="#BEBDBD"/>
<path d="M65.3083 26.7823C65.0644 26.7823 64.8235 26.6807 64.6522 26.4833C64.3358 26.1204 64.3735 25.5717 64.7364 25.2553C67.2504 23.0635 70.1591 21.5105 73.3786 20.6337C73.843 20.5089 74.322 20.7818 74.4469 21.2463C74.5717 21.7108 74.2988 22.1897 73.8343 22.3146C70.8704 23.1216 68.1938 24.5528 65.8773 26.5674C65.7147 26.7126 65.5115 26.7823 65.3083 26.7823Z" fill="#BEBDBD"/>
<path d="M73.4856 62.994C73.4073 62.994 73.3289 62.9823 73.2505 62.962C70.0311 62.065 67.131 60.4916 64.6345 58.2911C64.2745 57.9718 64.2397 57.4231 64.5561 57.0632C64.8754 56.7032 65.4241 56.6684 65.784 56.9848C68.0803 59.0111 70.7481 60.4568 73.715 61.2841C74.1795 61.4118 74.4494 61.8937 74.3188 62.3582C74.2143 62.7414 73.8659 62.994 73.4856 62.994Z" fill="#BEBDBD"/>
<path d="M49.1652 48.6647C48.7588 48.6647 48.3959 48.3773 48.3117 47.965C47.9053 45.9271 47.6992 43.8573 47.6992 41.8136C47.6992 39.6886 47.914 37.552 48.3408 35.4619C48.4366 34.9916 48.8952 34.6839 49.3684 34.7826C49.8387 34.8784 50.1435 35.3371 50.0477 35.8103C49.6442 37.7872 49.441 39.8077 49.441 41.8136C49.441 43.7441 49.6355 45.6978 50.0216 47.6225C50.1145 48.0928 49.8097 48.5543 49.3394 48.6472C49.2813 48.6589 49.2233 48.6647 49.1652 48.6647Z" fill="#BEBDBD"/>
<path d="M52.9969 58.4684C52.7008 58.4684 52.4134 58.3174 52.2509 58.0475C50.3349 54.8716 49.0111 51.478 48.3173 47.9654C48.2244 47.4922 48.5321 47.0364 49.0024 46.9435C49.4727 46.8507 49.9314 47.1584 50.0243 47.6286C50.6775 50.9439 51.9286 54.1458 53.7401 57.1475C53.9898 57.5597 53.8562 58.0939 53.444 58.3436C53.3047 58.4277 53.1479 58.4684 52.9969 58.4684Z" fill="#BEBDBD"/>
<path d="M53.0973 26.7385C52.9434 26.7385 52.7838 26.6978 52.6415 26.6107C52.2322 26.3582 52.1045 25.824 52.3541 25.4118C54.0756 22.6046 56.1977 20.111 58.6565 17.9947C59.0223 17.6812 59.5709 17.7218 59.8845 18.0876C60.198 18.4534 60.1574 19.002 59.7916 19.3155C57.4663 21.3128 55.4632 23.6729 53.8376 26.3233C53.675 26.5904 53.3905 26.7385 53.0973 26.7385Z" fill="#BEBDBD"/>
<path d="M49.2002 36.5072C49.1421 36.5072 49.0841 36.5014 49.0231 36.4898C48.5528 36.394 48.248 35.9324 48.3467 35.4622C49.0666 31.9554 50.4194 28.5734 52.3615 25.412C52.6141 25.0027 53.1482 24.875 53.5605 25.1246C53.9698 25.3772 54.0975 25.9114 53.8478 26.3236C52.0103 29.3136 50.7358 32.5069 50.0565 35.8134C49.9666 36.2256 49.6037 36.5072 49.2002 36.5072Z" fill="#BEBDBD"/>
<path d="M59.0884 65.7256C58.8852 65.7256 58.682 65.6559 58.5165 65.5108C56.0635 63.3742 53.9588 60.8631 52.2548 58.0443C52.0051 57.6321 52.1387 57.0979 52.5509 56.8483C52.9631 56.5986 53.4973 56.7322 53.7469 57.1444C55.3552 59.8064 57.3466 62.1811 59.6603 64.1957C60.0232 64.5122 60.0609 65.0608 59.7445 65.4237C59.5732 65.624 59.3322 65.7256 59.0884 65.7256Z" fill="#BEBDBD"/>
<path d="M67.3552 70.905C67.242 70.905 67.1288 70.8817 67.0185 70.8382C63.9645 69.558 61.0993 67.7668 58.5098 65.5112C58.1469 65.1948 58.1092 64.6461 58.4256 64.2833C58.7421 63.9204 59.2907 63.8826 59.6536 64.1991C62.1037 66.3328 64.8093 68.0252 67.6919 69.2328C68.1361 69.4186 68.3451 69.9296 68.1593 70.3737C68.0171 70.7046 67.6948 70.905 67.3552 70.905Z" fill="#BEBDBD"/>
<path d="M59.2294 19.525C58.9855 19.525 58.7417 19.4234 58.5704 19.2231C58.2569 18.8603 58.2975 18.3087 58.6604 17.9952C61.2353 15.7744 64.1122 14.0036 67.2097 12.735C67.6538 12.5521 68.1647 12.7669 68.3447 13.2111C68.5276 13.6552 68.3128 14.1661 67.8686 14.3461C64.9453 15.5451 62.2281 17.2143 59.7954 19.3131C59.6329 19.4554 59.4297 19.525 59.2294 19.525Z" fill="#BEBDBD"/>
<path d="M44.8212 22.2598C44.6703 22.2598 44.5164 22.2192 44.3742 22.135C43.9619 21.8882 43.8255 21.3541 44.0722 20.9419C45.8837 17.9082 47.9942 15.1881 50.3398 12.857C50.6794 12.5174 51.231 12.5203 51.5706 12.86C51.9103 13.1996 51.9074 13.7512 51.5677 14.0908C49.3237 16.3203 47.3033 18.9272 45.5673 21.836C45.4076 22.1089 45.1173 22.2598 44.8212 22.2598Z" fill="#BEBDBD"/>
<path d="M59.0529 77.2158C58.9049 77.2158 58.7539 77.1781 58.6146 77.0968C55.4619 75.2563 52.617 73.0675 50.1553 70.5912C49.8156 70.2487 49.8185 69.6971 50.1611 69.3604C50.5036 69.0207 51.0552 69.0236 51.3919 69.3662C53.7463 71.7379 56.4693 73.8338 59.4913 75.596C59.9064 75.8398 60.0457 76.3711 59.8048 76.7862C59.6451 77.0591 59.3519 77.2158 59.0529 77.2158Z" fill="#BEBDBD"/>
</svg>
