<svg width="70" height="60" viewBox="0 0 70 60" fill="none" xmlns="http://www.w3.org/2000/svg">
<g clip-path="url(#clip0_3748_195)">
<path d="M53.9273 30.1305C53.6689 30.1305 53.4132 30.0261 53.2262 29.8226L28.0194 2.13878C27.695 1.78139 27.1781 1.78139 26.851 2.13878L1.64412 29.8199C1.29223 30.2048 0.695667 30.235 0.308038 29.8831C-0.0768417 29.5312 -0.107082 28.9319 0.244808 28.547L25.4544 0.865925C26.5074 -0.288714 28.3685 -0.285965 29.4187 0.865925L54.6256 28.547C54.9775 28.9319 54.95 29.5312 54.5623 29.8831C54.3836 30.0481 54.1555 30.1305 53.9273 30.1305Z" fill="#222222"/>
<path d="M45.391 20.7556C44.8687 20.7556 44.4453 20.3322 44.4453 19.8099V7.64492C44.4453 7.12259 44.8687 6.69922 45.391 6.69922C45.9134 6.69922 46.3367 7.12259 46.3367 7.64492V19.8099C46.3367 20.3322 45.9134 20.7556 45.391 20.7556Z" fill="#222222"/>
<path d="M52.9952 59.9998H31.8158C31.2935 59.9998 30.8701 59.5764 30.8701 59.0541C30.8701 58.5318 31.2935 58.1084 31.8158 58.1084H52.9952C53.5175 58.1084 53.9409 58.5318 53.9409 59.0541C53.9409 59.5737 53.5175 59.9998 52.9952 59.9998Z" fill="#222222"/>
<path d="M22.3397 59.9995H2.88125C2.35891 59.9995 1.93555 59.5762 1.93555 59.0538V34.2318C1.93555 33.7095 2.35891 33.2861 2.88125 33.2861C3.40359 33.2861 3.82696 33.7095 3.82696 34.2318V58.1081H22.3397C22.862 58.1081 23.2854 58.5315 23.2854 59.0538C23.2854 59.5734 22.862 59.9995 22.3397 59.9995Z" fill="#222222"/>
<path d="M31.8162 59.9805C31.8079 59.9805 31.7997 59.9805 31.7914 59.9805C31.2691 59.9667 30.8567 59.5516 30.8705 59.0293V58.9935L30.8732 58.8313V49.2726C30.8732 48.0657 30.4608 46.9331 29.7131 46.0808C28.9955 45.2671 28.0581 44.8162 27.0739 44.8162C24.9818 44.8162 23.2773 46.8148 23.2773 49.2726L23.2801 58.9935L21.3914 59.0788L21.3887 58.8313V49.2726C21.3887 45.7729 23.9399 42.9248 27.0766 42.9248C28.6134 42.9248 30.054 43.6011 31.1371 44.8327C32.1873 46.0286 32.7674 47.6066 32.7674 49.2726L32.7646 59.043C32.7481 59.5571 32.3275 59.9805 31.8162 59.9805Z" fill="#222222"/>
<path d="M53.7623 57.133C53.5259 57.133 53.2922 57.045 53.108 56.8691L40.3602 44.6629C40.3245 44.6299 40.2942 44.5942 40.264 44.5557C38.4358 42.1749 37.7595 39.1811 38.4083 36.3385C39.0049 33.724 40.6131 31.588 42.818 30.4773C46.3588 28.6931 51.1231 29.7433 54.1334 32.8333C57.2262 29.6663 62.2461 28.8526 65.8283 31.0959C67.8819 32.3825 69.2564 34.5818 69.6001 37.1302C69.9657 39.8354 69.0915 42.568 67.2028 44.6216C67.1891 44.6354 67.1753 44.6519 67.1616 44.6656L54.4138 56.8718C54.2324 57.045 53.9987 57.133 53.7623 57.133ZM41.7238 43.3488L53.7623 54.8787L65.8338 43.3186C67.3265 41.6801 68.0166 39.5192 67.7307 37.3804C67.4613 35.39 66.4056 33.6828 64.8303 32.6959C61.798 30.7962 57.2454 31.7804 54.8894 34.8457C54.7107 35.0794 54.4413 35.2498 54.1389 35.2141C53.8475 35.2141 53.5726 35.0794 53.3939 34.8484C51.0131 31.7942 46.7437 30.6148 43.6729 32.1625C41.9712 33.0203 40.7259 34.6945 40.2558 36.7564C39.7362 39.0271 40.2723 41.4271 41.7238 43.3488Z" fill="#FF8038"/>
<path d="M64.3903 42.2105C64.1648 42.2105 63.9394 42.1308 63.7607 41.9686C63.3731 41.6194 63.3401 41.0229 63.6865 40.6325C63.9944 40.2888 64.7119 39.3459 64.7422 38.007C64.7724 36.5775 64.0136 35.5713 63.6865 35.2057C63.3373 34.8153 63.3703 34.2187 63.7607 33.8696C64.1511 33.5205 64.7477 33.5534 65.0968 33.9438C65.5751 34.4772 66.6803 35.9452 66.6336 38.0483C66.5923 39.9507 65.6521 41.2758 65.0968 41.8971C64.9099 42.1033 64.6514 42.2105 64.3903 42.2105Z" fill="#222222"/>
</g>
<defs>
<clipPath id="clip0_3748_195">
<rect width="69.6852" height="60" fill="white"/>
</clipPath>
</defs>
</svg>
