<svg width="60" height="85" viewBox="0 0 60 85" fill="none" xmlns="http://www.w3.org/2000/svg">
<mask id="mask0_1006_128" style="mask-type:luminance" maskUnits="userSpaceOnUse" x="0" y="0" width="60" height="85">
<path d="M59.8571 0H0V84.7976H59.8571V0Z" fill="white"/>
</mask>
<g mask="url(#mask0_1006_128)">
<path d="M29.9304 84.7976C38.7717 84.7976 45.939 83.4216 45.939 81.7242C45.939 80.0267 38.7717 78.6507 29.9304 78.6507C21.0892 78.6507 13.9219 80.0267 13.9219 81.7242C13.9219 83.4216 21.0892 84.7976 29.9304 84.7976Z" fill="black" fill-opacity="0.1"/>
<path d="M29.9286 0C13.4249 0 0 13.4338 0 29.9485C0 42.9986 8.33562 54.4542 20.7441 58.4553C21.1388 58.582 21.4738 58.8539 21.6823 59.2116L29.9323 73.5097L38.1823 59.2116C38.3908 58.8502 38.7221 58.582 39.1205 58.4553C51.529 54.4542 59.8646 42.9986 59.8646 29.9485C59.8572 13.4338 46.4323 0 29.9286 0Z" fill="#3EBD93"/>
<path d="M35.9681 51.5935C48.3301 48.5283 55.8684 36.0155 52.8052 23.6452C49.7421 11.275 37.2376 3.73169 24.8756 6.79685C12.5136 9.86201 4.97535 22.3749 8.03846 34.7451C11.1016 47.1154 23.6061 54.6586 35.9681 51.5935Z" fill="white"/>
<path d="M35.0273 20.6986C35.0273 20.7553 35.0265 20.8121 35.0256 20.8688L35.0248 20.9346V20.9444V20.9543L35.0289 21.1706V21.178V21.1854L35.052 21.5767L35.0536 21.6195L35.0659 21.6614C35.2328 22.2732 35.5922 22.8043 36.1751 23.1842C36.7137 23.5344 37.4208 23.7408 38.2981 23.7885V24.6116C37.1889 24.554 36.3149 24.2646 35.6645 23.8255L35.0232 23.3922V24.1659V26.6778V27.0889H35.4343H36.2565C36.3872 27.0889 36.5089 27.1514 36.5862 27.2542L36.6249 27.3158L42.3738 37.994C42.512 38.2498 42.3475 38.5581 42.0713 38.5959L42.0014 38.6H18.9898C18.6996 38.6 18.5056 38.309 18.6034 38.0483L18.6338 37.9842L24.3836 27.3052C24.451 27.1802 24.5612 27.1111 24.6821 27.0938L24.7133 27.0889H33.7898H34.201V26.6778L34.2026 24.1667V23.393L33.5613 23.8255C32.9109 24.2646 32.0377 24.554 30.9285 24.6116V23.7885C31.7705 23.7425 32.4546 23.5509 32.9841 23.2261C33.6057 22.8454 33.988 22.2978 34.1607 21.6614L34.1714 21.6236L34.1746 21.585L34.187 21.4337V21.4271V21.4205L34.1977 21.1804V21.1689L34.201 20.9683V20.9617L34.2026 20.0655V19.1676L33.5226 19.7539C32.8796 20.308 32.0221 20.6715 30.9285 20.7446V19.92C31.7705 19.8525 32.4628 19.5763 32.998 19.1109C33.6139 18.5748 33.9814 17.8241 34.1549 16.9657L34.1566 16.9583L34.1582 16.9509L34.1746 16.8448L34.1763 16.8383V16.8325C34.1903 16.7281 34.1993 16.6196 34.2026 16.5176V16.5003V16.4839L34.1993 16.4189V16.4H35.0232V16.5776H35.0273C35.0314 16.664 35.0396 16.7503 35.0503 16.8325V16.8383L35.052 16.8448L35.0692 16.9509L35.0709 16.9583L35.0717 16.9657C35.2386 17.7945 35.5864 18.523 36.1661 19.055C36.7079 19.5524 37.4216 19.8501 38.2981 19.92V20.7446C37.2037 20.6715 36.3453 20.3064 35.7023 19.7522L35.0232 19.1652V20.0638V20.3335V20.6986H35.0273ZM24.3343 30.7601L23.5606 30.5653L20.0053 37.1718L19.678 37.7778H20.3671H23.9232H24.3343V37.3667V30.7601ZM40.6357 37.777H41.323L40.9966 37.171L36.1274 28.1266L36.0107 27.9103H35.7656L26.1226 27.9111H25.4336L25.7592 28.5171L30.6292 37.5616L30.746 37.7778H30.9918L40.6357 37.777ZM25.9294 30.5677L25.1565 30.7626V37.3667V37.7778H25.5676H29.1246H29.8119L29.4855 37.1718L25.9294 30.5677ZM23.9232 18.0445C25.5125 18.0445 26.801 19.3329 26.801 20.9222C26.801 22.5116 25.5125 23.8 23.9232 23.8C22.3338 23.8 21.0454 22.5116 21.0454 20.9222C21.0454 19.3329 22.3338 18.0445 23.9232 18.0445ZM23.9232 18.8667C22.7877 18.8667 21.8676 19.7868 21.8676 20.9222C21.8676 22.0577 22.7877 22.9778 23.9232 22.9778C25.0587 22.9778 25.9787 22.0577 25.9787 20.9222C25.9787 19.7868 25.0587 18.8667 23.9232 18.8667Z" fill="#222222"/>
<path d="M35.0273 20.6986C35.0273 20.7553 35.0265 20.8121 35.0256 20.8688L35.0248 20.9346V20.9444V20.9543L35.0289 21.1706V21.178V21.1854L35.052 21.5767L35.0536 21.6195L35.0659 21.6614C35.2328 22.2732 35.5922 22.8043 36.1751 23.1842C36.7137 23.5344 37.4208 23.7408 38.2981 23.7885V24.6116C37.1889 24.554 36.3149 24.2646 35.6645 23.8255L35.0232 23.3922V24.1659V26.6778V27.0889H35.4343H36.2565C36.3872 27.0889 36.5089 27.1514 36.5862 27.2542L36.6249 27.3158L42.3738 37.994C42.512 38.2498 42.3475 38.5581 42.0713 38.5959L42.0014 38.6H18.9898C18.6996 38.6 18.5056 38.309 18.6034 38.0483L18.6338 37.9842L24.3836 27.3052C24.451 27.1802 24.5612 27.1111 24.6821 27.0938L24.7133 27.0889H33.7898H34.201V26.6778L34.2026 24.1667V23.393L33.5613 23.8255C32.9109 24.2646 32.0377 24.554 30.9285 24.6116V23.7885C31.7705 23.7425 32.4546 23.5509 32.9841 23.2261C33.6057 22.8454 33.988 22.2978 34.1607 21.6614L34.1714 21.6236L34.1746 21.585L34.187 21.4337V21.4271V21.4205L34.1977 21.1804V21.1689L34.201 20.9683V20.9617L34.2026 20.0655V19.1676L33.5226 19.7539C32.8796 20.308 32.0221 20.6715 30.9285 20.7446V19.92C31.7705 19.8525 32.4628 19.5763 32.998 19.1109C33.6139 18.5748 33.9814 17.8241 34.1549 16.9657L34.1566 16.9583L34.1582 16.9509L34.1746 16.8448L34.1763 16.8383V16.8325C34.1903 16.7281 34.1993 16.6196 34.2026 16.5176V16.5003V16.4839L34.1993 16.4189V16.4H35.0232V16.5776H35.0273C35.0314 16.664 35.0396 16.7503 35.0503 16.8325V16.8383L35.052 16.8448L35.0692 16.9509L35.0709 16.9583L35.0717 16.9657C35.2386 17.7945 35.5864 18.523 36.1661 19.055C36.7079 19.5524 37.4216 19.8501 38.2981 19.92V20.7446C37.2037 20.6715 36.3453 20.3064 35.7023 19.7522L35.0232 19.1652V20.0638V20.3335V20.6986H35.0273ZM24.3343 30.7601L23.5606 30.5653L20.0053 37.1718L19.678 37.7778H20.3671H23.9232H24.3343V37.3667V30.7601ZM40.6357 37.777H41.323L40.9966 37.171L36.1274 28.1266L36.0107 27.9103H35.7656L26.1226 27.9111H25.4336L25.7592 28.5171L30.6292 37.5616L30.746 37.7778H30.9918L40.6357 37.777ZM25.9294 30.5677L25.1565 30.7626V37.3667V37.7778H25.5676H29.1246H29.8119L29.4855 37.1718L25.9294 30.5677ZM23.9232 18.0445C25.5125 18.0445 26.801 19.3329 26.801 20.9222C26.801 22.5116 25.5125 23.8 23.9232 23.8C22.3338 23.8 21.0454 22.5116 21.0454 20.9222C21.0454 19.3329 22.3338 18.0445 23.9232 18.0445ZM23.9232 18.8667C22.7877 18.8667 21.8676 19.7868 21.8676 20.9222C21.8676 22.0577 22.7877 22.9778 23.9232 22.9778C25.0587 22.9778 25.9787 22.0577 25.9787 20.9222C25.9787 19.7868 25.0587 18.8667 23.9232 18.8667Z" stroke="#222222"/>
</g>
</svg>
