<svg width="60" height="85" viewBox="0 0 60 85" fill="none" xmlns="http://www.w3.org/2000/svg">
<mask id="mask0_1006_159" style="mask-type:luminance" maskUnits="userSpaceOnUse" x="0" y="0" width="60" height="85">
<path d="M59.8571 0H0V84.7976H59.8571V0Z" fill="white"/>
</mask>
<g mask="url(#mask0_1006_159)">
<path d="M29.9304 84.7977C38.7717 84.7977 45.939 83.4217 45.939 81.7243C45.939 80.0268 38.7717 78.6508 29.9304 78.6508C21.0892 78.6508 13.9219 80.0268 13.9219 81.7243C13.9219 83.4217 21.0892 84.7977 29.9304 84.7977Z" fill="black" fill-opacity="0.1"/>
<path d="M29.9286 0C13.4249 0 0 13.4338 0 29.9485C0 42.9986 8.33562 54.4542 20.7441 58.4553C21.1388 58.582 21.4738 58.8539 21.6823 59.2116L29.9323 73.5097L38.1823 59.2116C38.3908 58.8502 38.7221 58.582 39.1205 58.4553C51.529 54.4542 59.8646 42.9986 59.8646 29.9485C59.8572 13.4338 46.4323 0 29.9286 0Z" fill="#1179EC"/>
<path d="M35.9681 51.5935C48.3301 48.5283 55.8684 36.0155 52.8052 23.6452C49.7421 11.275 37.2376 3.73175 24.8756 6.79691C12.5136 9.86207 4.97535 22.3749 8.03846 34.7451C11.1016 47.1154 23.6061 54.6586 35.9681 51.5935Z" fill="white"/>
<path d="M40.2 21.8H33.8V19.4C33.7992 18.976 33.6304 18.5688 33.3304 18.2688C33.0312 17.9696 32.624 17.8008 32.2 17.8H21C20.576 17.8008 20.1688 17.9688 19.8688 18.2688C19.5688 18.5688 19.4008 18.976 19.4 19.4V38.6001C19.4008 39.0241 19.5696 39.4313 19.8688 39.7305C20.1688 40.0305 20.576 40.1993 21 40.2001H40.2C40.624 40.1993 41.0304 40.0305 41.3304 39.7305C41.6304 39.4305 41.7992 39.0241 41.8 38.6001V23.4001C41.7992 22.976 41.6304 22.5689 41.3304 22.2689C41.0312 21.9696 40.624 21.8009 40.2 21.8ZM28.2 38.6001H25V34.6001H28.2V38.6001ZM32.2 38.6001H29.8V34.6001C29.7992 34.1761 29.6304 33.7689 29.3304 33.4697C29.0312 33.1697 28.624 33.0009 28.2 33.0001H25C24.576 33.0009 24.1688 33.1697 23.8688 33.4697C23.5696 33.7689 23.4008 34.1761 23.4 34.6001V38.6001H21L20.9992 19.4H32.2V38.6001ZM40.2 38.6001H33.8V23.4001H40.2V38.6001ZM37.8 29.0001C37.8 29.1585 37.7528 29.3129 37.6648 29.4449C37.5776 29.5761 37.452 29.6785 37.3064 29.7393C37.16 29.8001 36.9992 29.8153 36.844 29.7849C36.6888 29.7537 36.5464 29.6777 36.4344 29.5657C36.3224 29.4537 36.2464 29.3113 36.2152 29.1561C36.1848 29.0009 36.2 28.8401 36.2608 28.6937C36.3216 28.5481 36.424 28.4225 36.5552 28.3353C36.6872 28.2473 36.8416 28.2001 37 28.2001C37.212 28.2001 37.416 28.2841 37.5656 28.4345C37.716 28.5841 37.8 28.7881 37.8 29.0001ZM36.2 25.8001C36.2 25.6417 36.2472 25.4873 36.3352 25.3553C36.4224 25.2241 36.548 25.1217 36.6936 25.0609C36.84 25.0001 37.0008 24.9849 37.156 25.0153C37.3112 25.0465 37.4536 25.1225 37.5656 25.2345C37.6776 25.3465 37.7536 25.4889 37.7848 25.6441C37.8152 25.7993 37.8 25.9601 37.7392 26.1065C37.6784 26.2521 37.576 26.3777 37.4448 26.4649C37.3128 26.5529 37.1584 26.6001 37 26.6001C36.788 26.6001 36.584 26.5161 36.4344 26.3657C36.284 26.2161 36.2 26.0121 36.2 25.8001ZM29.8 29.0001C29.8 29.1585 29.7528 29.3129 29.6648 29.4449C29.5776 29.5761 29.452 29.6785 29.3064 29.7393C29.16 29.8001 28.9992 29.8153 28.844 29.7849C28.6888 29.7537 28.5464 29.6777 28.4344 29.5657C28.3224 29.4537 28.2464 29.3113 28.2152 29.1561C28.1848 29.0009 28.2 28.8401 28.2608 28.6937C28.3216 28.5481 28.424 28.4225 28.5552 28.3353C28.6872 28.2473 28.8416 28.2001 29 28.2001C29.212 28.2001 29.416 28.2841 29.5656 28.4345C29.716 28.5841 29.8 28.7881 29.8 29.0001ZM29.8 25.8001C29.8 25.9585 29.7528 26.1129 29.6648 26.2449C29.5776 26.3761 29.452 26.4785 29.3064 26.5393C29.16 26.6001 28.9992 26.6153 28.844 26.5849C28.6888 26.5537 28.5464 26.4777 28.4344 26.3657C28.3224 26.2537 28.2464 26.1113 28.2152 25.9561C28.1848 25.8009 28.2 25.6401 28.2608 25.4937C28.3216 25.3481 28.424 25.2225 28.5552 25.1353C28.6872 25.0473 28.8416 25.0001 29 25.0001C29.212 25.0001 29.416 25.0841 29.5656 25.2345C29.716 25.3841 29.8 25.5881 29.8 25.8001ZM29.8 22.6C29.8 22.7584 29.7528 22.9128 29.6648 23.0449C29.5776 23.176 29.452 23.2785 29.3064 23.3392C29.16 23.4001 28.9992 23.4153 28.844 23.3849C28.6888 23.3537 28.5464 23.2777 28.4344 23.1656C28.3224 23.0537 28.2464 22.9112 28.2152 22.7561C28.1848 22.6008 28.2 22.4401 28.2608 22.2936C28.3216 22.1481 28.424 22.0224 28.5552 21.9352C28.6872 21.8472 28.8416 21.8 29 21.8C29.212 21.8 29.416 21.884 29.5656 22.0345C29.716 22.184 29.8 22.388 29.8 22.6ZM25 29.0001C25 29.1585 24.9528 29.3129 24.8648 29.4449C24.7776 29.5761 24.652 29.6785 24.5064 29.7393C24.36 29.8001 24.1992 29.8153 24.044 29.7849C23.8888 29.7537 23.7464 29.6777 23.6344 29.5657C23.5224 29.4537 23.4464 29.3113 23.4152 29.1561C23.3848 29.0009 23.4 28.8401 23.4608 28.6937C23.5216 28.5481 23.624 28.4225 23.7552 28.3353C23.8872 28.2473 24.0416 28.2001 24.2 28.2001C24.412 28.2001 24.616 28.2841 24.7656 28.4345C24.916 28.5841 25 28.7881 25 29.0001ZM25 25.8001C25 25.9585 24.9528 26.1129 24.8648 26.2449C24.7776 26.3761 24.652 26.4785 24.5064 26.5393C24.36 26.6001 24.1992 26.6153 24.044 26.5849C23.8888 26.5537 23.7464 26.4777 23.6344 26.3657C23.5224 26.2537 23.4464 26.1113 23.4152 25.9561C23.3848 25.8009 23.4 25.6401 23.4608 25.4937C23.5216 25.3481 23.624 25.2225 23.7552 25.1353C23.8872 25.0473 24.0416 25.0001 24.2 25.0001C24.412 25.0001 24.616 25.0841 24.7656 25.2345C24.916 25.3841 25 25.5881 25 25.8001ZM25 22.6C25 22.7584 24.9528 22.9128 24.8648 23.0449C24.7776 23.176 24.652 23.2785 24.5064 23.3392C24.36 23.4001 24.1992 23.4153 24.044 23.3849C23.8888 23.3537 23.7464 23.2777 23.6344 23.1656C23.5224 23.0537 23.4464 22.9112 23.4152 22.7561C23.3848 22.6008 23.4 22.4401 23.4608 22.2936C23.5216 22.1481 23.624 22.0224 23.7552 21.9352C23.8872 21.8472 24.0416 21.8 24.2 21.8C24.412 21.8 24.616 21.884 24.7656 22.0345C24.916 22.184 25 22.388 25 22.6Z" fill="#222222"/>
</g>
</svg>
