<svg width="109" height="104" viewBox="0 0 109 104" fill="none" xmlns="http://www.w3.org/2000/svg">
<g clip-path="url(#clip0_91_146)">
<path d="M24.3547 42.7981L24.7664 42.5496L25.1912 42.325L25.6291 42.1243L26.0999 41.9378L26.992 41.6552L27.9425 41.4422L28.9091 41.3063L29.8932 41.2326L30.8946 41.221L31.899 41.2627L32.9029 41.3537L33.9064 41.4939L34.8985 41.6786L35.8764 41.8961L36.836 42.15L37.767 42.4279L38.6694 42.7298L39.5357 43.0552L40.355 43.3991L41.1312 43.7584L41.8638 44.1403L42.5355 44.5245L43.538 45.1611L44.5168 45.8524L45.4651 46.5904L46.3869 47.3715L47.2781 48.1993L48.1361 49.062L48.9607 49.9598L49.7554 50.8966L50.5134 51.8644L51.2387 52.8596L51.9272 53.8857L52.5761 54.9312L53.189 56L53.7657 57.0923L54.2994 58.1997L54.7901 59.3224L55.2379 60.4603L55.6433 61.6058L56.0063 62.7591L56.3229 63.9235L56.5903 65.0874L56.812 66.2549L56.9844 67.422L57.1041 68.5844L57.1712 69.7423L57.1856 70.8956L57.1405 72.0362L57.0433 73.1646L56.8867 74.2804L56.8787 74.3289L57.1629 74.2854L58.1171 74.1181L59.054 73.9304L59.9738 73.7223L60.8764 73.4937L61.7578 73.2481L62.6219 72.9821L63.4689 72.6956L64.2987 72.3887L65.1147 72.0654L65.9094 71.7251L66.687 71.3644L67.4508 70.9873L68.1934 70.5933L68.9221 70.1828L69.6297 69.7554L70.3234 69.3116L70.9994 68.8549L71.6581 68.3778L72.299 67.8877L72.9221 67.3847L73.5314 66.8654L74.1229 66.3331L74.6965 65.788L75.253 65.2224L75.7951 64.6479L76.3193 64.0606L76.8257 63.4603L77.3183 62.8437L77.7891 62.2176L78.246 61.5751L78.6886 60.9238L79.1093 60.2631L79.5162 59.5859L79.9046 58.9034L80.2752 58.208L80.6279 57.4996L80.9663 56.7824L81.2862 56.0598L81.5835 55.3353L82.1456 53.8228L82.6298 52.2921L83.0454 50.7214L83.3987 49.1263L83.6746 47.5055L83.8848 45.8563L84.0285 44.1862L84.0977 42.502L84.0929 40.7962L84.0211 39.0771L83.8781 37.3479L83.6612 35.5972L83.5197 34.7323L83.3788 33.8598L83.2003 32.984L83.0217 32.1083L82.8091 31.2333L82.5929 30.3543L82.3426 29.4761L82.0957 28.602L81.8106 27.7321L81.5255 26.8623L81.2021 25.9967L80.8794 25.1236L80.5218 24.2588L80.1642 23.394L79.7684 22.5335L79.3726 21.673L78.9419 20.8208L78.5113 19.9686L78.0458 19.1248L77.5803 18.281L77.076 17.4489L76.9864 17.3009L76.8804 17.8716L76.7293 18.7035L76.5748 19.5731L76.4178 20.4728L76.2554 21.3909L76.0924 22.3166L75.9294 23.2423L75.7723 24.142L75.6153 25.0417L75.3299 26.6843L75.1975 27.4308L75.075 28.1061L74.9671 28.6992L74.9137 28.9675L74.8663 29.2097L74.8209 29.4293L74.7774 29.6264L74.7399 29.7975L74.7091 29.935C74.5503 30.592 73.8864 30.9967 73.2294 30.8373C72.5724 30.6779 72.1672 30.0137 72.3261 29.3567L72.3549 29.2417L72.3857 29.1042L72.4232 28.9331L72.4632 28.7319L72.5059 28.5007L72.5545 28.2434L72.6652 27.6619L72.7871 26.9941L72.9189 26.2552L73.2077 24.6166L73.3647 23.7169L73.5218 22.8172L73.6848 21.8916L73.8519 20.9624L74.0184 20.0408L74.1836 19.1343L74.3462 18.2579L74.5055 17.419L74.6603 16.6328L74.8059 15.9103L74.8767 15.5716L74.9422 15.2513L75.0057 14.9537L75.0714 14.6752L75.1316 14.4151L75.19 14.1776L75.2464 13.9627L75.3049 13.767L75.3621 13.5862L75.4303 13.4103L75.54 13.1924L75.8602 12.8185L76.1668 12.6026L76.5153 12.4282L76.8708 12.3037L77.2266 12.2209L77.5941 12.177L77.9967 12.1665L78.6738 12.2253L79.4073 12.3761L80.1829 12.6102L81.6623 13.2086L83.2268 14.0077L84.7816 14.9195L85.5618 15.4079L86.3189 15.9019L87.0534 16.3939L87.7619 16.8799L88.434 17.3475L89.0623 17.7962L89.3621 18.0117L89.6475 18.2184L89.9184 18.4163L90.175 18.6053L90.4137 18.7814L90.6346 18.9446L90.8418 19.0914L91.0311 19.2253L91.1991 19.3423L91.3418 19.4456L91.4598 19.5278L91.564 19.5937C92.1023 19.9437 92.2527 20.6616 91.9033 21.1997C91.5538 21.7378 90.8361 21.8877 90.2978 21.5378L90.1757 21.459L90.0289 21.3591L89.8643 21.2462L89.6894 21.1212L89.4967 20.9831L89.2861 20.8322L89.0611 20.6725L88.8224 20.4964L88.5692 20.3114L88.3017 20.1177L88.0198 19.9151L87.7269 19.7077L87.1089 19.2713L86.4545 18.8166L85.7673 18.3476L85.0576 17.8767L84.3287 17.4079L83.6019 16.9583L82.1185 16.0981L80.7021 15.3839L79.3789 14.8635L78.8429 14.707L78.3509 14.6113L78.1663 14.599L78.6587 15.3505L79.1858 16.2262L79.713 17.1019L80.2012 17.9894L80.686 18.8728L81.136 19.7645L81.5894 20.6604L82.0045 21.5604L82.4197 22.4605L82.7925 23.3683L83.1653 24.2761L83.5074 25.1888L83.8454 26.1049L84.1451 27.0253L84.4448 27.9457L84.7104 28.8669L84.9725 29.784L85.1963 30.7054L85.4202 31.6268L85.6099 32.549L85.7996 33.4712L85.9475 34.3936L86.099 35.32L86.3244 37.1473L86.474 38.9755L86.5449 40.7931L86.5488 42.5974L86.474 44.391L86.3253 46.163L86.1026 47.9134L85.806 49.6423L85.4321 51.3455L84.9848 53.0196L84.4643 54.6646L83.8724 56.2579L83.542 57.0591L83.1944 57.8399L82.8324 58.6119L82.4525 59.371L82.0508 60.1206L81.6311 60.8572L81.1971 61.585L80.7412 62.3034L80.2674 63.0088L79.7759 63.7013L79.2664 64.3809L78.7357 65.0435L78.1872 65.6932L77.6167 66.3334L77.0325 66.9572L76.4305 67.5681L75.8071 68.162L75.166 68.743L74.5076 69.3036L73.8315 69.8512L73.134 70.3818L72.4228 70.8961L71.6903 71.3934L70.9407 71.8702L70.1732 72.3341L69.3885 72.7776L68.5866 73.2006L67.7319 73.5773L66.8916 73.9629L66.034 74.3281L65.1628 74.6769L64.2709 75.0011L63.3618 75.3049L62.4355 75.5883L61.492 75.8513L60.5314 76.0938L59.5536 76.3158L58.5585 76.5174L57.547 76.6911L56.5182 76.8443L56.2655 76.8754L56.058 77.5244L55.6549 78.5543L55.1935 79.5563L54.6588 80.5293L54.0555 81.4623L53.3872 82.3592L52.6468 83.2121L51.8509 84.007L51.4071 84.408L50.9543 84.7818L50.4877 85.1392L50.0068 85.4878L49.5046 85.8194L48.9845 86.138L48.4466 86.4437L47.8909 86.7366L47.318 87.0089L46.7464 87.2663L46.1378 87.5128L45.5121 87.7389L44.8685 87.9521L44.207 88.1523L43.5284 88.3322L42.8319 88.4991L42.1142 88.649L41.3677 88.7812L40.194 88.9446L38.9635 89.0651L37.6992 89.1372L36.4121 89.1657L35.1029 89.143L33.7942 89.071L32.4893 88.9539L31.1965 88.7848L29.9384 88.5657L29.3054 88.4349L28.6923 88.2945L28.0879 88.1397L27.4958 87.9746L26.9166 87.7917L26.3538 87.595L25.4765 87.2649L24.6553 86.9435L23.8793 86.626L23.1374 86.3077L22.4339 85.9851L21.75 85.6529L20.5041 84.9838L19.3454 84.2693L18.2733 83.5168L17.7402 83.1067L17.2268 82.6869L16.7223 82.2528L16.2191 81.8036L15.7178 81.3318L15.2144 80.8409L14.7054 80.3268L14.1833 79.7888L13.6481 79.227L13.0998 78.6412L12.5315 78.0234L11.9316 77.3763C11.4986 76.9029 11.5314 76.1706 12.0003 75.7414C12.4733 75.3088 13.2056 75.342 13.6351 75.8113L14.2275 76.4577L14.7889 77.0674L15.3303 77.6449L15.8477 78.1939L16.3492 78.7074L16.8376 79.1969L17.3128 79.6627L17.7791 80.1011L18.2432 80.5203L18.7052 80.9205L19.1691 81.298L19.6274 81.6524L20.6138 82.3443L21.6538 82.9842L22.8128 83.6078L23.4164 83.9027L24.0728 84.2023L24.7708 84.5016L25.5064 84.8042L26.2912 85.1073L27.1247 85.4185L27.6252 85.5908L28.1421 85.7493L28.6746 85.9017L29.2235 86.0403L29.7847 86.1686L30.3471 86.2819L31.5307 86.487L32.7298 86.6442L33.9519 86.7541L35.1779 86.8188L36.3962 86.8412L37.5958 86.8166L38.7726 86.7482L39.9075 86.6383L40.9971 86.4828L41.6589 86.366L42.3111 86.2293L42.9605 86.0811L43.577 85.9186L44.1722 85.7391L44.7496 85.5467L45.3091 85.3414L45.8468 85.1266L46.3666 84.8988L46.8686 84.6582L47.3527 84.4046L47.819 84.1382L48.2709 83.8629L48.705 83.5747L49.1212 83.2735L49.523 82.9635L49.9029 82.6441L50.2562 82.3261L50.961 81.6218L51.5878 80.8993L52.1577 80.1341L52.6734 79.3375L53.1274 78.5091L53.5238 77.6454L53.7183 77.1469L53.3405 77.1785L52.2442 77.2349L51.1309 77.2709L50.0044 77.2829L48.8572 77.2705L47.6936 77.2301L46.8682 77.1774L46.0235 77.0851L45.1671 76.9539L44.2981 76.7912L43.4133 76.5931L42.5201 76.3602L41.622 76.0965L40.7133 75.7789L39.8053 75.4537L38.8924 75.0978L37.9786 74.7077L37.0708 74.2916L36.1616 73.8488L35.2584 73.3801L34.3653 72.8819L33.4782 72.3577L32.6006 71.8115L31.7365 71.2401L30.886 70.6432L30.0531 70.0176L29.2407 69.3748L28.4452 68.7108L27.6708 68.022L26.9209 67.3127L26.1955 66.5827L25.4981 65.8362L24.8327 65.0698L24.1994 64.2834L23.598 63.477L23.0322 62.6548L22.5018 61.8167L22.0151 60.9559L21.5747 60.0839L21.1774 59.1967L20.8272 58.2909L20.5309 57.3746L20.281 56.4472L20.0858 55.5018L19.952 54.5465L19.8756 53.5849L19.8648 52.61L19.9189 51.6294L20.0379 50.643L20.2259 49.6475L20.4857 48.6544L20.8172 47.6638L21.2131 46.675L21.6876 45.6967L21.9472 45.2342L22.2302 44.8078L22.5338 44.4059L22.8574 44.0361L23.2058 43.6874L23.5706 43.3667L23.9486 43.0698L24.3547 42.7981ZM24.8342 45.4167L24.6015 45.6542L24.3785 45.9115L24.1693 46.1851L23.9772 46.4792L23.803 46.7862L23.3799 47.6514L23.034 48.5005L22.753 49.344L22.5335 50.1776L22.3748 51.0089L22.2769 51.8379L22.2323 52.664L22.2417 53.4796L22.3078 54.2963L22.4238 55.106L22.5897 55.9087L22.8054 56.7043L23.0628 57.4997L23.3667 58.284L23.7163 59.0647L24.1083 59.8378L24.5392 60.599L25.0125 61.3526L25.5246 62.0943L26.0681 62.8237L26.6506 63.5412L27.2644 64.2463L27.9062 64.9349L28.5759 65.607L29.2736 66.2626L29.9917 66.901L30.7343 67.5187L31.4973 68.1193L32.2773 68.6987L33.0743 69.2567L33.8883 69.7936L34.7118 70.3085L35.5488 70.798L36.3878 71.265L37.2328 71.7059L38.0838 72.1209L38.9367 72.5133L39.7888 72.8715L40.6394 73.2031L41.481 73.5073L42.3177 73.7808L43.146 74.0195L43.9612 74.2343L44.7604 74.4136L45.5473 74.5615L46.3141 74.6773L47.0576 74.7571L47.7811 74.8047L48.888 74.844L49.9784 74.8553L51.0556 74.8427L52.1157 74.8097L53.1552 74.7522L54.1775 74.6742L54.4262 74.6465L54.573 73.9089L54.7111 72.9204L54.7945 71.9083L54.8299 70.8805L54.8133 69.8407L54.7487 68.7854L54.6397 67.7186L54.4815 66.6513L54.2746 65.5761L54.0534 64.492L53.7632 63.417L53.4272 62.3457L53.053 61.2786L52.6323 60.2227L52.1727 59.1785L51.6742 58.1461L51.1402 57.1296L50.5667 56.1324L49.9611 55.1551L49.3229 54.2053L48.6485 53.2789L47.9414 52.38L47.2086 51.5168L46.4424 50.6885L45.6511 49.8884L44.8333 49.1314L43.9891 48.4177L43.1225 47.7437L42.2328 47.1169L41.3127 46.5368L40.7492 46.215L40.114 45.8908L39.4179 45.5688L38.6754 45.258L37.8899 44.9625L37.0649 44.6862L36.2112 44.4339L35.3365 44.2064L34.4332 44.0029L33.5341 43.8377L32.6353 43.7142L31.7367 43.6323L30.8533 43.5935L29.992 43.6059L29.157 43.666L28.3516 43.778L27.5943 43.9472L26.8578 44.1826L26.544 44.307L26.2316 44.458L25.922 44.6206L25.6262 44.7995L25.3489 44.9839L25.0846 45.1921L24.8342 45.4167Z" fill="white"/>
</g>
<defs>
<clipPath id="clip0_91_146">
<rect width="52.5961" height="98.1794" fill="white" transform="matrix(0.643577 0.765381 0.765381 -0.643577 0 63.186)"/>
</clipPath>
</defs>
</svg>
