<svg width="62" height="60" viewBox="0 0 62 60" fill="none" xmlns="http://www.w3.org/2000/svg">
<g clip-path="url(#clip0_3748_173)">
<path d="M52.177 30.0823C51.9288 30.0823 51.6781 29.9804 51.5005 29.7767L27.1045 2.05041C26.7858 1.68734 26.2896 1.68734 25.9709 2.05041L1.57231 29.7767C1.24581 30.1502 0.676396 30.1841 0.302882 29.8576C-0.0706326 29.5285 -0.1072 28.9617 0.22191 28.5882L24.6205 0.861956C25.6313 -0.287319 27.4414 -0.287319 28.4523 0.861956L52.8509 28.5882C53.1774 28.9617 53.1434 29.5285 52.7699 29.8576C52.6001 30.0065 52.3859 30.0823 52.177 30.0823Z" fill="#222222"/>
<path d="M43.9151 20.6919C43.4188 20.6919 43.0166 20.2897 43.0166 19.7934V7.60848C43.0166 7.11221 43.4188 6.70996 43.9151 6.70996C44.4114 6.70996 44.8137 7.11221 44.8137 7.60848V19.7934C44.8137 20.2897 44.4114 20.6919 43.9151 20.6919Z" fill="#222222"/>
<path d="M51.2729 60.0002H30.774C30.2777 60.0002 29.8755 59.5979 29.8755 59.1016C29.8755 58.6054 30.2777 58.2031 30.774 58.2031H51.2729C51.7692 58.2031 52.1714 58.6054 52.1714 59.1016C52.1714 59.5979 51.7692 60.0002 51.2729 60.0002Z" fill="#222222"/>
<path d="M21.6035 60.0004H2.77108C2.2748 60.0004 1.87256 59.5982 1.87256 59.1019V34.2384C1.87256 33.7421 2.2748 33.3398 2.77108 33.3398C3.26736 33.3398 3.66961 33.7421 3.66961 34.2384V58.2034H21.6035C22.0998 58.2034 22.502 58.6056 22.502 59.1019C22.502 59.5982 22.0998 60.0004 21.6035 60.0004Z" fill="#222222"/>
<path d="M30.7766 60.0008C30.7661 60.0008 30.7583 60.0008 30.7505 60.0008C30.2542 59.9851 29.865 59.5724 29.8781 59.0762L29.8833 58.8803V49.3047C29.8833 48.0797 29.481 46.9278 28.7471 46.0632C28.0497 45.2431 27.1433 44.7912 26.1899 44.7912C24.1552 44.7912 22.4992 46.8155 22.4992 49.3021L22.5044 59.0735C22.5201 59.5698 22.1283 59.9825 21.632 59.9982C21.1227 60.0191 20.723 59.6221 20.7074 59.1258L20.7021 58.8776V49.3021C20.7021 45.8229 23.1653 42.9941 26.1899 42.9941C27.6788 42.9941 29.071 43.6706 30.1158 44.8983C31.124 46.0867 31.6803 47.6513 31.6803 49.3021L31.6751 59.1258C31.6594 59.6168 31.2598 60.0008 30.7766 60.0008Z" fill="#222222"/>
<path d="M38.2551 54.7345C38.0253 54.7345 37.7954 54.6457 37.6204 54.4707C37.2704 54.1207 37.2704 53.5513 37.6204 53.1986L58.1454 32.6736C58.4954 32.3236 59.0648 32.3236 59.4175 32.6736C59.7675 33.0236 59.7675 33.5931 59.4175 33.9457L38.8925 54.4707C38.7148 54.6457 38.485 54.7345 38.2551 54.7345Z" fill="#FF8038"/>
<path d="M42.2384 41.426C39.3129 41.426 36.936 39.0464 36.936 36.1236C36.936 33.2008 39.3156 30.8213 42.2384 30.8213C45.1638 30.8213 47.5407 33.2008 47.5407 36.1236C47.5407 39.0464 45.1638 41.426 42.2384 41.426ZM42.2384 32.6157C40.3055 32.6157 38.7331 34.1881 38.7331 36.121C38.7331 38.0539 40.3055 39.6263 42.2384 39.6263C44.1712 39.6263 45.7437 38.0539 45.7437 36.121C45.7437 34.1881 44.1712 32.6157 42.2384 32.6157Z" fill="#FF8038"/>
<path d="M55.9308 56.0588C53.0053 56.0588 50.6284 53.6793 50.6284 50.7564C50.6284 47.831 53.0079 45.4541 55.9308 45.4541C58.8536 45.4541 61.2331 47.8336 61.2331 50.7564C61.2331 53.6793 58.8536 56.0588 55.9308 56.0588ZM55.9308 47.2485C53.9979 47.2485 52.4255 48.821 52.4255 50.7538C52.4255 52.6867 53.9979 54.2591 55.9308 54.2591C57.8636 54.2591 59.436 52.6867 59.436 50.7538C59.436 48.821 57.8636 47.2485 55.9308 47.2485Z" fill="#FF8038"/>
</g>
<defs>
<clipPath id="clip0_3748_173">
<rect width="61.2329" height="60" fill="white"/>
</clipPath>
</defs>
</svg>
