<svg width="72" height="60" viewBox="0 0 72 60" fill="none" xmlns="http://www.w3.org/2000/svg">
<g clip-path="url(#clip0_4252_359)">
<path d="M1.02024 28.5715C0.765136 28.5715 0.510031 28.4766 0.311287 28.2867C-0.0951004 27.8952 -0.106966 27.2485 0.28459 26.8451L25.359 0.833304C26.4298 -0.27907 28.3075 -0.27907 29.3784 0.833304L54.4528 26.8421C54.8443 27.2485 54.8325 27.8922 54.4261 28.2837C54.0227 28.6753 53.373 28.6634 52.9844 28.257L27.91 2.25121C27.6134 1.94568 27.124 1.94568 26.8273 2.25121L1.75589 28.26C1.55418 28.4677 1.28721 28.5715 1.02024 28.5715Z" fill="#222222"/>
<path d="M45.2275 19.7641C44.6638 19.7641 44.207 19.3072 44.207 18.7436V7.31436C44.207 6.75076 44.6638 6.29395 45.2275 6.29395C45.7911 6.29395 46.2479 6.75076 46.2479 7.31436V18.7466C46.2479 19.3072 45.7911 19.7641 45.2275 19.7641Z" fill="#222222"/>
<path d="M40.312 56.6385H31.7245C31.1609 56.6385 30.7041 56.1817 30.7041 55.6181C30.7041 55.0545 31.1609 54.5977 31.7245 54.5977H40.312C40.8757 54.5977 41.3325 55.0545 41.3325 55.6181C41.3325 56.1817 40.8757 56.6385 40.312 56.6385Z" fill="#222222"/>
<path d="M22.2976 56.6385H2.94522C2.38162 56.6385 1.9248 56.1817 1.9248 55.6181V32.2939C1.9248 31.7303 2.38162 31.2734 2.94522 31.2734C3.50883 31.2734 3.96564 31.7303 3.96564 32.2939V54.5977H22.2976C22.8612 54.5977 23.318 55.0545 23.318 55.6181C23.318 56.1817 22.8612 56.6385 22.2976 56.6385Z" fill="#222222"/>
<path d="M22.2973 56.639C21.7515 56.639 21.2977 56.2059 21.2769 55.6541L21.271 55.4079V46.4259C21.271 43.065 23.8458 40.3301 27.0079 40.3301C28.5474 40.3301 29.995 40.9738 31.0866 42.1455C32.1574 43.2994 32.7477 44.8181 32.7477 46.4259L32.7448 55.6126C32.727 56.1762 32.2494 56.639 31.6947 56.6182C31.1311 56.6004 30.6891 56.1495 30.7039 55.5859V55.5503L30.7069 55.405V46.4229C30.7069 45.3313 30.3124 44.305 29.5945 43.5307C28.8945 42.7803 27.9779 42.3679 27.0108 42.3679C24.973 42.3679 23.3148 44.1863 23.3148 46.4229L23.3178 55.577C23.3385 56.1406 22.8965 56.6123 22.3359 56.633C22.324 56.639 22.3092 56.639 22.2973 56.639Z" fill="#222222"/>
<path d="M47.4553 59.9996C47.0845 59.9996 46.7108 59.8839 46.3934 59.6525C45.7586 59.1898 45.4946 58.38 45.7378 57.6325L48.5291 49.042L41.223 43.7322C40.5883 43.2695 40.3242 42.4597 40.5675 41.7122C40.8107 40.9647 41.5019 40.4633 42.285 40.4633H51.3175L54.1088 31.8728C54.352 31.1253 55.0402 30.624 55.8263 30.624C56.6124 30.624 57.3006 31.1253 57.5438 31.8728L60.3351 40.4633H69.3676C70.1537 40.4633 70.8419 40.9647 71.0851 41.7122C71.3284 42.4597 71.0643 43.2695 70.4295 43.7322L63.1235 49.042L65.9148 57.6325C66.158 58.38 65.894 59.1928 65.2592 59.6525C64.6244 60.1153 63.7701 60.1153 63.1353 59.6525L55.8293 54.3428L48.5232 59.6525C48.1999 59.8839 47.8291 59.9996 47.4553 59.9996ZM43.0058 42.5072L50.3297 47.8288C50.6886 48.0898 50.8369 48.5496 50.7005 48.9708L47.9032 57.5791L55.2271 52.2575C55.586 51.9964 56.0695 51.9964 56.4285 52.2575L63.7523 57.5761L60.9551 48.9678C60.8186 48.5466 60.967 48.0868 61.3259 47.8258L68.6497 42.5042H59.5935C59.1516 42.5042 58.76 42.2194 58.6236 41.7982L55.8263 33.1899L53.029 41.7982C52.8926 42.2194 52.501 42.5042 52.0591 42.5042H43.0058V42.5072Z" fill="#3EBD93"/>
</g>
<defs>
<clipPath id="clip0_4252_359">
<rect width="71.1742" height="60" fill="white"/>
</clipPath>
</defs>
</svg>
