<svg width="60" height="60" viewBox="0 0 60 60" fill="none" xmlns="http://www.w3.org/2000/svg">
<path d="M30 55C43.8071 55 55 43.8071 55 30C55 16.1929 43.8071 5 30 5C16.1929 5 5 16.1929 5 30C5 43.8071 16.1929 55 30 55Z" stroke="#FF8038" stroke-width="2" stroke-linecap="round" stroke-linejoin="round"/>
<path d="M30 40C35.5228 40 40 35.5228 40 30C40 24.4772 35.5228 20 30 20C24.4772 20 20 24.4772 20 30C20 35.5228 24.4772 40 30 40Z" stroke="#FF8038" stroke-width="2" stroke-linecap="round" stroke-linejoin="round"/>
<path d="M12.3281 12.325L22.9281 22.925" stroke="#FF8038" stroke-width="2" stroke-linecap="round" stroke-linejoin="round"/>
<path d="M37.0781 37.075L47.6781 47.675" stroke="#FF8038" stroke-width="2" stroke-linecap="round" stroke-linejoin="round"/>
<path d="M37.0781 22.925L47.6781 12.325" stroke="#FF8038" stroke-width="2" stroke-linecap="round" stroke-linejoin="round"/>
<path d="M37.0781 22.9251L45.9031 14.1001" stroke="#FF8038" stroke-width="2" stroke-linecap="round" stroke-linejoin="round"/>
<path d="M12.3281 47.675L22.9281 37.075" stroke="#FF8038" stroke-width="2" stroke-linecap="round" stroke-linejoin="round"/>
</svg>
