<svg width="54" height="99" viewBox="0 0 54 99" fill="none" xmlns="http://www.w3.org/2000/svg">
<g clip-path="url(#clip0_3222_729)">
<path d="M0.388695 66.6706L0.461178 66.1953L0.560394 65.7251L0.686342 65.2601L0.84426 64.779L1.19795 63.9127L1.64244 63.0459L2.15655 62.2161L2.72954 61.4127L3.36141 60.6358L4.03617 59.8906L4.74847 59.1773L5.49832 58.4958L6.27505 57.8516L7.06796 57.2393L7.87708 56.6643L8.68638 56.1267L9.49585 55.6264L10.3002 55.1688L11.0887 54.7594L11.8615 54.3927L12.6238 54.0741L13.3489 53.8037L14.4795 53.4407L15.6371 53.1309L16.811 52.8743L18.0011 52.6658L19.2075 52.5105L20.4195 52.4032L21.637 52.344L22.8655 52.3327L24.0942 52.3695L25.3231 52.4489L26.5522 52.5764L27.7709 52.7467L28.9844 52.9597L30.1928 53.2153L31.3854 53.5138L32.5621 53.8551L33.7231 54.2391L34.8628 54.6606L35.9814 55.1195L37.0788 55.6213L38.1443 56.1605L39.1834 56.7373L40.1905 57.3515L41.1605 58.0034L42.0932 58.6927L42.9887 59.4196L43.8363 60.1841L44.6414 60.9808L45.3986 61.8151L45.4308 61.8523L45.5792 61.6061L46.0612 60.7658L46.5165 59.9256L46.9451 59.0856L47.347 58.2457L47.7222 57.4112L48.0707 56.5769L48.3925 55.7428L48.6876 54.9087L48.9613 54.0748L49.2083 53.2463L49.4287 52.4179L49.6276 51.5897L49.7999 50.7669L49.9509 49.9442L50.0751 49.127L50.178 48.3099L50.2595 47.4982L50.3144 46.6867L50.3479 45.8806L50.36 45.0799L50.3508 44.2793L50.3203 43.4842L50.2684 42.6945L50.1898 41.905L50.0952 41.1209L49.9793 40.3422L49.842 39.5689L49.6834 38.7958L49.5034 38.0334L49.3021 37.2711L49.0848 36.5143L48.8462 35.7682L48.5862 35.0222L48.3102 34.287L48.0129 33.5572L47.6943 32.8329L47.3596 32.114L47.009 31.4058L46.6425 30.7137L45.8398 29.3138L44.9733 27.9623L44.0322 26.6379L43.0325 25.3457L41.9635 24.0966L40.8306 22.8798L39.6391 21.7007L38.3891 20.5699L37.0752 19.4821L35.7081 18.4372L34.2878 17.4407L32.8036 16.4871L32.0483 16.0424L31.2877 15.5924L30.5005 15.1692L29.7132 14.746L28.9048 14.3496L28.091 13.9533L27.2559 13.5837L26.4262 13.2141L25.5753 12.8766L24.7244 12.5391L23.8523 12.2338L22.9748 11.9231L22.0814 11.6445L21.1881 11.366L20.2735 11.1195L19.3589 10.8731L18.4285 10.6587L17.4981 10.4444L16.5517 10.2622L15.6054 10.0799L14.6433 9.93514L14.4722 9.90928L14.843 10.3558L15.3856 11.0044L15.955 11.6795L16.5459 12.3758L17.1476 13.0881L17.7547 13.8057L18.3617 14.5233L18.9526 15.2196L19.5435 15.916L20.6233 17.1864L21.1122 17.7658L21.5527 18.2921L21.9395 18.7546L22.1115 18.9672L22.2673 19.1586L22.407 19.3341L22.5306 19.4936L22.6381 19.6319L22.7241 19.7435C23.1273 20.286 23.0135 21.0551 22.4707 21.458C21.9278 21.861 21.1581 21.7473 20.7549 21.2048L20.685 21.1091L20.599 20.9974L20.4915 20.8591L20.3625 20.6996L20.2121 20.5189L20.0455 20.3169L19.6694 19.8597L19.2342 19.3387L18.7507 18.7646L17.6763 17.4942L17.0854 16.7979L16.4945 16.1015L15.8874 15.3839L15.2804 14.6609L14.6787 13.9433L14.0877 13.2363L13.5182 12.5505L12.9755 11.8913L12.4704 11.2693L12.0083 10.6951L11.7933 10.4239L11.5891 10.1687L11.401 9.92944L11.229 9.70077L11.0677 9.48805L10.9226 9.29127L10.7935 9.11043L10.6805 8.94017L10.5783 8.78055L10.4867 8.61554L10.3894 8.39184L10.307 7.90654L10.3372 7.53277L10.4262 7.1534L10.558 6.8005L10.722 6.47413L10.9235 6.16359L11.173 5.84747L11.6514 5.3648L12.2367 4.89762L12.9129 4.45136L14.3194 3.69734L15.9345 3.00636L17.6301 2.39505L18.5047 2.10794L19.3687 1.84224L20.2168 1.59263L21.0436 1.35912L21.8331 1.14182L22.5799 0.946068L22.9374 0.853612L23.2788 0.766559L23.6042 0.684931L23.9136 0.608706L24.2017 0.53794L24.4685 0.472594L24.7139 0.407367L24.9379 0.347569L25.1353 0.293247L25.306 0.249728L25.4447 0.211689L25.562 0.173769C26.1754 -0.0160015 26.8233 0.327789 27.0133 0.940672C27.2032 1.55355 26.8591 2.20103 26.2458 2.3908L26.1071 2.43416L25.9364 2.48303L25.7444 2.53733L25.5363 2.59171L25.3069 2.65153L25.0562 2.71678L24.7895 2.78746L24.5014 2.85824L24.1973 2.93443L23.8772 3.01604L23.5411 3.10306L23.1944 3.19547L22.4635 3.39114L21.6954 3.603L20.8953 3.83104L20.0792 4.07516L19.2526 4.33535L18.442 4.60612L16.8317 5.19568L15.3766 5.82717L14.13 6.51103L13.6668 6.82284L13.2784 7.13962L13.1509 7.27368L14.0434 7.37611L15.0537 7.53135L16.0639 7.68658L17.0584 7.87927L18.0474 8.07198L19.0207 8.29678L19.9992 8.52156L20.9566 8.77847L21.9139 9.03537L22.8501 9.32974L23.7863 9.62412L24.7065 9.94524L25.6268 10.2717L26.5259 10.6303L27.425 10.9889L28.3029 11.3743L29.1754 11.7597L30.0267 12.1773L30.878 12.5948L31.708 13.0391L32.5381 13.4835L33.3416 13.9599L34.1504 14.4364L35.6989 15.4323L37.1996 16.4872L38.6418 17.5958L40.0308 18.7473L41.3613 19.9524L42.6279 21.2006L43.8306 22.4917L44.9694 23.8259L46.039 25.2031L47.0393 26.618L47.9704 28.0706L48.8161 29.545L49.2204 30.3116L49.598 31.0784L49.9596 31.8505L50.2999 32.6281L50.6188 33.4165L50.9164 34.2104L51.1981 35.0096L51.4584 35.8196L51.6973 36.6351L51.9149 37.456L52.1112 38.2823L52.2808 39.1141L52.4291 39.9514L52.556 40.7994L52.6616 41.6475L52.7459 42.5011L52.8034 43.3601L52.8396 44.2246L52.8492 45.0892L52.8373 45.9593L52.7988 46.8348L52.739 47.7104L52.6524 48.5915L52.5392 49.4727L52.4046 50.3593L52.2433 51.2461L52.0553 52.133L51.7979 53.0309L51.5565 53.9234L51.2884 54.8161L50.9989 55.7088L50.6774 56.6017L50.3292 57.4947L49.9542 58.3879L49.5526 59.2811L49.1243 60.1746L48.6692 61.0681L48.1875 61.9618L47.6737 62.8502L47.1331 63.7389L46.9953 63.953L47.3613 64.5277L47.8947 65.4965L48.3696 66.4923L48.7752 67.5258L49.1061 68.5863L49.3678 69.6739L49.5494 70.7885L49.651 71.9088L49.6752 72.5065L49.6727 73.0936L49.6489 73.6809L49.609 74.2735L49.5424 74.8716L49.4546 75.4751L49.3453 76.0841L49.2148 76.6986L49.0575 77.3131L48.8895 77.917L48.6895 78.5425L48.4629 79.168L48.2149 79.7991L47.9455 80.4355L47.6495 81.0721L47.3321 81.7141L46.988 82.3616L46.612 83.0199L45.9866 84.0263L45.2918 85.0491L44.5382 86.0668L43.7365 87.0741L42.8813 88.0657L41.9886 89.0254L41.0637 89.9532L40.1065 90.8385L39.133 91.6651L38.6276 92.0679L38.1273 92.4493L37.6216 92.8146L37.1159 93.164L36.6047 93.4921L36.0934 93.7988L35.2784 94.2617L34.506 94.6871L33.7654 95.0803L33.0461 95.4467L32.348 95.781L31.6551 96.0939L30.3437 96.6233L29.0532 97.0565L27.7889 97.3989L27.1326 97.5462L26.4816 97.6721L25.8251 97.782L25.1579 97.8813L24.4746 97.9646L23.7753 98.0374L23.0545 98.0996L22.3069 98.1566L21.5327 98.2083L20.7317 98.2549L19.8933 98.2963L19.0122 98.3433C18.3714 98.3731 17.8295 97.8793 17.7997 97.2443C17.7699 96.604 18.2641 96.0625 18.8996 96.0327L19.7753 95.9912L20.6031 95.9498L21.3934 95.9033L22.1463 95.8569L22.8618 95.8001L23.5505 95.7381L24.2125 95.6708L24.8478 95.593L25.4669 95.5047L26.07 95.4057L26.657 95.2907L27.2226 95.1653L28.3855 94.8501L29.5427 94.4602L30.7635 93.9686L31.3765 93.6934L32.0266 93.3807L32.7033 93.0359L33.4065 92.6642L34.1417 92.255L34.9141 91.8136L35.3668 91.5392L35.8193 91.2435L36.2772 90.9317L36.7349 90.5986L37.1926 90.2494L37.6396 89.8897L38.5545 89.1113L39.4426 88.2904L40.309 87.4216L41.1433 86.5209L41.94 85.599L42.6886 84.6614L43.3891 83.7133L44.0309 82.7708L44.6086 81.834L44.9423 81.2506L45.2546 80.662L45.5562 80.0681L45.8258 79.4903L46.0687 78.9181L46.2903 78.3513L46.4906 77.7899L46.6695 77.2392L46.8271 76.6941L46.9634 76.1543L47.0783 75.6201L47.1719 75.0912L47.2495 74.5678L47.3058 74.0498L47.3407 73.5372L47.3596 73.0301L47.3572 72.5337L47.3389 72.0588L47.2486 71.0665L47.0945 70.1225L46.871 69.1949L46.5889 68.2889L46.2428 67.4099L45.8327 66.5526L45.5741 66.0841L45.3566 66.3948L44.6985 67.2733L44.0137 68.1519L43.3022 69.0253L42.5586 69.8989L41.7829 70.7673L41.2143 71.3678L40.6029 71.9579L39.954 72.5321L39.273 73.0958L38.5546 73.649L37.8041 74.1864L37.0268 74.7079L36.2012 75.2029L35.3703 75.6926L34.5127 76.1664L33.6282 76.6191L32.7276 77.0504L31.8055 77.4658L30.8673 77.86L29.913 78.2275L28.9425 78.5738L27.9613 78.8988L26.9692 79.1971L25.9664 79.4688L24.9526 79.7086L23.9388 79.9216L22.9195 80.108L21.8947 80.2624L20.8697 80.3848L19.8446 80.4751L18.8247 80.5334L17.8099 80.5544L16.8003 80.5379L15.7959 80.484L14.802 80.3927L13.8185 80.2641L12.8455 80.0873L11.8937 79.8677L10.9577 79.6054L10.0375 79.2949L9.14373 78.9363L8.27114 78.5349L7.41966 78.08L6.59997 77.5715L5.8121 77.0149L5.05599 76.3994L4.33701 75.7304L3.65516 75.0078L3.01042 74.2263L2.41349 73.3913L1.86438 72.5026L1.35776 71.5656L0.909642 70.5751L0.7203 70.0796L0.573715 69.5893L0.459177 69.0988L0.382053 68.6135L0.336952 68.1226L0.323923 67.637L0.337627 67.1566L0.388695 66.6706ZM2.70783 67.9778L2.74148 68.3085L2.79651 68.6445L2.87292 68.9804L2.97602 69.3161L3.10047 69.6465L3.49464 70.5252L3.92586 71.3344L4.39421 72.0901L4.89435 72.7922L5.43165 73.4461L6.0061 74.0518L6.6124 74.6146L7.24517 75.1293L7.91512 75.601L8.61157 76.03L9.33453 76.4161L10.084 76.7594L10.86 77.0706L11.6572 77.339L12.4808 77.5698L13.3257 77.7632L14.1864 77.9192L15.0683 78.0377L15.9661 78.1187L16.8744 78.1677L17.7985 78.1793L18.7331 78.1588L19.673 78.1062L20.618 78.0216L21.5682 77.9049L22.5183 77.7615L23.4682 77.5861L24.418 77.3841L25.3623 77.1553L26.3011 76.9L27.2345 76.6179L28.1571 76.3146L29.0689 75.9846L29.9646 75.6387L30.8441 75.2715L31.7076 74.883L32.5549 74.4786L33.3754 74.053L34.1745 73.6115L34.9468 73.1594L35.6924 72.6915L36.4058 72.2077L37.0924 71.7186L37.7417 71.2191L38.3588 70.7091L38.9385 70.1939L39.4755 69.6736L39.9751 69.1481L40.7135 68.3226L41.4199 67.4919L42.0996 66.656L42.7525 65.8202L43.3735 64.9846L43.9677 64.1491L44.1055 63.9403L43.6327 63.3555L42.9614 62.6168L42.2369 61.9051L41.4698 61.2203L40.6601 60.5677L39.8078 59.942L38.9182 59.3432L37.9968 58.7819L37.0381 58.2528L36.0634 57.7291L35.0517 57.2643L34.0134 56.837L32.9539 56.4418L31.8732 56.0894L30.7767 55.7745L29.6643 55.4969L28.5415 55.2569L27.4082 55.0595L26.2697 54.8995L25.1314 54.7823L23.988 54.7077L22.8448 54.6759L21.7124 54.6867L20.5857 54.7455L19.4644 54.8417L18.3595 54.9858L17.2708 55.1778L16.1983 55.4125L15.1474 55.6952L14.1128 56.0311L13.505 56.2582L12.8493 56.5389L12.1565 56.8678L11.4426 57.2395L10.7128 57.654L9.97255 58.1113L9.23249 58.6059L8.49792 59.1325L7.76353 59.6965L7.06129 60.2816L6.39123 60.8933L5.75335 61.5315L5.15827 62.1856L4.61668 62.8554L4.12856 63.5356L3.69924 64.2262L3.3447 64.9164L3.05438 65.633L2.9491 65.9537L2.86527 66.2904L2.79214 66.6323L2.74038 66.9742L2.70458 67.3053L2.69553 67.6416L2.70783 67.9778Z" fill="#3EBD93"/>
</g>
<defs>
<clipPath id="clip0_3222_729">
<rect width="52.5961" height="98.1794" fill="white" transform="matrix(0.999988 -0.00482943 -0.00482943 -0.999988 0.472656 98.4323)"/>
</clipPath>
</defs>
</svg>
