<svg width="46" height="27" viewBox="0 0 46 27" fill="none" xmlns="http://www.w3.org/2000/svg">
<path d="M11.6261 19.5058L11.4888 20.1482C11.0585 22.162 10.0051 24.1186 9.00086 25.6249M11.6261 19.5058L8.58452 25.348M11.6261 19.5058L10.9703 19.5446C5.14811 19.8895 0.500004 15.4182 0.500003 10.0386C0.500001 4.78336 4.89934 0.499999 10.3653 0.499997C15.8272 0.499996 20.2267 4.78323 20.2267 10.0386C20.2267 16.4574 15.1375 22.2117 9.37847 25.945M11.6261 19.5058L9.64989 26.3649M9.00086 25.6249C9.00075 25.6251 9.00064 25.6252 9.00053 25.6254L8.58452 25.348M9.00086 25.6249C9.00094 25.6248 9.00102 25.6247 9.0011 25.6245L8.58452 25.348M9.00086 25.6249C8.95588 25.6928 8.9525 25.7439 8.95807 25.7804C8.96462 25.8234 8.98856 25.8732 9.0341 25.9167C9.12337 26.0019 9.24953 26.0281 9.37847 25.945M8.58452 25.348C8.13452 26.026 8.95759 26.8119 9.64989 26.3649M9.37847 25.945C9.37829 25.9451 9.3781 25.9452 9.37792 25.9454L9.64989 26.3649M9.37847 25.945C9.37854 25.945 9.37861 25.9449 9.37868 25.9449L9.64989 26.3649" fill="white" stroke="#D8D8D8"/>
<path d="M35.9953 19.5053L35.858 20.1478C35.4276 22.1615 34.3743 24.1181 33.37 25.6244M35.9953 19.5053L32.9537 25.3475M35.9953 19.5053L35.3394 19.5441C29.5172 19.889 24.8691 15.4177 24.8691 10.0382C24.8691 4.78287 29.2685 0.49951 34.7344 0.499509C40.1963 0.499508 44.5958 4.78274 44.5958 10.0381C44.5958 16.4569 39.5067 22.2112 33.7476 25.9445M35.9953 19.5053L34.019 26.3644M33.37 25.6244C33.3699 25.6246 33.3698 25.6247 33.3697 25.6249L32.9537 25.3475M33.37 25.6244C33.3701 25.6243 33.3702 25.6242 33.3702 25.6241L32.9537 25.3475M33.37 25.6244C33.325 25.6923 33.3216 25.7434 33.3272 25.7799C33.3338 25.8229 33.3577 25.8727 33.4032 25.9162C33.4925 26.0014 33.6187 26.0277 33.7476 25.9445M32.9537 25.3475C32.5037 26.0255 33.3267 26.8114 34.019 26.3644M33.7476 25.9445C33.7474 25.9446 33.7472 25.9448 33.7471 25.9449L34.019 26.3644M33.7476 25.9445C33.7477 25.9445 33.7478 25.9444 33.7478 25.9444L34.019 26.3644" fill="white" stroke="#D8D8D8"/>
</svg>
