<svg width="440" height="429" viewBox="0 0 440 429" fill="none" xmlns="http://www.w3.org/2000/svg">
<path d="M440 428.103H160.623V366.271H0V169.164L42.4775 136.507V27.0674H132V67.8531L220 0.215576L440 169.164V428.103ZM180.415 409.234H420.208V178.163L220 24.4548L112.208 107.187V45.9362H62.2699V145.506L19.7924 178.163V347.402H160.471V238.979C160.471 207.773 187.114 182.372 219.848 182.372C252.581 182.372 279.225 207.773 279.225 238.979V366.416H180.263V409.234H180.415ZM180.415 347.402H259.585V238.979C259.585 218.223 241.772 201.241 220 201.241C198.228 201.241 180.415 218.223 180.415 238.979V347.402Z" fill="#222222" fill-opacity="0.05"/>
</svg>
