<svg width="72" height="60" viewBox="0 0 72 60" fill="none" xmlns="http://www.w3.org/2000/svg">
<g clip-path="url(#clip0_3744_91)">
<path d="M1.02048 28.5715C0.76538 28.5715 0.510275 28.4766 0.311531 28.2867C-0.0948563 27.8952 -0.106722 27.2485 0.284834 26.8451L25.3592 0.833304C26.4301 -0.27907 28.3078 -0.27907 29.3786 0.833304L54.453 26.8421C54.8446 27.2485 54.8327 27.8922 54.4263 28.2837C54.0229 28.6753 53.3733 28.6634 52.9847 28.257L27.9103 2.25121C27.6136 1.94568 27.1242 1.94568 26.8276 2.25121L1.75613 28.26C1.55442 28.4677 1.28745 28.5715 1.02048 28.5715Z" fill="#222222"/>
<path d="M45.2277 19.7641C44.6641 19.7641 44.2073 19.3072 44.2073 18.7436V7.31436C44.2073 6.75076 44.6641 6.29395 45.2277 6.29395C45.7913 6.29395 46.2481 6.75076 46.2481 7.31436V18.7466C46.2481 19.3072 45.7913 19.7641 45.2277 19.7641Z" fill="#222222"/>
<path d="M40.3125 56.6385H31.725C31.1614 56.6385 30.7046 56.1817 30.7046 55.6181C30.7046 55.0545 31.1614 54.5977 31.725 54.5977H40.3125C40.8761 54.5977 41.333 55.0545 41.333 55.6181C41.333 56.1817 40.8761 56.6385 40.3125 56.6385Z" fill="#222222"/>
<path d="M22.2981 56.6385H2.94571C2.38211 56.6385 1.92529 56.1817 1.92529 55.6181V32.2939C1.92529 31.7303 2.38211 31.2734 2.94571 31.2734C3.50931 31.2734 3.96613 31.7303 3.96613 32.2939V54.5977H22.2981C22.8617 54.5977 23.3185 55.0545 23.3185 55.6181C23.3185 56.1817 22.8617 56.6385 22.2981 56.6385Z" fill="#222222"/>
<path d="M22.2981 56.639C21.7523 56.639 21.2984 56.2059 21.2777 55.6541L21.2717 55.4079V46.4259C21.2717 43.065 23.8465 40.3301 27.0086 40.3301C28.5481 40.3301 29.9957 40.9738 31.0873 42.1455C32.1582 43.2994 32.7485 44.8181 32.7485 46.4259L32.7455 55.6126C32.7277 56.1762 32.2501 56.639 31.6954 56.6182C31.1318 56.6004 30.6898 56.1495 30.7047 55.5859V55.5503L30.7076 55.405V46.4229C30.7076 45.3313 30.3131 44.305 29.5953 43.5307C28.8952 42.7803 27.9786 42.3679 27.0116 42.3679C24.9737 42.3679 23.3155 44.1863 23.3155 46.4229L23.3185 55.577C23.3393 56.1406 22.8973 56.6123 22.3366 56.633C22.3248 56.639 22.3099 56.639 22.2981 56.639Z" fill="#222222"/>
<path d="M47.4553 59.9996C47.0845 59.9996 46.7108 59.8839 46.3934 59.6525C45.7586 59.1898 45.4946 58.38 45.7378 57.6325L48.5291 49.042L41.223 43.7322C40.5883 43.2695 40.3242 42.4597 40.5675 41.7122C40.8107 40.9647 41.5019 40.4633 42.285 40.4633H51.3175L54.1088 31.8728C54.352 31.1253 55.0402 30.624 55.8263 30.624C56.6124 30.624 57.3006 31.1253 57.5438 31.8728L60.3351 40.4633H69.3676C70.1537 40.4633 70.8419 40.9647 71.0851 41.7122C71.3284 42.4597 71.0643 43.2695 70.4295 43.7322L63.1235 49.042L65.9148 57.6325C66.158 58.38 65.894 59.1928 65.2592 59.6525C64.6244 60.1153 63.7701 60.1153 63.1353 59.6525L55.8293 54.3428L48.5232 59.6525C48.1999 59.8839 47.8291 59.9996 47.4553 59.9996ZM43.0058 42.5072L50.3297 47.8288C50.6886 48.0898 50.8369 48.5496 50.7005 48.9708L47.9032 57.5791L55.2271 52.2575C55.586 51.9964 56.0695 51.9964 56.4285 52.2575L63.7523 57.5761L60.9551 48.9678C60.8186 48.5466 60.967 48.0868 61.3259 47.8258L68.6497 42.5042H59.5935C59.1516 42.5042 58.76 42.2194 58.6236 41.7982L55.8263 33.1899L53.029 41.7982C52.8926 42.2194 52.501 42.5042 52.0591 42.5042H43.0058V42.5072Z" fill="#FF8038"/>
</g>
<defs>
<clipPath id="clip0_3744_91">
<rect width="71.1742" height="60" fill="white"/>
</clipPath>
</defs>
</svg>
