<svg width="131" height="131" viewBox="0 0 131 131" fill="none" xmlns="http://www.w3.org/2000/svg">
<g filter="url(#filter0_b_3431_5)">
<ellipse cx="65.1078" cy="65.5" rx="65.1078" ry="65.5" fill="white" fill-opacity="0.89"/>
</g>
<g filter="url(#filter1_b_3431_5)">
<ellipse cx="64.7156" cy="65.1074" rx="45.1048" ry="45.497" fill="#FF385C"/>
</g>
<path d="M55.6348 121.347L55.7993 120.045L59.387 120.498L59.2225 121.8L55.6348 121.347Z" fill="#222222"/>
<path d="M31.0299 108.147C30.9093 108.313 30.828 108.48 30.7858 108.646C30.74 108.81 30.7409 108.991 30.7886 109.189C30.8363 109.387 30.9382 109.619 31.0945 109.884C31.2444 110.151 31.4556 110.465 31.7282 110.826C32.0259 111.223 32.2848 111.611 32.5048 111.99C32.7184 112.371 32.8754 112.744 32.9757 113.11C33.0734 113.48 33.0975 113.838 33.0481 114.185C32.996 114.536 32.8494 114.877 32.6083 115.209C32.3699 115.537 32.0848 115.786 31.7528 115.956C31.4171 116.124 31.0511 116.213 30.6548 116.223C30.252 116.235 29.8367 116.167 29.4087 116.019C28.9781 115.875 28.5508 115.649 28.1268 115.341C27.5295 114.907 27.0956 114.423 26.8249 113.888C26.5506 113.351 26.4326 112.812 26.4708 112.271C26.5054 111.727 26.6861 111.23 27.0129 110.78L28.39 111.781C28.1971 112.046 28.0842 112.322 28.0511 112.608C28.0117 112.895 28.0635 113.18 28.2063 113.464C28.3455 113.745 28.5884 114.012 28.935 114.264C29.2631 114.502 29.5721 114.651 29.862 114.709C30.1518 114.768 30.4118 114.751 30.642 114.659C30.8721 114.567 31.0648 114.414 31.2202 114.2C31.33 114.049 31.3955 113.886 31.4165 113.709C31.4348 113.537 31.411 113.345 31.3448 113.133C31.2761 112.926 31.1664 112.697 31.0158 112.447C30.8653 112.196 30.6733 111.922 30.44 111.623C30.0903 111.166 29.8085 110.736 29.5945 110.332C29.3779 109.933 29.2326 109.551 29.1587 109.188C29.0848 108.824 29.0863 108.473 29.1632 108.135C29.2375 107.8 29.3924 107.47 29.6282 107.146C29.8746 106.807 30.1651 106.55 30.4998 106.376C30.8317 106.206 31.1946 106.118 31.5883 106.111C31.9756 106.105 32.3837 106.179 32.8127 106.333C33.2353 106.488 33.6622 106.722 34.0936 107.036C34.4807 107.317 34.8248 107.646 35.1259 108.022C35.4233 108.396 35.6486 108.799 35.8019 109.232C35.9526 109.668 36.0031 110.11 35.9534 110.558C35.901 111.01 35.7194 111.45 35.4087 111.878L34.0205 110.869C34.2107 110.608 34.3286 110.352 34.374 110.104C34.4158 109.853 34.3984 109.609 34.3219 109.373C34.2427 109.141 34.1163 108.92 33.9426 108.709C33.7653 108.496 33.5531 108.299 33.3061 108.12C32.9816 107.884 32.6771 107.733 32.3926 107.667C32.1045 107.599 31.8448 107.607 31.6136 107.693C31.3825 107.778 31.1879 107.93 31.0299 108.147Z" fill="#222222"/>
<path d="M17.9383 103.713L26.481 100.506L27.6269 101.891L17.5701 105.349L16.838 104.464L17.9383 103.713ZM22.9994 96.2972L18.252 104.093L17.313 105.038L16.5766 104.148L21.849 94.9067L22.9994 96.2972ZM20.2466 98.7608L21.2948 97.8937L24.7458 102.065L23.6977 102.932L20.2466 98.7608Z" fill="#222222"/>
<path d="M9.16234 92.4886L18.1682 88.2508L18.8988 89.8033L9.8929 94.0411L9.16234 92.4886ZM11.3735 86.9605L12.6044 86.3813L14.5196 90.4512L13.2887 91.0304L11.3735 86.9605ZM7.19186 88.3011L8.42893 87.719L10.5857 92.3024L9.34861 92.8845L7.19186 88.3011Z" fill="#222222"/>
<path d="M11.7672 71.6629L13.1034 71.408L14.0936 76.5986L12.7573 76.8535L11.7672 71.6629ZM4.2258 77.9868L14.0026 76.1218L14.3241 77.8072L4.54731 79.6723L4.2258 77.9868ZM7.53859 73.1724L8.8547 72.9214L9.71549 77.4337L8.39937 77.6848L7.53859 73.1724ZM3.33299 73.3066L4.67596 73.0504L5.65971 78.2074L4.31674 78.4636L3.33299 73.3066Z" fill="#222222"/>
<path d="M10.8072 45.0362L12.101 45.4566L10.4681 50.4822L9.17434 50.0618L10.8072 45.0362ZM5.35248 48.3744L14.8185 51.45L14.2882 53.0819L4.82226 50.0062L5.35248 48.3744ZM7.26211 42.4971L16.7281 45.5728L16.2 47.1981L6.734 44.1225L7.26211 42.4971Z" fill="#222222"/>
<path d="M18.8542 31.3563L19.3159 31.6493C19.9508 32.0522 20.4678 32.4964 20.8669 32.9817C21.2659 33.4671 21.5448 33.976 21.7034 34.5085C21.8645 35.0371 21.9038 35.5748 21.8213 36.1216C21.735 36.6659 21.527 37.1978 21.1973 37.7172C20.8701 38.2328 20.4786 38.6456 20.0228 38.9555C19.5657 39.2591 19.0612 39.4544 18.5094 39.5414C17.9576 39.6285 17.3747 39.5986 16.7608 39.4519C16.1493 39.3013 15.5261 39.0245 14.8912 38.6216L14.4294 38.3286C13.7945 37.9257 13.2807 37.4808 12.8879 36.9941C12.4913 36.5049 12.2137 35.994 12.055 35.4616C11.895 34.9228 11.8569 34.3832 11.9408 33.8427C12.0233 33.2959 12.2282 32.7647 12.5554 32.2491C12.8851 31.7297 13.2797 31.3162 13.7393 31.0087C14.195 30.6988 14.6995 30.5035 15.2527 30.4228C15.8021 30.3396 16.3813 30.3753 16.9903 30.5297C17.598 30.6778 18.2193 30.9534 18.8542 31.3563ZM18.3965 33.098L17.9233 32.7977C17.4538 32.4998 17.0109 32.2834 16.5944 32.1487C16.1766 32.0076 15.7903 31.9487 15.4355 31.9719C15.0794 31.9887 14.7591 32.0851 14.4748 32.2609C14.1867 32.4343 13.9413 32.6806 13.7386 33C13.5359 33.3194 13.4187 33.6444 13.387 33.9751C13.3514 34.3034 13.4005 34.6341 13.5345 34.9674C13.667 35.2944 13.8848 35.6188 14.1879 35.9407C14.4872 36.2602 14.8715 36.5689 15.3409 36.8668L15.8142 37.1671C16.2837 37.465 16.7285 37.6826 17.1488 37.8198C17.5691 37.957 17.9605 38.0164 18.3229 37.9982C18.684 37.9736 19.0073 37.8765 19.293 37.707C19.5749 37.5351 19.8172 37.2894 20.0199 36.97C20.225 36.6468 20.3453 36.3211 20.3809 35.9928C20.4127 35.6621 20.3604 35.332 20.224 35.0026C20.0838 34.6707 19.8609 34.3458 19.5553 34.0277C19.2523 33.7058 18.866 33.3959 18.3965 33.098Z" fill="#222222"/>
<path d="M19.1476 23.6948L20.2639 22.6466L27.6169 26.2726L24.4547 18.7111L25.571 17.6629L29.6137 27.5202L28.7267 28.3532L19.1476 23.6948ZM18.6393 24.1721L19.7008 23.1753L24.4336 27.8459L26.6985 30.2577L25.4527 31.4276L18.6393 24.1721ZM25.0178 18.1823L26.0842 17.1809L32.8976 24.4364L31.6468 25.611L29.3819 23.1991L25.0178 18.1823Z" fill="#222222"/>
<path d="M42.3627 17.2796L43.0181 18.4717L38.3875 21.0174L37.7322 19.8253L42.3627 17.2796ZM34.0179 12.0615L38.8129 20.7835L37.3093 21.6101L32.5143 12.8881L34.0179 12.0615ZM39.6204 13.7245L40.2659 14.8986L36.2403 17.1116L35.5949 15.9375L39.6204 13.7245ZM38.1932 9.76616L38.8518 10.9642L34.2512 13.4934L33.5926 12.2954L38.1932 9.76616Z" fill="#222222"/>
<path d="M66.2603 9.03955V10.3521H62.6441V9.03955H66.2603Z" fill="#222222"/>
<path d="M93.7011 12.8855L86.9392 19.0128L85.3637 18.1467L93.4414 11.2294L94.4478 11.7827L93.7011 12.8855ZM91.7255 21.6441L93.2698 12.6484L93.7948 11.4237L94.8072 11.9803L93.307 22.5136L91.7255 21.6441ZM93.3781 18.3402L92.7227 19.5323L87.9783 16.924L88.6337 15.7319L93.3781 18.3402Z" fill="#222222"/>
<path d="M99.3748 24.4773L106.103 20.2084L106.861 20.9197L105.414 22.2902L98.4176 26.645L97.6303 25.9056L99.3748 24.4773ZM103.577 17.8359L99.5066 24.5167L98.0389 26.2893L97.2017 25.5032L102.336 16.6707L103.577 17.8359ZM103.273 28.0254L109.656 23.5449L110.902 24.7148L102.409 30.3933L101.572 29.6071L103.273 28.0254ZM107.155 21.1958L103.287 28.1797L101.981 29.9908L101.193 29.2515L105.125 22.0188L106.407 20.4938L107.155 21.1958Z" fill="#222222"/>
<path d="M114.61 29.6883L116.496 32.6608C116.901 33.2995 117.151 33.905 117.244 34.4773C117.337 35.0496 117.271 35.5747 117.045 36.0526C116.826 36.5319 116.441 36.9461 115.891 37.2953C115.471 37.5615 115.053 37.7189 114.636 37.7677C114.219 37.8165 113.812 37.77 113.414 37.6283C113.02 37.4842 112.641 37.2556 112.275 36.9427L111.783 36.6396L110.087 33.9672L111.228 33.2268L112.499 35.2296C112.719 35.5759 112.964 35.8254 113.233 35.9781C113.503 36.1309 113.78 36.1978 114.065 36.1789C114.356 36.1615 114.637 36.0673 114.906 35.8963C115.198 35.7107 115.416 35.4918 115.558 35.2397C115.706 34.9889 115.764 34.7095 115.73 34.4015C115.701 34.0911 115.571 33.7551 115.342 33.3934L114.375 31.8696L107.125 36.4702L106.206 35.0215L114.61 29.6883ZM109.25 39.8178L111.772 35.4483L112.741 36.9627L110.306 41.317L110.231 41.3647L109.25 39.8178Z" fill="#222222"/>
<path d="M121.815 47.156L112.692 46.9938L112.136 45.2839L122.76 45.771L123.115 46.8632L121.815 47.156ZM114.38 52.1884L121.663 46.6879L122.884 46.1545L123.241 47.2533L114.937 53.9047L114.38 52.1884ZM117.846 50.9111L116.552 51.3315L114.879 46.1824L116.173 45.762L117.846 50.9111Z" fill="#222222"/>
<path d="M115.92 61.6212L115.787 59.4994L117.145 59.4276L117.278 61.5358C117.316 62.1498 117.483 62.6553 117.777 63.0523C118.072 63.4539 118.476 63.7435 118.99 63.9213C119.503 64.1036 120.106 64.173 120.797 64.1295L121.336 64.0956C121.873 64.0618 122.344 63.9705 122.75 63.8216C123.157 63.6773 123.494 63.4781 123.761 63.2238C124.028 62.9741 124.224 62.6741 124.348 62.3238C124.472 61.9781 124.521 61.5847 124.493 61.1435L124.353 58.9194L125.717 58.8335L125.857 61.0576C125.899 61.7171 125.825 62.3268 125.637 62.8866C125.453 63.4461 125.166 63.9368 124.777 64.3585C124.389 64.7848 123.912 65.123 123.348 65.3731C122.784 65.6232 122.145 65.7707 121.431 65.8157L120.905 65.8487C120.191 65.8937 119.539 65.8274 118.948 65.65C118.356 65.4725 117.841 65.1967 117.402 64.8225C116.968 64.448 116.622 63.9903 116.364 63.4495C116.111 62.9129 115.963 62.3034 115.92 61.6212ZM125.78 59.8228L115.846 60.4477L115.739 58.7353L125.672 58.1103L125.78 59.8228Z" fill="#222222"/>
<path d="M110.746 91.4236L109.559 90.8648L112.4 84.8279L113.42 85.3081L115.238 89.7448C115.45 90.2372 115.644 90.6382 115.82 90.948C115.997 91.2577 116.173 91.4992 116.348 91.6724C116.526 91.8516 116.716 91.9888 116.918 92.0839C117.202 92.2178 117.477 92.2815 117.742 92.2752C118.009 92.275 118.252 92.2029 118.471 92.0591C118.694 91.9172 118.873 91.7019 119.009 91.4133C119.166 91.0793 119.226 90.7649 119.188 90.4702C119.151 90.1755 119.031 89.9102 118.83 89.6745C118.633 89.4407 118.371 89.2471 118.045 89.0938L118.747 87.6031C119.27 87.8496 119.693 88.1942 120.013 88.6371C120.338 89.082 120.521 89.5914 120.563 90.1653C120.609 90.7411 120.482 91.3486 120.181 91.9877C119.898 92.5898 119.557 93.0536 119.157 93.3791C118.757 93.7046 118.32 93.8893 117.846 93.9332C117.37 93.9813 116.878 93.886 116.371 93.6473C116.091 93.5154 115.834 93.339 115.6 93.1183C115.366 92.8976 115.151 92.6377 114.955 92.3386C114.76 92.0456 114.578 91.7207 114.408 91.3639C114.243 91.009 114.084 90.6295 113.932 90.2254L112.702 87.2671L110.746 91.4236Z" fill="#222222"/>
<path d="M106.444 104.84L105.191 103.803C104.59 103.307 104.127 102.823 103.801 102.352C103.475 101.888 103.272 101.436 103.192 100.997C103.112 100.558 103.138 100.133 103.271 99.722C103.401 99.3148 103.622 98.9216 103.936 98.5424C104.186 98.2404 104.457 97.9914 104.749 97.7955C105.038 97.6031 105.351 97.4715 105.688 97.4009C106.024 97.3302 106.383 97.3287 106.765 97.3961C107.148 97.47 107.555 97.6177 107.987 97.839C108.416 98.0639 108.871 98.3753 109.352 98.7733L110.606 99.8103C111.21 100.31 111.669 100.791 111.985 101.253C112.304 101.718 112.502 102.169 112.579 102.605C112.659 103.044 112.633 103.466 112.499 103.87C112.363 104.278 112.138 104.671 111.824 105.05C111.572 105.356 111.301 105.605 111.011 105.797C110.723 105.996 110.413 106.131 110.083 106.201C109.75 106.274 109.394 106.276 109.016 106.205C108.637 106.14 108.233 105.995 107.804 105.77C107.379 105.548 106.925 105.238 106.444 104.84ZM106.062 102.386L107.684 103.728C107.99 103.981 108.273 104.185 108.534 104.342C108.798 104.501 109.04 104.613 109.259 104.676C109.48 104.746 109.683 104.772 109.869 104.755C110.059 104.74 110.23 104.687 110.383 104.594C110.54 104.505 110.685 104.38 110.818 104.218C110.981 104.022 111.088 103.814 111.138 103.596C111.192 103.38 111.18 103.151 111.103 102.91C111.025 102.668 110.874 102.407 110.65 102.127C110.427 101.854 110.124 101.558 109.741 101.242L108.119 99.8998C107.809 99.6441 107.523 99.4366 107.259 99.2771C106.994 99.1175 106.749 99.0032 106.522 98.934C106.299 98.8677 106.092 98.8386 105.902 98.8469C105.712 98.8616 105.539 98.9136 105.383 99.0028C105.223 99.0956 105.078 99.221 104.947 99.379C104.782 99.5791 104.674 99.7884 104.623 100.007C104.573 100.225 104.588 100.457 104.669 100.702C104.754 100.949 104.912 101.213 105.142 101.492C105.373 101.771 105.679 102.069 106.062 102.386Z" fill="#222222"/>
<path d="M98.9799 111.292L98.1836 111.87C97.8739 112.095 97.6565 112.335 97.5314 112.589C97.4026 112.846 97.3567 113.105 97.3938 113.365C97.4309 113.626 97.5378 113.877 97.7146 114.121C97.8994 114.375 98.1035 114.559 98.327 114.673C98.5494 114.793 98.7889 114.836 99.0456 114.801C99.2986 114.77 99.5652 114.652 99.8454 114.448C100.081 114.277 100.26 114.074 100.382 113.839C100.504 113.61 100.556 113.369 100.541 113.115C100.529 112.865 100.436 112.622 100.265 112.386L101.603 111.414C101.914 111.841 102.078 112.303 102.094 112.798C102.11 113.293 101.993 113.775 101.742 114.245C101.491 114.72 101.122 115.135 100.635 115.489C100.115 115.866 99.5987 116.109 99.0857 116.217C98.5716 116.332 98.0826 116.298 97.6186 116.117C97.1547 115.936 96.7405 115.595 96.3762 115.093C96.2102 114.865 96.0949 114.593 96.0303 114.28C95.9658 113.966 95.9677 113.635 96.0358 113.287C96.1067 112.943 96.2546 112.596 96.4796 112.246C96.7073 111.901 97.0276 111.578 97.4405 111.278L98.4415 110.551L98.9799 111.292ZM98.2246 110.252L98.7549 110.982L97.7539 111.709C97.282 112.052 96.84 112.289 96.4278 112.419C96.0119 112.553 95.6279 112.598 95.2758 112.555C94.9263 112.516 94.6139 112.408 94.3386 112.23C94.0596 112.056 93.8196 111.83 93.6187 111.554C93.3455 111.178 93.1699 110.792 93.0921 110.398C93.0132 110.011 93.0236 109.626 93.1233 109.243C93.223 108.861 93.4012 108.498 93.658 108.154C93.9112 107.812 94.2313 107.5 94.6184 107.219C94.965 106.967 95.3316 106.774 95.7184 106.64C96.1051 106.505 96.4921 106.441 96.8794 106.447C97.2694 106.456 97.6413 106.55 97.995 106.726C98.3478 106.909 98.6608 107.189 98.934 107.565L97.6012 108.533C97.427 108.294 97.2177 108.122 96.9732 108.018C96.7276 107.92 96.4659 107.894 96.1882 107.938C95.9067 107.984 95.6332 108.104 95.3678 108.297C95.0876 108.501 94.8822 108.726 94.7518 108.973C94.6213 109.22 94.5736 109.48 94.6087 109.753C94.64 110.029 94.7562 110.305 94.9571 110.581C95.1848 110.895 95.4304 111.105 95.6941 111.212C95.9577 111.319 96.2355 111.337 96.5273 111.265C96.8219 111.198 97.1222 111.053 97.4282 110.831L98.2246 110.252Z" fill="#222222"/>
<path d="M82.3106 120.193L81.7117 118.68C81.4248 117.956 81.2519 117.308 81.193 116.739C81.1315 116.175 81.1713 115.681 81.3124 115.258C81.4535 114.834 81.6812 114.474 81.9953 114.179C82.3053 113.884 82.689 113.647 83.1467 113.465C83.5111 113.321 83.8685 113.233 84.219 113.203C84.5652 113.173 84.9027 113.209 85.2316 113.309C85.5604 113.409 85.8759 113.581 86.178 113.824C86.4776 114.073 86.7633 114.398 87.0352 114.8C87.3029 115.204 87.5517 115.696 87.7815 116.277L88.3805 117.79C88.669 118.518 88.8403 119.161 88.8941 119.718C88.9497 120.28 88.9061 120.77 88.7633 121.189C88.6222 121.613 88.3958 121.969 88.0842 122.259C87.7684 122.551 87.3816 122.788 86.924 122.969C86.5554 123.115 86.1979 123.202 85.8517 123.232C85.5029 123.267 85.1671 123.235 84.8441 123.138C84.517 123.042 84.2044 122.872 83.9066 122.627C83.6061 122.388 83.3221 122.067 83.0544 121.663C82.7884 121.263 82.5404 120.773 82.3106 120.193ZM83.1579 117.858L83.933 119.815C84.0789 120.184 84.2284 120.5 84.3815 120.762C84.5363 121.03 84.6947 121.244 84.8566 121.405C85.0159 121.572 85.1814 121.693 85.3529 121.767C85.5261 121.846 85.702 121.882 85.8806 121.875C86.0609 121.872 86.2485 121.832 86.4434 121.755C86.6807 121.661 86.8741 121.53 87.0236 121.363C87.1748 121.2 87.2746 120.994 87.3228 120.745C87.3711 120.495 87.3645 120.194 87.3031 119.841C87.2392 119.494 87.1158 119.089 86.9329 118.627L86.1579 116.67C86.0102 116.297 85.859 115.977 85.7042 115.71C85.5495 115.443 85.3894 115.224 85.2242 115.054C85.0606 114.889 84.8935 114.764 84.7228 114.679C84.5496 114.601 84.3729 114.563 84.1926 114.566C84.0081 114.57 83.8205 114.61 83.6298 114.686C83.3883 114.781 83.1928 114.913 83.0432 115.08C82.8937 115.247 82.7957 115.457 82.7491 115.711C82.7041 115.969 82.7153 116.276 82.7826 116.631C82.8499 116.987 82.975 117.396 83.1579 117.858Z" fill="#222222"/>
<defs>
<filter id="filter0_b_3431_5" x="-111" y="-111" width="352.216" height="353" filterUnits="userSpaceOnUse" color-interpolation-filters="sRGB">
<feFlood flood-opacity="0" result="BackgroundImageFix"/>
<feGaussianBlur in="BackgroundImageFix" stdDeviation="55.5"/>
<feComposite in2="SourceAlpha" operator="in" result="effect1_backgroundBlur_3431_5"/>
<feBlend mode="normal" in="SourceGraphic" in2="effect1_backgroundBlur_3431_5" result="shape"/>
</filter>
<filter id="filter1_b_3431_5" x="-59.3892" y="-59.3896" width="248.21" height="248.994" filterUnits="userSpaceOnUse" color-interpolation-filters="sRGB">
<feFlood flood-opacity="0" result="BackgroundImageFix"/>
<feGaussianBlur in="BackgroundImageFix" stdDeviation="39.5"/>
<feComposite in2="SourceAlpha" operator="in" result="effect1_backgroundBlur_3431_5"/>
<feBlend mode="normal" in="SourceGraphic" in2="effect1_backgroundBlur_3431_5" result="shape"/>
</filter>
</defs>
</svg>
