<svg width="166" height="167" viewBox="0 0 166 167" fill="none" xmlns="http://www.w3.org/2000/svg">
<g filter="url(#filter0_b_2316_34)">
<ellipse cx="83" cy="83.5" rx="83" ry="83.5" fill="white" fill-opacity="0.89"/>
</g>
<g filter="url(#filter1_b_2316_34)">
<ellipse cx="82.5" cy="83" rx="57.5" ry="58" fill="#F6D200"/>
</g>
<path d="M71.714 152.349L71.8785 151.047L75.4662 151.5L75.3017 152.803L71.714 152.349Z" fill="#222222"/>
<path d="M41.0506 136.751C40.9301 136.917 40.8488 137.083 40.8066 137.25C40.7608 137.414 40.7617 137.595 40.8094 137.793C40.8571 137.991 40.959 138.222 41.1153 138.488C41.2652 138.755 41.4764 139.069 41.749 139.43C42.0467 139.827 42.3056 140.215 42.5256 140.594C42.7392 140.975 42.8962 141.348 42.9965 141.714C43.0942 142.083 43.1183 142.442 43.0689 142.789C43.0168 143.14 42.8702 143.481 42.6291 143.813C42.3907 144.141 42.1055 144.39 41.7736 144.56C41.4379 144.727 41.0719 144.816 40.6755 144.827C40.2728 144.838 39.8575 144.77 39.4295 144.623C38.9989 144.479 38.5716 144.253 38.1476 143.945C37.5503 143.511 37.1164 143.027 36.8457 142.492C36.5714 141.955 36.4534 141.416 36.4916 140.874C36.5262 140.331 36.7069 139.834 37.0337 139.384L38.4108 140.385C38.2179 140.65 38.105 140.926 38.0719 141.211C38.0325 141.498 38.0843 141.784 38.2271 142.068C38.3663 142.349 38.6092 142.616 38.9558 142.868C39.2839 143.106 39.5929 143.254 39.8827 143.313C40.1726 143.371 40.4326 143.355 40.6627 143.263C40.8929 143.171 41.0856 143.018 41.241 142.804C41.3508 142.653 41.4163 142.489 41.4373 142.313C41.4556 142.14 41.4317 141.949 41.3656 141.737C41.2968 141.529 41.1872 141.3 41.0366 141.05C40.8861 140.8 40.6941 140.525 40.4608 140.226C40.1111 139.769 39.8292 139.339 39.6153 138.936C39.3986 138.536 39.2534 138.155 39.1795 137.791C39.1056 137.428 39.1071 137.077 39.184 136.738C39.2582 136.404 39.4132 136.074 39.6489 135.75C39.8954 135.41 40.1859 135.154 40.5206 134.98C40.8525 134.81 41.2154 134.722 41.609 134.715C41.9964 134.709 42.4045 134.783 42.8335 134.937C43.256 135.092 43.683 135.326 44.1144 135.639C44.5015 135.921 44.8456 136.25 45.1467 136.626C45.4441 137 45.6694 137.403 45.8227 137.835C45.9734 138.272 46.0239 138.714 45.9741 139.162C45.9218 139.614 45.7402 140.054 45.4295 140.482L44.0413 139.473C44.2315 139.211 44.3493 138.956 44.3948 138.708C44.4366 138.456 44.4192 138.213 44.3427 137.977C44.2635 137.745 44.1371 137.523 43.9634 137.313C43.7861 137.099 43.5739 136.903 43.3269 136.723C43.0024 136.488 42.6979 136.337 42.4134 136.271C42.1252 136.202 41.8656 136.211 41.6344 136.296C41.4033 136.382 41.2087 136.534 41.0506 136.751Z" fill="#222222"/>
<path d="M25.5669 130.07L34.1096 126.862L35.2555 128.248L25.1987 131.705L24.4666 130.821L25.5669 130.07ZM30.628 122.654L25.8806 130.449L24.9416 131.395L24.2052 130.505L29.4776 121.263L30.628 122.654ZM27.8752 125.117L28.9234 124.25L32.3745 128.422L31.3263 129.289L27.8752 125.117Z" fill="#222222"/>
<path d="M14.9968 116.002L24.0027 111.764L24.7332 113.317L15.7274 117.555L14.9968 116.002ZM17.208 110.474L18.4388 109.895L20.354 113.965L19.1231 114.544L17.208 110.474ZM13.0263 111.815L14.2634 111.232L16.4201 115.816L15.1831 116.398L13.0263 111.815Z" fill="#222222"/>
<path d="M16.609 92.0478L17.9452 91.7929L18.9354 96.9835L17.5991 97.2384L16.609 92.0478ZM9.0676 98.3718L18.8444 96.5068L19.1659 98.1922L9.38912 100.057L9.0676 98.3718ZM12.3804 93.5574L13.6965 93.3063L14.5573 97.8187L13.2412 98.0697L12.3804 93.5574ZM8.1748 93.6915L9.51777 93.4353L10.5015 98.5924L9.15855 98.8485L8.1748 93.6915Z" fill="#222222"/>
<path d="M16.0934 58.9213L17.3872 59.3416L15.7543 64.3672L14.4605 63.9468L16.0934 58.9213ZM10.6386 62.2594L20.1046 65.3351L19.5744 66.9669L10.1084 63.8912L10.6386 62.2594ZM12.5483 56.3821L22.0143 59.4578L21.4861 61.0832L12.0202 58.0075L12.5483 56.3821Z" fill="#222222"/>
<path d="M25.5552 42.2786L26.0169 42.5716C26.6518 42.9746 27.1688 43.4187 27.5679 43.904C27.9669 44.3894 28.2458 44.8983 28.4044 45.4308C28.5655 45.9594 28.6048 46.4971 28.5223 47.0439C28.4359 47.5882 28.2279 48.1201 27.8983 48.6396C27.5711 49.1552 27.1796 49.5679 26.7238 49.8778C26.2667 50.1814 25.7622 50.3768 25.2104 50.4638C24.6586 50.5508 24.0757 50.5209 23.4618 50.3742C22.8503 50.2236 22.2271 49.9469 21.5922 49.544L21.1304 49.2509C20.4955 48.848 19.9817 48.4032 19.5889 47.9164C19.1923 47.4272 18.9146 46.9164 18.756 46.3839C18.5959 45.8451 18.5579 45.3055 18.6418 44.765C18.7243 44.2183 18.9292 43.6871 19.2564 43.1715C19.586 42.652 19.9807 42.2385 20.4403 41.9311C20.896 41.6212 21.4005 41.4259 21.9537 41.3451C22.503 41.262 23.0823 41.2976 23.6913 41.452C24.299 41.6002 24.9203 41.8757 25.5552 42.2786ZM25.0975 44.0204L24.6242 43.72C24.1548 43.4221 23.7119 43.2058 23.2954 43.071C22.8775 42.93 22.4912 42.871 22.1365 42.8942C21.7803 42.9111 21.4601 43.0074 21.1758 43.1832C20.8877 43.3566 20.6423 43.603 20.4396 43.9223C20.2369 44.2417 20.1197 44.5667 20.088 44.8974C20.0524 45.2257 20.1015 45.5565 20.2355 45.8897C20.368 46.2167 20.5858 46.5412 20.8889 46.8631C21.1881 47.1825 21.5725 47.4912 22.0419 47.7891L22.5152 48.0895C22.9846 48.3874 23.4295 48.6049 23.8498 48.7421C24.2701 48.8793 24.6615 48.9388 25.0239 48.9205C25.385 48.8959 25.7083 48.7989 25.994 48.6294C26.2759 48.4574 26.5182 48.2117 26.7208 47.8923C26.926 47.5691 27.0463 47.2434 27.0819 46.9151C27.1137 46.5844 27.0613 46.2544 26.925 45.9249C26.7847 45.5931 26.5619 45.2681 26.2563 44.9501C25.9532 44.6282 25.567 44.3183 25.0975 44.0204Z" fill="#222222"/>
<path d="M27.9032 32.1542L29.0194 31.106L36.3725 34.7321L33.2103 27.1705L34.3265 26.1223L38.3693 35.9797L37.4823 36.8126L27.9032 32.1542ZM27.3949 32.6315L28.4564 31.6348L33.1892 36.3053L35.4541 38.7172L34.2083 39.8871L27.3949 32.6315ZM33.7734 26.6418L34.8398 25.6403L41.6532 32.8959L40.4024 34.0704L38.1375 31.6586L33.7734 26.6418Z" fill="#222222"/>
<path d="M53.8435 23.7712L54.4989 24.9633L49.8683 27.509L49.213 26.3169L53.8435 23.7712ZM45.4987 18.5532L50.2936 27.2752L48.79 28.1018L43.9951 19.3798L45.4987 18.5532ZM51.1012 20.2161L51.7467 21.3902L47.7211 23.6033L47.0756 22.4291L51.1012 20.2161ZM49.674 16.2578L50.3326 17.4559L45.732 19.9851L45.0734 18.787L49.674 16.2578Z" fill="#222222"/>
<path d="M83.9788 13.949V15.2615H80.3626V13.949H83.9788Z" fill="#222222"/>
<path d="M117.731 19.4146L110.969 25.5419L109.394 24.6758L117.471 17.7585L118.478 18.3118L117.731 19.4146ZM115.755 28.1732L117.3 19.1775L117.825 17.9528L118.837 18.5094L117.337 29.0426L115.755 28.1732ZM117.408 24.8693L116.753 26.0613L112.008 23.4531L112.664 22.261L117.408 24.8693Z" fill="#222222"/>
<path d="M126.059 32.9361L132.787 28.6672L133.545 29.3784L132.098 30.749L125.102 35.1038L124.315 34.3644L126.059 32.9361ZM130.261 26.2946L126.191 32.9755L124.723 34.7481L123.886 33.962L129.02 25.1294L130.261 26.2946ZM129.957 36.4842L136.341 32.0037L137.586 33.1735L129.094 38.8521L128.256 38.0659L129.957 36.4842ZM133.839 29.6545L129.972 36.6385L128.665 38.4496L127.878 37.7103L131.809 30.4776L133.091 28.9526L133.839 29.6545Z" fill="#222222"/>
<path d="M143.387 40.6775L145.273 43.65C145.679 44.2887 145.928 44.8943 146.021 45.4666C146.115 46.0389 146.049 46.5639 145.823 47.0418C145.604 47.5211 145.219 47.9353 144.668 48.2845C144.249 48.5507 143.831 48.7082 143.414 48.7569C142.997 48.8057 142.589 48.7592 142.192 48.6175C141.798 48.4734 141.418 48.2448 141.052 47.9319L140.56 47.6288L138.864 44.9564L140.006 44.216L141.277 46.2188C141.497 46.5651 141.741 46.8146 142.011 46.9673C142.281 47.1201 142.558 47.187 142.843 47.1681C143.134 47.1507 143.414 47.0565 143.683 46.8855C143.976 46.6999 144.193 46.4811 144.335 46.2289C144.484 45.9781 144.541 45.6987 144.508 45.3908C144.478 45.0803 144.349 44.7443 144.119 44.3826L143.152 42.8588L135.903 47.4594L134.983 46.0107L143.387 40.6775ZM138.027 50.807L140.549 46.4376L141.518 47.9519L139.084 52.3063L139.009 52.3539L138.027 50.807Z" fill="#222222"/>
<path d="M151.992 61.1154L142.868 60.9532L142.313 59.2434L152.936 59.7304L153.291 60.8226L151.992 61.1154ZM144.556 66.1478L151.84 60.6473L153.061 60.114L153.418 61.2127L145.114 67.8642L144.556 66.1478ZM148.023 64.8706L146.729 65.2909L145.056 60.1419L146.35 59.7215L148.023 64.8706Z" fill="#222222"/>
<path d="M146.713 78.806L146.58 76.6842L147.938 76.6125L148.071 78.7206C148.109 79.3346 148.276 79.8401 148.57 80.2372C148.865 80.6387 149.269 80.9284 149.783 81.1061C150.296 81.2884 150.899 81.3578 151.59 81.3143L152.129 81.2804C152.666 81.2466 153.137 81.1553 153.543 81.0065C153.95 80.8622 154.287 80.6629 154.554 80.4087C154.821 80.159 155.017 79.859 155.141 79.5087C155.265 79.163 155.314 78.7695 155.286 78.3283L155.146 76.1042L156.511 76.0183L156.65 78.2425C156.692 78.902 156.618 79.5116 156.43 80.0714C156.246 80.631 155.959 81.1216 155.57 81.5434C155.182 81.9696 154.705 82.3078 154.141 82.558C153.577 82.8081 152.938 82.9556 152.224 83.0005L151.698 83.0336C150.984 83.0785 150.332 83.0122 149.741 82.8348C149.15 82.6574 148.634 82.3816 148.195 82.0074C147.761 81.6329 147.415 81.1752 147.157 80.6343C146.904 80.0977 146.756 79.4883 146.713 78.806ZM156.573 77.0076L146.639 77.6326L146.532 75.9201L156.465 75.2952L156.573 77.0076Z" fill="#222222"/>
<path d="M140.283 115.079L139.096 114.52L141.936 108.483L142.957 108.963L144.775 113.4C144.987 113.892 145.181 114.293 145.357 114.603C145.534 114.913 145.71 115.154 145.885 115.327C146.063 115.507 146.253 115.644 146.455 115.739C146.739 115.873 147.014 115.937 147.279 115.93C147.546 115.93 147.789 115.858 148.008 115.714C148.23 115.572 148.41 115.357 148.546 115.068C148.703 114.734 148.763 114.42 148.725 114.125C148.687 113.831 148.568 113.565 148.367 113.33C148.169 113.096 147.908 112.902 147.582 112.749L148.284 111.258C148.807 111.505 149.229 111.849 149.55 112.292C149.874 112.737 150.058 113.246 150.1 113.82C150.146 114.396 150.019 115.004 149.718 115.643C149.435 116.245 149.093 116.709 148.693 117.034C148.293 117.36 147.856 117.544 147.383 117.588C146.907 117.636 146.415 117.541 145.908 117.302C145.627 117.17 145.37 116.994 145.137 116.773C144.903 116.553 144.688 116.293 144.491 115.994C144.297 115.701 144.115 115.376 143.945 115.019C143.78 114.664 143.621 114.285 143.469 113.88L142.239 110.922L140.283 115.079Z" fill="#222222"/>
<path d="M134.208 131.257L132.954 130.22C132.354 129.723 131.89 129.239 131.564 128.768C131.239 128.304 131.036 127.852 130.955 127.413C130.875 126.974 130.901 126.549 131.034 126.138C131.164 125.731 131.386 125.338 131.699 124.959C131.949 124.657 132.22 124.408 132.512 124.212C132.802 124.02 133.114 123.888 133.451 123.817C133.787 123.747 134.146 123.745 134.528 123.813C134.911 123.887 135.318 124.034 135.75 124.256C136.179 124.48 136.634 124.792 137.115 125.19L138.369 126.227C138.973 126.726 139.433 127.207 139.748 127.67C140.067 128.135 140.265 128.585 140.342 129.021C140.422 129.461 140.396 129.882 140.263 130.286C140.126 130.694 139.901 131.088 139.588 131.467C139.335 131.773 139.064 132.021 138.775 132.214C138.486 132.413 138.177 132.547 137.847 132.617C137.514 132.691 137.158 132.692 136.779 132.621C136.4 132.556 135.997 132.412 135.568 132.187C135.142 131.965 134.689 131.655 134.208 131.257ZM133.825 128.802L135.447 130.144C135.753 130.397 136.036 130.602 136.297 130.758C136.561 130.918 136.803 131.029 137.023 131.093C137.243 131.163 137.446 131.189 137.632 131.171C137.822 131.156 137.993 131.103 138.146 131.011C138.303 130.922 138.448 130.796 138.582 130.635C138.744 130.438 138.851 130.231 138.901 130.012C138.956 129.797 138.944 129.568 138.866 129.326C138.788 129.084 138.637 128.823 138.413 128.543C138.19 128.27 137.887 127.975 137.504 127.658L135.882 126.316C135.573 126.061 135.286 125.853 135.022 125.694C134.757 125.534 134.512 125.42 134.285 125.35C134.062 125.284 133.855 125.255 133.665 125.263C133.476 125.278 133.303 125.33 133.146 125.419C132.986 125.512 132.841 125.637 132.711 125.796C132.545 125.996 132.437 126.205 132.386 126.423C132.336 126.642 132.351 126.873 132.433 127.118C132.518 127.366 132.675 127.629 132.905 127.909C133.136 128.188 133.442 128.486 133.825 128.802Z" fill="#222222"/>
<path d="M124.336 139.942L123.54 140.521C123.23 140.746 123.013 140.985 122.888 141.24C122.759 141.496 122.713 141.755 122.75 142.015C122.787 142.276 122.894 142.528 123.071 142.771C123.256 143.025 123.46 143.209 123.683 143.323C123.906 143.443 124.145 143.486 124.402 143.452C124.655 143.42 124.922 143.302 125.202 143.099C125.438 142.927 125.617 142.724 125.739 142.489C125.86 142.26 125.913 142.019 125.897 141.765C125.885 141.515 125.793 141.272 125.621 141.036L126.96 140.064C127.27 140.492 127.434 140.953 127.45 141.448C127.466 141.944 127.349 142.426 127.099 142.895C126.847 143.371 126.478 143.785 125.991 144.139C125.471 144.517 124.955 144.759 124.442 144.867C123.928 144.982 123.439 144.948 122.975 144.767C122.511 144.586 122.097 144.245 121.733 143.743C121.567 143.515 121.451 143.244 121.387 142.93C121.322 142.616 121.324 142.286 121.392 141.937C121.463 141.593 121.611 141.246 121.836 140.897C122.064 140.551 122.384 140.228 122.797 139.928L123.798 139.201L124.336 139.942ZM123.581 138.902L124.111 139.632L123.11 140.36C122.638 140.703 122.196 140.939 121.784 141.07C121.368 141.203 120.984 141.248 120.632 141.205C120.283 141.166 119.97 141.058 119.695 140.881C119.416 140.706 119.176 140.48 118.975 140.204C118.702 139.828 118.526 139.443 118.448 139.049C118.37 138.661 118.38 138.276 118.48 137.894C118.579 137.511 118.758 137.148 119.014 136.804C119.268 136.462 119.588 136.151 119.975 135.87C120.321 135.618 120.688 135.425 121.075 135.29C121.461 135.156 121.848 135.091 122.236 135.097C122.626 135.107 122.998 135.2 123.351 135.377C123.704 135.56 124.017 135.839 124.29 136.215L122.958 137.184C122.783 136.944 122.574 136.772 122.33 136.668C122.084 136.571 121.822 136.544 121.545 136.588C121.263 136.635 120.99 136.755 120.724 136.947C120.444 137.151 120.239 137.376 120.108 137.623C119.978 137.87 119.93 138.13 119.965 138.403C119.996 138.679 120.113 138.955 120.313 139.231C120.541 139.545 120.787 139.755 121.05 139.862C121.314 139.969 121.592 139.987 121.884 139.916C122.178 139.848 122.479 139.703 122.785 139.481L123.581 138.902Z" fill="#222222"/>
<path d="M104.779 150.407L104.18 148.894C103.893 148.17 103.721 147.523 103.662 146.953C103.6 146.389 103.64 145.895 103.781 145.472C103.922 145.048 104.15 144.689 104.464 144.393C104.774 144.098 105.158 143.861 105.615 143.68C105.98 143.535 106.337 143.448 106.688 143.417C107.034 143.388 107.371 143.423 107.7 143.523C108.029 143.623 108.345 143.795 108.647 144.038C108.946 144.287 109.232 144.613 109.504 145.015C109.772 145.418 110.02 145.911 110.25 146.491L110.849 148.004C111.138 148.733 111.309 149.376 111.363 149.933C111.418 150.494 111.375 150.984 111.232 151.403C111.091 151.827 110.864 152.184 110.553 152.474C110.237 152.765 109.85 153.002 109.393 153.183C109.024 153.329 108.667 153.417 108.32 153.446C107.972 153.481 107.636 153.45 107.313 153.352C106.986 153.256 106.673 153.086 106.375 152.841C106.075 152.602 105.791 152.281 105.523 151.877C105.257 151.478 105.009 150.988 104.779 150.407ZM105.627 148.072L106.402 150.029C106.548 150.398 106.697 150.714 106.85 150.977C107.005 151.244 107.163 151.458 107.325 151.619C107.485 151.787 107.65 151.907 107.822 151.982C107.995 152.06 108.171 152.096 108.349 152.089C108.529 152.086 108.717 152.046 108.912 151.969C109.149 151.875 109.343 151.745 109.492 151.577C109.643 151.415 109.743 151.209 109.791 150.959C109.84 150.71 109.833 150.408 109.772 150.055C109.708 149.708 109.584 149.303 109.402 148.842L108.626 146.884C108.479 146.511 108.328 146.191 108.173 145.924C108.018 145.657 107.858 145.438 107.693 145.269C107.529 145.103 107.362 144.978 107.191 144.894C107.018 144.815 106.841 144.777 106.661 144.78C106.477 144.784 106.289 144.824 106.098 144.9C105.857 144.996 105.661 145.127 105.512 145.294C105.362 145.461 105.264 145.671 105.218 145.925C105.173 146.183 105.184 146.49 105.251 146.845C105.319 147.201 105.444 147.61 105.627 148.072Z" fill="#222222"/>
<defs>
<filter id="filter0_b_2316_34" x="-111" y="-111" width="388" height="389" filterUnits="userSpaceOnUse" color-interpolation-filters="sRGB">
<feFlood flood-opacity="0" result="BackgroundImageFix"/>
<feGaussianBlur in="BackgroundImageFix" stdDeviation="55.5"/>
<feComposite in2="SourceAlpha" operator="in" result="effect1_backgroundBlur_2316_34"/>
<feBlend mode="normal" in="SourceGraphic" in2="effect1_backgroundBlur_2316_34" result="shape"/>
</filter>
<filter id="filter1_b_2316_34" x="-54" y="-54" width="273" height="274" filterUnits="userSpaceOnUse" color-interpolation-filters="sRGB">
<feFlood flood-opacity="0" result="BackgroundImageFix"/>
<feGaussianBlur in="BackgroundImageFix" stdDeviation="39.5"/>
<feComposite in2="SourceAlpha" operator="in" result="effect1_backgroundBlur_2316_34"/>
<feBlend mode="normal" in="SourceGraphic" in2="effect1_backgroundBlur_2316_34" result="shape"/>
</filter>
</defs>
</svg>
