<svg width="34" height="35" viewBox="0 0 34 35" fill="none" xmlns="http://www.w3.org/2000/svg">
<path d="M4.33594 11.7203V3.54465H10.1278V6.27787V7.32072L10.9409 6.66771L17.3042 1.55719L33.4949 14.549V34.3361H13.2993V29.9345V29.4345H12.7993H1.11328V14.5488L4.14908 12.1101L4.33594 11.96V11.7203ZM32.4933 33.8403H32.9933V33.3403V15.0225V14.7826L32.8062 14.6325L17.617 2.44753L17.3042 2.19657L16.9913 2.44748L9.62618 8.35412V4.54045V4.04045H9.12618H5.33754H4.83754V4.54045V12.194L1.80174 14.6327L1.61488 14.7828V15.0225V28.4387V28.9387H2.11488H12.7878H13.2878V28.4387V19.8436C13.2878 17.6477 15.0835 15.8562 17.2926 15.8562C19.5016 15.8562 21.2973 17.6477 21.2973 19.8436V29.446H14.2894H13.7894V29.946V33.3403V33.8403H14.2894H14.3009H32.4933ZM13.8009 28.4387V28.9387H14.3009H20.3073H20.8073V28.4387V19.8436C20.8073 17.9203 19.2302 16.352 17.3041 16.352C15.378 16.352 13.8009 17.9203 13.8009 19.8436V28.4387Z" fill="#222222" stroke="#1179EC"/>
</svg>
