<svg width="112" height="40" viewBox="0 0 112 40" fill="none" xmlns="http://www.w3.org/2000/svg">
<path d="M39 40H14.237V34.2198H0V15.7938L3.76505 12.7408V2.51018H11.7V6.32293L19.5 0L39 15.7938V40ZM15.9914 38.2361H37.2457V16.635L19.5 2.26594L9.94567 10V4.27408H5.51938V13.5821L1.75433 16.635V32.4559H14.2235V22.3202C14.2235 19.403 16.5851 17.0285 19.4865 17.0285C22.3879 17.0285 24.7495 19.403 24.7495 22.3202V34.2334H15.9779V38.2361H15.9914ZM15.9914 32.4559H23.0086V22.3202C23.0086 20.3799 21.4298 18.7924 19.5 18.7924C17.5702 18.7924 15.9914 20.3799 15.9914 22.3202V32.4559Z" fill="#1179EC"/>
<path d="M50.646 18.75V33H47.9741V18.75H50.646ZM50.2656 27.6284H49.5327C49.5389 26.9295 49.6317 26.2863 49.811 25.6987C49.9904 25.105 50.2471 24.5916 50.5811 24.1587C50.915 23.7196 51.314 23.3794 51.7778 23.1382C52.2479 22.897 52.7674 22.7764 53.3364 22.7764C53.8312 22.7764 54.2796 22.8475 54.6816 22.9897C55.0898 23.1258 55.4393 23.3485 55.73 23.6577C56.0269 23.9608 56.2557 24.3597 56.4165 24.8545C56.5773 25.3493 56.6577 25.9492 56.6577 26.6543V33H53.9673V26.6357C53.9673 26.1904 53.9023 25.841 53.7725 25.5874C53.6488 25.3276 53.4663 25.1452 53.2251 25.04C52.9901 24.9287 52.6994 24.873 52.353 24.873C51.9696 24.873 51.6418 24.9442 51.3696 25.0864C51.1037 25.2287 50.8903 25.4266 50.7295 25.6802C50.5687 25.9276 50.4512 26.2183 50.377 26.5522C50.3027 26.8862 50.2656 27.245 50.2656 27.6284ZM58.2627 28.083V27.8882C58.2627 27.1522 58.3678 26.4749 58.5781 25.8564C58.7884 25.2318 59.0946 24.6906 59.4966 24.2329C59.8986 23.7752 60.3934 23.4196 60.981 23.166C61.5685 22.9062 62.2427 22.7764 63.0034 22.7764C63.7642 22.7764 64.4414 22.9062 65.0352 23.166C65.6289 23.4196 66.1268 23.7752 66.5288 24.2329C66.937 24.6906 67.2463 25.2318 67.4565 25.8564C67.6668 26.4749 67.772 27.1522 67.772 27.8882V28.083C67.772 28.8128 67.6668 29.4901 67.4565 30.1147C67.2463 30.7332 66.937 31.2744 66.5288 31.7383C66.1268 32.196 65.632 32.5516 65.0444 32.8052C64.4569 33.0588 63.7827 33.1855 63.022 33.1855C62.2612 33.1855 61.584 33.0588 60.9902 32.8052C60.4027 32.5516 59.9048 32.196 59.4966 31.7383C59.0946 31.2744 58.7884 30.7332 58.5781 30.1147C58.3678 29.4901 58.2627 28.8128 58.2627 28.083ZM60.9346 27.8882V28.083C60.9346 28.5036 60.9717 28.8963 61.0459 29.2612C61.1201 29.6261 61.2376 29.9478 61.3984 30.2261C61.5654 30.4982 61.7819 30.7116 62.0479 30.8662C62.3138 31.0208 62.6385 31.0981 63.022 31.0981C63.3931 31.0981 63.7116 31.0208 63.9775 30.8662C64.2435 30.7116 64.4569 30.4982 64.6177 30.2261C64.7785 29.9478 64.896 29.6261 64.9702 29.2612C65.0506 28.8963 65.0908 28.5036 65.0908 28.083V27.8882C65.0908 27.48 65.0506 27.0965 64.9702 26.7378C64.896 26.3729 64.7754 26.0513 64.6084 25.7729C64.4476 25.4884 64.2342 25.2658 63.9683 25.105C63.7023 24.9442 63.3807 24.8638 63.0034 24.8638C62.6261 24.8638 62.3045 24.9442 62.0386 25.105C61.7788 25.2658 61.5654 25.4884 61.3984 25.7729C61.2376 26.0513 61.1201 26.3729 61.0459 26.7378C60.9717 27.0965 60.9346 27.48 60.9346 27.8882ZM75.3516 30.5972V22.9619H78.0234V33H75.5093L75.3516 30.5972ZM75.6484 28.5376L76.437 28.519C76.437 29.187 76.3597 29.8086 76.2051 30.3838C76.0505 30.9528 75.8185 31.4476 75.5093 31.8682C75.2 32.2826 74.8104 32.6073 74.3403 32.8423C73.8703 33.0711 73.3167 33.1855 72.6797 33.1855C72.1911 33.1855 71.7396 33.1175 71.3252 32.9814C70.917 32.8392 70.5645 32.6196 70.2676 32.3228C69.9769 32.0197 69.748 31.6331 69.5811 31.1631C69.4202 30.6868 69.3398 30.1147 69.3398 29.4468V22.9619H72.0117V29.4653C72.0117 29.7622 72.0457 30.0127 72.1138 30.2168C72.188 30.4209 72.29 30.5879 72.4199 30.7178C72.5498 30.8477 72.7013 30.9404 72.8745 30.9961C73.0539 31.0518 73.2518 31.0796 73.4683 31.0796C74.0187 31.0796 74.4517 30.9683 74.7671 30.7456C75.0887 30.5229 75.3145 30.2199 75.4443 29.8364C75.5804 29.4468 75.6484 29.0138 75.6484 28.5376ZM88.0522 30.9126V33H80.4263V30.9126H88.0522ZM87.9038 24.502L81.5024 33H79.7119V31.4136L86.0854 22.9619H87.9038V24.502ZM86.9575 22.9619V25.0586H79.8604V22.9619H86.9575ZM94.2031 33.1855C93.4238 33.1855 92.7249 33.0618 92.1064 32.8145C91.488 32.5609 90.9622 32.2114 90.5293 31.7661C90.1025 31.3208 89.7747 30.8044 89.5459 30.2168C89.3171 29.623 89.2026 28.9922 89.2026 28.3242V27.9531C89.2026 27.1924 89.3109 26.4966 89.5273 25.8657C89.7438 25.2349 90.0531 24.6875 90.4551 24.2236C90.8633 23.7598 91.3581 23.4041 91.9395 23.1567C92.5208 22.9032 93.1764 22.7764 93.9062 22.7764C94.6175 22.7764 95.2484 22.8939 95.7988 23.1289C96.3493 23.3639 96.8101 23.6979 97.1812 24.1309C97.5584 24.5638 97.8429 25.0833 98.0347 25.6895C98.2264 26.2894 98.3223 26.9574 98.3223 27.6934V28.8066H90.3438V27.0254H95.6968V26.8213C95.6968 26.4502 95.6287 26.1193 95.4927 25.8286C95.3628 25.5317 95.1649 25.2967 94.8989 25.1235C94.633 24.9504 94.2928 24.8638 93.8784 24.8638C93.5259 24.8638 93.2228 24.9411 92.9692 25.0957C92.7157 25.2503 92.5085 25.4668 92.3477 25.7451C92.193 26.0234 92.0755 26.3512 91.9951 26.7285C91.9209 27.0996 91.8838 27.5078 91.8838 27.9531V28.3242C91.8838 28.7262 91.9395 29.0973 92.0508 29.4375C92.1683 29.7777 92.3322 30.0715 92.5425 30.3188C92.759 30.5662 93.0187 30.758 93.3218 30.894C93.631 31.0301 93.9805 31.0981 94.3701 31.0981C94.8525 31.0981 95.3009 31.0054 95.7153 30.8198C96.1359 30.6281 96.4977 30.3405 96.8008 29.957L98.0996 31.3672C97.8893 31.6702 97.6017 31.9609 97.2368 32.2393C96.8781 32.5176 96.4451 32.7464 95.938 32.9258C95.4308 33.099 94.8525 33.1855 94.2031 33.1855Z" fill="#222222"/>
<path d="M99.9736 31.7104C99.9736 31.3146 100.11 30.9837 100.382 30.7178C100.66 30.4518 101.028 30.3188 101.486 30.3188C101.944 30.3188 102.308 30.4518 102.581 30.7178C102.859 30.9837 102.998 31.3146 102.998 31.7104C102.998 32.1063 102.859 32.4372 102.581 32.7031C102.308 32.9691 101.944 33.1021 101.486 33.1021C101.028 33.1021 100.66 32.9691 100.382 32.7031C100.11 32.4372 99.9736 32.1063 99.9736 31.7104Z" fill="#1179EC"/>
<path d="M52.9561 7.96191V9.85449H47.1113V7.96191H52.9561ZM48.5586 5.48486H51.2305V14.9756C51.2305 15.2663 51.2676 15.4889 51.3418 15.6436C51.4222 15.7982 51.5397 15.9064 51.6943 15.9683C51.849 16.0239 52.0438 16.0518 52.2788 16.0518C52.4458 16.0518 52.5942 16.0456 52.7241 16.0332C52.8602 16.0146 52.9746 15.9961 53.0674 15.9775L53.0767 17.9443C52.8478 18.0186 52.6004 18.0773 52.3345 18.1206C52.0685 18.1639 51.7747 18.1855 51.4531 18.1855C50.8656 18.1855 50.3522 18.0897 49.9131 17.8979C49.4801 17.7 49.1462 17.3846 48.9111 16.9517C48.6761 16.5187 48.5586 15.9497 48.5586 15.2446V5.48486ZM57.0845 3.75V18H54.4126V3.75H57.0845ZM56.7041 12.6284H55.9712C55.9774 11.9295 56.0701 11.2863 56.2495 10.6987C56.4289 10.105 56.6855 9.59163 57.0195 9.15869C57.3535 8.71956 57.7524 8.37939 58.2163 8.13818C58.6864 7.89697 59.2059 7.77637 59.7749 7.77637C60.2697 7.77637 60.7181 7.84749 61.1201 7.98975C61.5283 8.12581 61.8778 8.34847 62.1685 8.65771C62.4653 8.96077 62.6942 9.3597 62.855 9.85449C63.0158 10.3493 63.0962 10.9492 63.0962 11.6543V18H60.4058V11.6357C60.4058 11.1904 60.3408 10.841 60.2109 10.5874C60.0872 10.3276 59.9048 10.1452 59.6636 10.04C59.4285 9.92871 59.1379 9.87305 58.7915 9.87305C58.408 9.87305 58.0802 9.94417 57.8081 10.0864C57.5422 10.2287 57.3288 10.4266 57.168 10.6802C57.0072 10.9276 56.8896 11.2183 56.8154 11.5522C56.7412 11.8862 56.7041 12.245 56.7041 12.6284ZM69.748 18.1855C68.9688 18.1855 68.2699 18.0618 67.6514 17.8145C67.0329 17.5609 66.5072 17.2114 66.0742 16.7661C65.6475 16.3208 65.3197 15.8044 65.0908 15.2168C64.862 14.623 64.7476 13.9922 64.7476 13.3242V12.9531C64.7476 12.1924 64.8558 11.4966 65.0723 10.8657C65.2887 10.2349 65.598 9.6875 66 9.22363C66.4082 8.75977 66.903 8.40413 67.4844 8.15674C68.0658 7.90316 68.7214 7.77637 69.4512 7.77637C70.1624 7.77637 70.7933 7.89388 71.3438 8.12891C71.8942 8.36393 72.355 8.69792 72.7261 9.13086C73.1034 9.5638 73.3879 10.0833 73.5796 10.6895C73.7713 11.2894 73.8672 11.9574 73.8672 12.6934V13.8066H65.8887V12.0254H71.2417V11.8213C71.2417 11.4502 71.1737 11.1193 71.0376 10.8286C70.9077 10.5317 70.7098 10.2967 70.4438 10.1235C70.1779 9.95036 69.8377 9.86377 69.4233 9.86377C69.0708 9.86377 68.7677 9.94108 68.5142 10.0957C68.2606 10.2503 68.0534 10.4668 67.8926 10.7451C67.738 11.0234 67.6204 11.3512 67.54 11.7285C67.4658 12.0996 67.4287 12.5078 67.4287 12.9531V13.3242C67.4287 13.7262 67.4844 14.0973 67.5957 14.4375C67.7132 14.7777 67.8771 15.0715 68.0874 15.3188C68.3039 15.5662 68.5636 15.758 68.8667 15.894C69.1759 16.0301 69.5254 16.0981 69.915 16.0981C70.3975 16.0981 70.8459 16.0054 71.2603 15.8198C71.6808 15.6281 72.0426 15.3405 72.3457 14.957L73.6445 16.3672C73.4342 16.6702 73.1466 16.9609 72.7817 17.2393C72.423 17.5176 71.9901 17.7464 71.4829 17.9258C70.9757 18.099 70.3975 18.1855 69.748 18.1855Z" fill="#222222"/>
</svg>
