<svg width="120" height="114" viewBox="0 0 120 114" fill="none" xmlns="http://www.w3.org/2000/svg">
<path d="M51.5385 110.534L51.703 109.232L55.2907 109.685L55.1262 110.988L51.5385 110.534Z" fill="#222222"/>
<path d="M27.8309 97.6905C27.7104 97.8564 27.629 98.0226 27.5869 98.1892C27.541 98.3531 27.542 98.534 27.5896 98.732C27.6373 98.93 27.7393 99.1618 27.8956 99.4274C28.0454 99.6941 28.2567 100.008 28.5293 100.369C28.827 100.766 29.0858 101.154 29.3058 101.534C29.5194 101.914 29.6764 102.287 29.7768 102.653C29.8745 103.023 29.8986 103.381 29.8492 103.728C29.7971 104.079 29.6505 104.42 29.4094 104.752C29.171 105.08 28.8858 105.329 28.5538 105.499C28.2182 105.667 27.8522 105.756 27.4558 105.766C27.0531 105.778 26.6377 105.71 26.2098 105.562C25.7792 105.418 25.3519 105.192 24.9279 104.884C24.3306 104.45 23.8966 103.966 23.626 103.432C23.3516 102.894 23.2336 102.355 23.2719 101.814C23.3065 101.27 23.4872 100.773 23.814 100.323L25.191 101.324C24.9982 101.589 24.8852 101.865 24.8522 102.151C24.8128 102.438 24.8645 102.723 25.0074 103.007C25.1466 103.289 25.3894 103.555 25.736 103.807C26.0641 104.045 26.3731 104.194 26.663 104.252C26.9529 104.311 27.2128 104.294 27.443 104.202C27.6731 104.11 27.8659 103.957 28.0212 103.744C28.1311 103.592 28.1965 103.429 28.2175 103.252C28.2359 103.08 28.212 102.888 28.1459 102.677C28.0771 102.469 27.9674 102.24 27.8169 101.99C27.6663 101.739 27.4744 101.465 27.241 101.166C26.8913 100.709 26.6095 100.279 26.3955 99.8754C26.1789 99.4758 26.0336 99.0943 25.9598 98.7308C25.8859 98.3672 25.8874 98.0163 25.9643 97.6778C26.0385 97.3431 26.1935 97.0135 26.4292 96.689C26.6756 96.3498 26.9662 96.0934 27.3008 95.9196C27.6328 95.7496 27.9956 95.6611 28.3893 95.6543C28.7766 95.6484 29.1848 95.7224 29.6137 95.8763C30.0363 96.0312 30.4633 96.2654 30.8946 96.5788C31.2818 96.8601 31.6259 97.189 31.9269 97.5654C32.2243 97.9392 32.4497 98.3423 32.603 98.7748C32.7536 99.211 32.8041 99.6533 32.7544 100.102C32.702 100.554 32.5204 100.993 32.2097 101.421L30.8216 100.413C31.0118 100.151 31.1296 99.8956 31.175 99.647C31.2168 99.3957 31.1994 99.1521 31.1229 98.9163C31.0437 98.6841 30.9173 98.4627 30.7437 98.252C30.5663 98.0387 30.3541 97.8423 30.1071 97.6628C29.7827 97.4271 29.4782 97.2763 29.1937 97.2104C28.9055 97.1418 28.6458 97.1503 28.4147 97.2359C28.1835 97.3214 27.9889 97.473 27.8309 97.6905Z" fill="#222222"/>
<path d="M15.0935 93.5903L23.6362 90.3824L24.7822 91.7677L14.7253 95.2257L13.9933 94.3408L15.0935 93.5903ZM20.1546 86.174L15.4073 93.9695L14.4682 94.9149L13.7318 94.0247L19.0043 84.7834L20.1546 86.174ZM17.4019 88.6376L18.45 87.7705L21.9011 91.9421L20.8529 92.8092L17.4019 88.6376Z" fill="#222222"/>
<path d="M6.58221 82.784L15.5881 78.5462L16.3186 80.0987L7.31277 84.3366L6.58221 82.784ZM8.79338 77.2559L10.0243 76.6767L11.9394 80.7466L10.7086 81.3259L8.79338 77.2559ZM4.61173 78.5966L5.8488 78.0145L8.00556 82.5978L6.76849 83.1799L4.61173 78.5966Z" fill="#222222"/>
<path d="M9.33467 62.4205L10.6709 62.1656L11.6611 67.3561L10.3248 67.611L9.33467 62.4205ZM1.79331 68.7444L11.5701 66.8794L11.8917 68.5648L2.11483 70.4298L1.79331 68.7444ZM5.10611 63.93L6.42222 63.6789L7.283 68.1913L5.96689 68.4424L5.10611 63.93ZM0.900507 64.0642L2.24348 63.808L3.22723 68.965L1.88426 69.2212L0.900507 64.0642Z" fill="#222222"/>
<path d="M8.31002 36.7563L9.60379 37.1767L7.97089 42.2023L6.67712 41.7819L8.31002 36.7563ZM2.85526 40.0944L12.3212 43.1701L11.791 44.802L2.32504 41.7263L2.85526 40.0944ZM4.76489 34.2172L14.2309 37.2929L13.7028 38.9182L4.23678 35.8426L4.76489 34.2172Z" fill="#222222"/>
<path d="M16.1477 23.515L16.6094 23.8081C17.2443 24.211 17.7613 24.6551 18.1604 25.1405C18.5594 25.6258 18.8383 26.1347 18.9969 26.6672C19.158 27.1958 19.1973 27.7335 19.1148 28.2803C19.0285 28.8246 18.8204 29.3565 18.4908 29.876C18.1636 30.3916 17.7721 30.8044 17.3163 31.1143C16.8592 31.4179 16.3547 31.6132 15.8029 31.7002C15.2511 31.7872 14.6682 31.7574 14.0543 31.6106C13.4428 31.46 12.8196 31.1833 12.1847 30.7804L11.7229 30.4873C11.088 30.0844 10.5742 29.6396 10.1814 29.1528C9.7848 28.6636 9.50716 28.1528 9.34851 27.6203C9.18846 27.0815 9.15039 26.5419 9.2343 26.0014C9.31681 25.4547 9.52167 24.9235 9.84889 24.4079C10.1785 23.8884 10.5732 23.4749 11.0328 23.1675C11.4885 22.8576 11.993 22.6623 12.5462 22.5815C13.0956 22.4984 13.6748 22.534 14.2838 22.6884C14.8915 22.8366 15.5128 23.1121 16.1477 23.515ZM15.69 25.2568L15.2168 24.9564C14.7473 24.6585 14.3044 24.4422 13.8879 24.3074C13.4701 24.1664 13.0838 24.1074 12.729 24.1306C12.3729 24.1475 12.0526 24.2438 11.7683 24.4196C11.4802 24.593 11.2348 24.8394 11.0321 25.1588C10.8294 25.4781 10.7122 25.8032 10.6805 26.1339C10.6449 26.4621 10.694 26.7929 10.828 27.1262C10.9605 27.4531 11.1783 27.7776 11.4814 28.0995C11.7806 28.4189 12.165 28.7276 12.6344 29.0255L13.1077 29.3259C13.5772 29.6238 14.022 29.8413 14.4423 29.9785C14.8626 30.1157 15.254 30.1752 15.6164 30.1569C15.9775 30.1323 16.3008 30.0353 16.5865 29.8658C16.8684 29.6938 17.1107 29.4481 17.3133 29.1288C17.5185 28.8055 17.6388 28.4798 17.6744 28.1516C17.7062 27.8209 17.6538 27.4908 17.5175 27.1614C17.3772 26.8295 17.1544 26.5045 16.8488 26.1865C16.5457 25.8646 16.1595 25.5547 15.69 25.2568Z" fill="#222222"/>
<path d="M16.1359 16.2215L17.2521 15.1733L24.6051 18.7994L21.443 11.2379L22.5592 10.1896L26.6019 20.047L25.7149 20.8799L16.1359 16.2215ZM15.6276 16.6989L16.689 15.7021L21.4219 20.3726L23.6868 22.7845L22.441 23.9544L15.6276 16.6989ZM22.0061 10.7091L23.0725 9.70765L29.8858 16.9632L28.6351 18.1377L26.3702 15.7259L22.0061 10.7091Z" fill="#222222"/>
<path d="M38.9494 10.0963L39.6047 11.2884L34.9742 13.8341L34.3188 12.642L38.9494 10.0963ZM30.6045 4.87825L35.3995 13.6002L33.8959 14.4268L29.1009 5.70485L30.6045 4.87825ZM36.207 6.54117L36.8525 7.71528L32.827 9.92833L32.1815 8.75422L36.207 6.54117ZM34.7798 2.58286L35.4385 3.78094L30.8379 6.31015L30.1792 5.11207L34.7798 2.58286Z" fill="#222222"/>
<path d="M61.9212 2.0918V3.4043L58.305 3.4043V2.0918L61.9212 2.0918Z" fill="#222222"/>
<path d="M88.4272 5.69809L81.6653 11.8254L80.0898 10.9593L88.1675 4.04197L89.1739 4.59523L88.4272 5.69809ZM86.4516 14.4567L87.9958 5.46097L88.5209 4.23627L89.5333 4.79283L88.033 15.3261L86.4516 14.4567ZM88.1041 11.1527L87.4488 12.3448L82.7044 9.73656L83.3598 8.54448L88.1041 11.1527Z" fill="#222222"/>
<path d="M93.7077 17.0028L100.436 12.7339L101.193 13.4451L99.747 14.8157L92.7506 19.1705L91.9632 18.4311L93.7077 17.0028ZM97.9096 10.3613L93.8395 17.0422L92.3719 18.8148L91.5347 18.0286L96.6687 9.19613L97.9096 10.3613ZM97.6059 20.5509L103.989 16.0704L105.235 17.2402L96.7421 22.9187L95.9049 22.1326L97.6059 20.5509ZM101.487 13.7212L97.6204 20.7052L96.3136 22.5163L95.5262 21.7769L99.458 14.5443L100.74 13.0193L101.487 13.7212Z" fill="#222222"/>
<path d="M108.632 21.8403L110.519 24.8127C110.924 25.4515 111.173 26.057 111.267 26.6293C111.36 27.2016 111.294 27.7267 111.068 28.2045C110.849 28.6838 110.464 29.098 109.914 29.4472C109.494 29.7134 109.076 29.8709 108.659 29.9196C108.242 29.9684 107.835 29.9219 107.437 29.7802C107.043 29.6361 106.663 29.4076 106.298 29.0946L105.806 28.7915L104.11 26.1192L105.251 25.3787L106.522 27.3815C106.742 27.7278 106.986 27.9773 107.256 28.1301C107.526 28.2828 107.803 28.3497 108.088 28.3309C108.379 28.3134 108.659 28.2192 108.929 28.0483C109.221 27.8627 109.438 27.6438 109.581 27.3916C109.729 27.1408 109.787 26.8614 109.753 26.5535C109.723 26.2431 109.594 25.907 109.364 25.5453L108.397 24.0215L101.148 28.6221L100.229 27.1734L108.632 21.8403ZM103.272 31.9698L105.794 27.6003L106.764 29.1146L104.329 33.469L104.254 33.5166L103.272 31.9698Z" fill="#222222"/>
<path d="M115.631 38.8677L106.508 38.7055L105.952 36.9956L116.576 37.4827L116.931 38.5749L115.631 38.8677ZM108.195 43.9001L115.479 38.3996L116.7 37.8663L117.057 38.965L108.753 45.6164L108.195 43.9001ZM111.662 42.6228L110.368 43.0432L108.695 37.8941L109.989 37.4737L111.662 42.6228Z" fill="#222222"/>
<path d="M109.644 52.8548L109.511 50.7331L110.869 50.6613L111.002 52.7694C111.041 53.3834 111.207 53.889 111.502 54.286C111.796 54.6875 112.2 54.9772 112.714 55.1549C113.228 55.3372 113.83 55.4066 114.521 55.3631L115.06 55.3292C115.597 55.2954 116.069 55.2041 116.475 55.0553C116.881 54.911 117.218 54.7117 117.485 54.4575C117.753 54.2078 117.948 53.9078 118.072 53.5575C118.197 53.2118 118.245 52.8183 118.217 52.3771L118.077 50.153L119.442 50.0672L119.582 52.2913C119.623 52.9508 119.55 53.5604 119.361 54.1203C119.177 54.6798 118.891 55.1704 118.502 55.5922C118.113 56.0185 117.637 56.3567 117.072 56.6068C116.508 56.8569 115.869 57.0044 115.155 57.0493L114.63 57.0824C113.916 57.1273 113.263 57.0611 112.672 56.8836C112.081 56.7062 111.566 56.4304 111.127 56.0562C110.692 55.6817 110.346 55.224 110.088 54.6831C109.835 54.1465 109.687 53.5371 109.644 52.8548ZM119.504 51.0564L109.571 51.6814L109.463 49.9689L119.396 49.344L119.504 51.0564Z" fill="#222222"/>
<path d="M104.656 81.7004L103.468 81.1416L106.309 75.1047L107.33 75.585L109.148 80.0216C109.359 80.514 109.554 80.9151 109.73 81.2248C109.907 81.5346 110.083 81.776 110.258 81.9492C110.436 82.1285 110.625 82.2656 110.827 82.3607C111.112 82.4946 111.387 82.5584 111.652 82.5521C111.919 82.5518 112.162 82.4798 112.38 82.3359C112.603 82.194 112.783 81.9787 112.918 81.6901C113.076 81.3561 113.135 81.0417 113.098 80.747C113.06 80.4523 112.941 80.1871 112.739 79.9513C112.542 79.7175 112.281 79.5239 111.955 79.3706L112.656 77.88C113.18 78.1264 113.602 78.4711 113.923 78.914C114.247 79.3588 114.431 79.8682 114.473 80.4421C114.519 81.0179 114.392 81.6254 114.091 82.2646C113.808 82.8666 113.466 83.3304 113.066 83.6559C112.666 83.9814 112.229 84.1662 111.755 84.2101C111.279 84.2581 110.788 84.1628 110.281 83.9241C110 83.7922 109.743 83.6158 109.51 83.3951C109.276 83.1744 109.061 82.9145 108.864 82.6154C108.67 82.3224 108.488 81.9975 108.318 81.6407C108.153 81.2858 107.994 80.9064 107.841 80.5023L106.612 77.5439L104.656 81.7004Z" fill="#222222"/>
<path d="M100.616 94.7088L99.3626 93.6717C98.7621 93.175 98.2988 92.6912 97.9727 92.2203C97.6472 91.7558 97.4443 91.304 97.3639 90.8649C97.2836 90.4258 97.3098 90.001 97.4425 89.5903C97.5723 89.1831 97.7941 88.7899 98.1079 88.4107C98.3577 88.1087 98.6287 87.8597 98.9209 87.6638C99.2102 87.4714 99.5231 87.3398 99.8595 87.2692C100.196 87.1985 100.555 87.1969 100.937 87.2644C101.319 87.3383 101.727 87.486 102.159 87.7073C102.588 87.9322 103.043 88.2436 103.524 88.6416L104.777 89.6786C105.381 90.1783 105.841 90.6592 106.157 91.1213C106.476 91.5864 106.674 92.0371 106.751 92.4732C106.831 92.9123 106.805 93.334 106.671 93.7383C106.535 94.146 106.31 94.5396 105.996 94.9188C105.744 95.2243 105.473 95.4732 105.183 95.6657C104.895 95.8645 104.585 95.999 104.255 96.069C103.922 96.1425 103.566 96.1438 103.187 96.0728C102.809 96.0083 102.405 95.8635 101.976 95.6387C101.551 95.4167 101.097 95.1068 100.616 94.7088ZM100.234 92.2542L101.856 93.5963C102.161 93.849 102.445 94.0536 102.705 94.2103C102.97 94.3698 103.212 94.4812 103.431 94.5446C103.652 94.6144 103.855 94.6406 104.041 94.623C104.23 94.6083 104.402 94.5549 104.555 94.4627C104.711 94.3734 104.857 94.2481 104.99 94.0865C105.153 93.8899 105.26 93.6824 105.31 93.4639C105.364 93.2484 105.352 93.0197 105.274 92.7779C105.196 92.536 105.046 92.2751 104.822 91.9953C104.598 91.7218 104.295 91.4268 103.913 91.1101L102.29 89.7681C101.981 89.5124 101.695 89.3049 101.43 89.1453C101.166 88.9858 100.921 88.8715 100.694 88.8023C100.471 88.736 100.264 88.7069 100.074 88.7152C99.8843 88.7299 99.7112 88.7819 99.5546 88.8711C99.395 88.9639 99.2499 89.0893 99.1192 89.2473C98.9536 89.4474 98.8455 89.6567 98.7949 89.8751C98.7444 90.0935 98.7598 90.3251 98.8412 90.5699C98.9261 90.8176 99.0837 91.0811 99.314 91.3603C99.5444 91.6396 99.8509 91.9375 100.234 92.2542Z" fill="#222222"/>
<path d="M93.508 100.829L92.7116 101.407C92.4019 101.632 92.1845 101.872 92.0594 102.126C91.9306 102.383 91.8848 102.642 91.9218 102.902C91.9589 103.163 92.0658 103.414 92.2426 103.658C92.4275 103.912 92.6316 104.096 92.855 104.21C93.0774 104.33 93.317 104.373 93.5737 104.338C93.8266 104.307 94.0932 104.189 94.3734 103.986C94.6094 103.814 94.7884 103.611 94.9105 103.376C95.0316 103.147 95.0845 102.906 95.0692 102.652C95.0565 102.402 94.9645 102.159 94.7931 101.923L96.1314 100.951C96.4422 101.378 96.6056 101.84 96.6218 102.335C96.638 102.83 96.5208 103.313 96.2703 103.782C96.0188 104.258 95.6497 104.672 95.163 105.026C94.6432 105.403 94.1267 105.646 93.6137 105.754C93.0997 105.869 92.6107 105.835 92.1467 105.654C91.6827 105.473 91.2686 105.132 90.9043 104.63C90.7382 104.402 90.6229 104.131 90.5584 103.817C90.4939 103.503 90.4957 103.172 90.5639 102.824C90.6347 102.48 90.7827 102.133 91.0077 101.784C91.2353 101.438 91.5556 101.115 91.9686 100.815L92.9696 100.088L93.508 100.829ZM92.7526 99.7892L93.283 100.519L92.282 101.246C91.81 101.589 91.368 101.826 90.9558 101.956C90.5399 102.09 90.1559 102.135 89.8038 102.092C89.4544 102.053 89.142 101.945 88.8666 101.767C88.5876 101.593 88.3477 101.367 88.1468 101.091C87.8735 100.715 87.698 100.33 87.6201 99.9355C87.5412 99.5478 87.5516 99.1628 87.6513 98.7805C87.751 98.3983 87.9293 98.035 88.1861 97.6907C88.4392 97.349 88.7593 97.0376 89.1465 96.7563C89.493 96.5045 89.8597 96.3114 90.2464 96.1769C90.6331 96.0424 91.0201 95.978 91.4075 95.9839C91.7975 95.9935 92.1693 96.0866 92.5231 96.2634C92.8758 96.4465 93.1888 96.7261 93.462 97.1022L92.1292 98.0705C91.9551 97.8309 91.7458 97.659 91.5012 97.5551C91.2557 97.4574 90.994 97.4307 90.7162 97.4748C90.4347 97.5215 90.1613 97.6414 89.8958 97.8342C89.6156 98.0378 89.4103 98.263 89.2798 98.5099C89.1494 98.7568 89.1017 99.0168 89.1367 99.2899C89.1681 99.5656 89.2842 99.8418 89.4851 100.118C89.7128 100.432 89.9585 100.642 90.2221 100.749C90.4857 100.856 90.7635 100.874 91.0554 100.803C91.3499 100.735 91.6502 100.59 91.9562 100.368L92.7526 99.7892Z" fill="#222222"/>
<path d="M77.266 109.498L76.6671 107.985C76.3802 107.26 76.2073 106.613 76.1483 106.043C76.0869 105.48 76.1267 104.986 76.2678 104.562C76.4089 104.139 76.6366 103.779 76.9507 103.483C77.2607 103.189 77.6444 102.951 78.102 102.77C78.4665 102.626 78.8239 102.538 79.1744 102.507C79.5206 102.478 79.8581 102.513 80.187 102.614C80.5158 102.714 80.8313 102.885 81.1334 103.129C81.433 103.378 81.7187 103.703 81.9906 104.105C82.2583 104.509 82.5071 105.001 82.7369 105.582L83.3359 107.094C83.6244 107.823 83.7956 108.466 83.8495 109.023C83.9051 109.584 83.8615 110.075 83.7187 110.494C83.5776 110.917 83.3512 111.274 83.0396 111.564C82.7238 111.856 82.337 112.092 81.8794 112.273C81.5108 112.419 81.1533 112.507 80.8071 112.536C80.4583 112.571 80.1225 112.54 79.7995 112.443C79.4724 112.347 79.1598 112.176 78.862 111.932C78.5615 111.693 78.2775 111.371 78.0098 110.968C77.7437 110.568 77.4958 110.078 77.266 109.498ZM78.1133 107.162L78.8883 109.12C79.0343 109.489 79.1838 109.804 79.3369 110.067C79.4917 110.334 79.65 110.549 79.812 110.71C79.9713 110.877 80.1368 110.998 80.3083 111.072C80.4815 111.151 80.6574 111.186 80.836 111.179C81.0163 111.177 81.2038 111.137 81.3988 111.059C81.6361 110.966 81.8295 110.835 81.979 110.668C82.1302 110.505 82.2299 110.299 82.2782 110.05C82.3265 109.8 82.3199 109.499 82.2585 109.146C82.1946 108.799 82.0712 108.394 81.8883 107.932L81.1132 105.975C80.9656 105.602 80.8144 105.282 80.6596 105.015C80.5049 104.747 80.3448 104.529 80.1796 104.359C80.016 104.193 79.8488 104.068 79.6782 103.984C79.505 103.906 79.3282 103.868 79.148 103.871C78.9635 103.875 78.7759 103.915 78.5852 103.99C78.3437 104.086 78.1482 104.217 77.9986 104.384C77.8491 104.551 77.751 104.762 77.7044 105.016C77.6595 105.274 77.6707 105.58 77.738 105.936C77.8053 106.292 77.9304 106.7 78.1133 107.162Z" fill="#222222"/>
</svg>
