<svg width="37" height="37" viewBox="0 0 37 37" fill="none" xmlns="http://www.w3.org/2000/svg">
<path d="M4.26179 11.7716V2.8498H10.6378V5.8611V6.90394L11.4509 6.25094L18.3885 0.679264L36.0147 14.823V36.3755H13.9961V31.5523V31.0523H13.4961H0.761963V14.8228L4.07493 12.1614L4.26179 12.0113V11.7716ZM34.8839 35.7511H35.3839V35.2511V15.3579V15.118L35.1968 14.9679L18.7012 1.73486L18.3884 1.48391L18.0755 1.73482L10.007 8.20553V3.97424V3.47424H9.50703H5.39254H4.89254V3.97424V12.3066L1.57957 14.9681L1.39271 15.1182V15.3579V29.9279V30.4279H1.89271H13.4835H13.9835V29.9279V20.5936C13.9835 18.185 15.9531 16.2202 18.3758 16.2202C20.7985 16.2202 22.768 18.185 22.768 20.5936V31.0648H15.1143H14.6143V31.5648V35.2511V35.7511H15.1143H15.1268H34.8839ZM14.6268 29.9279V30.4279H15.1268H21.6498H22.1498V29.9279V20.5936C22.1498 18.5287 20.4565 16.8447 18.3883 16.8447C16.3202 16.8447 14.6268 18.5287 14.6268 20.5936V29.9279Z" fill="white" stroke="white"/>
</svg>
