<svg width="47" height="48" viewBox="0 0 47 48" fill="none" xmlns="http://www.w3.org/2000/svg">
<path d="M5.21162 15.9222V4.41123H13.6146V8.38747V9.43031L14.4277 8.77731L23.3578 1.60541L45.9653 19.7462V47.4249H17.621V41.1389V40.6389H17.121H0.75V19.7461L5.02476 16.312L5.21162 16.1619V15.9222ZM44.3864 46.3541H44.8864V45.8541V20.494V20.2541L44.6993 20.104L23.6705 3.23448L23.3577 2.98352L23.0448 3.23443L12.5357 11.6625V5.98208V5.48208H12.0357H6.7905H6.2905V5.98208V16.6702L2.01575 20.1042L1.82889 20.2543V20.494V39.068V39.568H2.32889H17.105H17.605V39.068V27.1686C17.605 24.0217 20.1778 21.456 23.3417 21.456C26.5055 21.456 29.0783 24.0217 29.0783 27.1686V40.6548H19.1839H18.6839V41.1548V45.8541V46.3541H19.1839H19.1999H44.3864ZM18.6999 39.068V39.568H19.1999H27.5154H28.0154V39.068V27.1686C28.0154 24.6127 25.9187 22.5268 23.3577 22.5268C20.7966 22.5268 18.6999 24.6127 18.6999 27.1686V39.068Z" fill="#222222" stroke="#222222"/>
</svg>
