<svg width="36" height="37" viewBox="0 0 36 37" fill="none" xmlns="http://www.w3.org/2000/svg">
<path d="M4.37685 12.1076V3.49785H10.5086V6.39288V7.43572L11.3217 6.78272L18.0191 1.40387L35.0451 15.0659V35.8802H13.7888V31.2333V30.7333H13.2888H0.99292V15.0658L4.18999 12.4974L4.37685 12.3473V12.1076ZM33.9684 35.3096H34.4684V34.8096V15.5752V15.3353L34.2812 15.1851L18.3319 2.39037L18.0191 2.13941L17.7062 2.39032L9.93183 8.62517V4.56851V4.06851H9.43183H5.45359H4.95359V4.56851V12.617L1.75652 15.1854L1.56966 15.3355V15.5752V29.6627V30.1627H2.06966H13.2767H13.7767V29.6627V20.6375C13.7767 18.3178 15.6735 16.4255 18.0069 16.4255C20.3403 16.4255 22.2371 18.3178 22.2371 20.6375V30.7454H14.8534H14.3534V31.2454V34.8096V35.3096H14.8534H14.8655H33.9684ZM14.3655 29.6627V30.1627H14.8655H21.1725H21.6725V29.6627V20.6375C21.6725 18.6318 20.0277 16.9962 18.019 16.9962C16.0103 16.9962 14.3655 18.6318 14.3655 20.6375V29.6627Z" fill="#222222" stroke="#FF8038"/>
</svg>
