<svg width="124" height="118" viewBox="0 0 124 118" fill="none" xmlns="http://www.w3.org/2000/svg">
<path d="M53.2183 114.399L53.3828 113.097L56.9705 113.55L56.806 114.853L53.2183 114.399Z" fill="white"/>
<path d="M28.6134 101.2C28.4928 101.366 28.4115 101.532 28.3693 101.698C28.3235 101.862 28.3244 102.043 28.3721 102.241C28.4198 102.439 28.5217 102.671 28.678 102.937C28.8279 103.203 29.0391 103.517 29.3117 103.879C29.6094 104.275 29.8683 104.663 30.0883 105.043C30.3019 105.423 30.4589 105.796 30.5592 106.162C30.6569 106.532 30.681 106.89 30.6316 107.237C30.5795 107.588 30.4329 107.929 30.1918 108.261C29.9534 108.589 29.6682 108.838 29.3363 109.008C29.0006 109.176 28.6346 109.265 28.2383 109.275C27.8355 109.287 27.4202 109.219 26.9922 109.071C26.5616 108.928 26.1343 108.702 25.7103 108.394C25.113 107.96 24.6791 107.475 24.4084 106.941C24.1341 106.403 24.0161 105.864 24.0543 105.323C24.0889 104.779 24.2696 104.282 24.5964 103.833L25.9735 104.833C25.7806 105.099 25.6677 105.374 25.6346 105.66C25.5952 105.947 25.647 106.232 25.7898 106.516C25.929 106.798 26.1719 107.064 26.5185 107.316C26.8466 107.555 27.1556 107.703 27.4455 107.761C27.7353 107.82 27.9953 107.803 28.2254 107.711C28.4556 107.619 28.6483 107.467 28.8037 107.253C28.9135 107.102 28.979 106.938 29 106.762C29.0183 106.589 28.9944 106.397 28.9283 106.186C28.8596 105.978 28.7499 105.749 28.5993 105.499C28.4488 105.249 28.2568 104.974 28.0235 104.675C27.6738 104.218 27.392 103.788 27.178 103.385C26.9614 102.985 26.8161 102.603 26.7422 102.24C26.6683 101.876 26.6698 101.525 26.7467 101.187C26.821 100.852 26.9759 100.523 27.2117 100.198C27.4581 99.8589 27.7486 99.6025 28.0833 99.4287C28.4152 99.2587 28.7781 99.1702 29.1718 99.1634C29.5591 99.1575 29.9672 99.2315 30.3962 99.3854C30.8188 99.5403 31.2457 99.7745 31.6771 100.088C32.0642 100.369 32.4083 100.698 32.7094 101.075C33.0068 101.448 33.2321 101.851 33.3854 102.284C33.5361 102.72 33.5866 103.162 33.5369 103.611C33.4845 104.063 33.3029 104.503 32.9922 104.93L31.604 103.922C31.7942 103.66 31.9121 103.405 31.9575 103.156C31.9993 102.905 31.9819 102.661 31.9054 102.425C31.8262 102.193 31.6998 101.972 31.5261 101.761C31.3488 101.548 31.1366 101.351 30.8896 101.172C30.5651 100.936 30.2606 100.785 29.9761 100.719C29.688 100.651 29.4283 100.659 29.1971 100.745C28.966 100.831 28.7714 100.982 28.6134 101.2Z" fill="white"/>
<path d="M15.5216 96.7657L24.0642 93.5579L25.2102 94.9432L15.1533 98.4012L14.4213 97.5163L15.5216 96.7657ZM20.5827 89.3495L15.8353 97.145L14.8962 98.0904L14.1598 97.2002L19.4323 87.9589L20.5827 89.3495ZM17.8299 91.8131L18.878 90.9459L22.3291 95.1175L21.2809 95.9847L17.8299 91.8131Z" fill="white"/>
<path d="M6.74583 85.5409L15.7517 81.303L16.4823 82.8555L7.47639 87.0934L6.74583 85.5409ZM8.957 80.0127L10.1879 79.4335L12.1031 83.5035L10.8722 84.0827L8.957 80.0127ZM4.77535 81.3534L6.01242 80.7713L8.16918 85.3546L6.93211 85.9367L4.77535 81.3534Z" fill="white"/>
<path d="M9.35053 64.7151L10.6868 64.4602L11.6769 69.6508L10.3407 69.9057L9.35053 64.7151ZM1.80917 71.0391L11.586 69.1741L11.9075 70.8595L2.13068 72.7245L1.80917 71.0391ZM5.12196 66.2247L6.43808 65.9736L7.29886 70.486L5.98275 70.737L5.12196 66.2247ZM0.916364 66.3588L2.25934 66.1027L3.24309 71.2597L1.90012 71.5158L0.916364 66.3588Z" fill="white"/>
<path d="M8.39061 38.0885L9.68438 38.5089L8.05148 43.5344L6.75771 43.114L8.39061 38.0885ZM2.93585 41.4266L12.4018 44.5023L11.8716 46.1341L2.40563 43.0584L2.93585 41.4266ZM4.84548 35.5494L14.3115 38.625L13.7834 40.2504L4.31738 37.1747L4.84548 35.5494Z" fill="white"/>
<path d="M16.4376 24.4085L16.8993 24.7016C17.5342 25.1045 18.0512 25.5486 18.4502 26.034C18.8493 26.5193 19.1282 27.0282 19.2868 27.5607C19.4479 28.0893 19.4872 28.627 19.4047 29.1738C19.3183 29.7181 19.1103 30.25 18.7807 30.7695C18.4534 31.2851 18.062 31.6978 17.6062 32.0077C17.1491 32.3114 16.6446 32.5067 16.0928 32.5937C15.541 32.6807 14.9581 32.6509 14.3442 32.5041C13.7326 32.3535 13.1094 32.0768 12.4745 31.6739L12.0128 31.3808C11.3779 30.9779 10.8641 30.5331 10.4713 30.0463C10.0747 29.5571 9.79704 29.0463 9.63839 28.5138C9.47834 27.975 9.44027 27.4354 9.52418 26.8949C9.60669 26.3482 9.81155 25.817 10.1388 25.3014C10.4684 24.7819 10.8631 24.3684 11.3227 24.061C11.7784 23.7511 12.2829 23.5558 12.8361 23.475C13.3854 23.3919 13.9647 23.4275 14.5737 23.5819C15.1814 23.7301 15.8027 24.0056 16.4376 24.4085ZM15.9799 26.1503L15.5066 25.8499C15.0372 25.552 14.5943 25.3357 14.1778 25.2009C13.7599 25.0599 13.3736 25.0009 13.0189 25.0241C12.6627 25.041 12.3425 25.1373 12.0582 25.3131C11.7701 25.4865 11.5247 25.7329 11.322 26.0522C11.1193 26.3716 11.0021 26.6967 10.9703 27.0273C10.9348 27.3556 10.9839 27.6864 11.1179 28.0197C11.2504 28.3466 11.4682 28.6711 11.7713 28.993C12.0705 29.3124 12.4549 29.6211 12.9243 29.919L13.3976 30.2194C13.867 30.5173 14.3119 30.7348 14.7322 30.872C15.1525 31.0092 15.5439 31.0687 15.9063 31.0504C16.2674 31.0258 16.5907 30.9288 16.8764 30.7593C17.1583 30.5873 17.4005 30.3416 17.6032 30.0223C17.8083 29.699 17.9287 29.3733 17.9643 29.045C17.996 28.7144 17.9437 28.3843 17.8074 28.0549C17.6671 27.723 17.4442 27.398 17.1387 27.08C16.8356 26.7581 16.4494 26.4482 15.9799 26.1503Z" fill="white"/>
<path d="M16.7312 16.747L17.8475 15.6988L25.2005 19.3248L22.0383 11.7633L23.1546 10.7151L27.1973 20.5724L26.3103 21.4054L16.7312 16.747ZM16.223 17.2243L17.2844 16.2276L22.0173 20.8981L24.2821 23.31L23.0363 24.4798L16.223 17.2243ZM22.6014 11.2345L23.6678 10.2331L30.4812 17.4886L29.2304 18.6632L26.9656 16.2513L22.6014 11.2345Z" fill="white"/>
<path d="M39.9465 10.3318L40.6018 11.5239L35.9713 14.0696L35.3159 12.8775L39.9465 10.3318ZM31.6016 5.11379L36.3966 13.8358L34.893 14.6624L30.0981 5.94039L31.6016 5.11379ZM37.2041 6.7767L37.8496 7.95082L33.8241 10.1639L33.1786 8.98976L37.2041 6.7767ZM35.7769 2.8184L36.4356 4.01648L31.835 6.54568L31.1763 5.34761L35.7769 2.8184Z" fill="white"/>
<path d="M63.8439 2.0918V3.4043L60.2277 3.4043V2.0918L63.8439 2.0918Z" fill="white"/>
<path d="M91.2843 5.93779L84.5224 12.0651L82.947 11.199L91.0247 4.28167L92.031 4.83493L91.2843 5.93779ZM89.3088 14.6964L90.853 5.70068L91.3781 4.47597L92.3905 5.03253L90.8902 15.5658L89.3088 14.6964ZM90.9613 11.3924L90.306 12.5845L85.5616 9.97626L86.2169 8.78418L90.9613 11.3924Z" fill="white"/>
<path d="M96.9584 17.5296L103.687 13.2606L104.444 13.9719L102.998 15.3425L96.0012 19.6972L95.2139 18.9579L96.9584 17.5296ZM101.16 10.8881L97.0902 17.569L95.6225 19.3416L94.7853 18.5554L99.9194 9.72291L101.16 10.8881ZM100.857 21.0777L107.24 16.5971L108.485 17.767L99.9928 23.4455L99.1556 22.6594L100.857 21.0777ZM104.738 14.248L100.871 21.232L99.5642 23.0431L98.7769 22.3037L102.709 15.0711L103.991 13.5461L104.738 14.248Z" fill="white"/>
<path d="M112.193 22.7406L114.079 25.713C114.484 26.3518 114.734 26.9573 114.827 27.5296C114.92 28.1019 114.854 28.627 114.629 29.1048C114.409 29.5841 114.024 29.9984 113.474 30.3476C113.055 30.6137 112.636 30.7712 112.219 30.82C111.802 30.8687 111.395 30.8223 110.997 30.6805C110.604 30.5364 110.224 30.3079 109.858 29.9949L109.366 29.6918L107.67 27.0195L108.811 26.279L110.082 28.2818C110.302 28.6281 110.547 28.8776 110.817 29.0304C111.086 29.1831 111.363 29.25 111.648 29.2312C111.94 29.2137 112.22 29.1195 112.489 28.9486C112.782 28.763 112.999 28.5441 113.141 28.2919C113.29 28.0411 113.347 27.7618 113.314 27.4538C113.284 27.1434 113.154 26.8073 112.925 26.4456L111.958 24.9219L104.708 29.5224L103.789 28.0737L112.193 22.7406ZM106.833 32.8701L109.355 28.5006L110.324 30.0149L107.89 34.3693L107.815 34.4169L106.833 32.8701Z" fill="white"/>
<path d="M119.399 40.2082L110.275 40.046L109.72 38.3362L120.343 38.8232L120.698 39.9154L119.399 40.2082ZM111.963 45.2406L119.247 39.7401L120.468 39.2068L120.825 40.3055L112.521 46.957L111.963 45.2406ZM115.43 43.9634L114.136 44.3837L112.463 39.2347L113.757 38.8143L115.43 43.9634Z" fill="white"/>
<path d="M113.503 54.6734L113.37 52.5516L114.728 52.4799L114.861 54.588C114.9 55.202 115.066 55.7075 115.361 56.1046C115.655 56.5061 116.059 56.7958 116.573 56.9735C117.087 57.1558 117.689 57.2252 118.38 57.1817L118.919 57.1478C119.456 57.114 119.928 57.0227 120.334 56.8739C120.74 56.7296 121.077 56.5303 121.344 56.2761C121.611 56.0264 121.807 55.7264 121.931 55.3761C122.056 55.0304 122.104 54.6369 122.076 54.1957L121.936 51.9716L123.301 51.8858L123.441 54.1099C123.482 54.7694 123.409 55.379 123.22 55.9389C123.036 56.4984 122.75 56.989 122.361 57.4108C121.972 57.8371 121.495 58.1753 120.931 58.4254C120.367 58.6755 119.728 58.823 119.014 58.8679L118.489 58.901C117.774 58.9459 117.122 58.8796 116.531 58.7022C115.94 58.5248 115.425 58.249 114.986 57.8748C114.551 57.5003 114.205 57.0426 113.947 56.5017C113.694 55.9651 113.546 55.3557 113.503 54.6734ZM123.363 52.875L113.43 53.5L113.322 51.7875L123.255 51.1626L123.363 52.875Z" fill="white"/>
<path d="M108.33 84.4759L107.142 83.917L109.983 77.8801L111.004 78.3604L112.822 82.797C113.033 83.2894 113.227 83.6905 113.404 84.0002C113.581 84.31 113.757 84.5514 113.932 84.7246C114.109 84.9039 114.299 85.041 114.501 85.1361C114.786 85.27 115.061 85.3338 115.325 85.3275C115.593 85.3272 115.835 85.2552 116.054 85.1113C116.277 84.9694 116.456 84.7542 116.592 84.4655C116.749 84.1315 116.809 83.8171 116.772 83.5224C116.734 83.2277 116.615 82.9625 116.413 82.7267C116.216 82.4929 115.955 82.2993 115.629 82.1461L116.33 80.6554C116.854 80.9018 117.276 81.2465 117.596 81.6894C117.921 82.1342 118.104 82.6436 118.147 83.2175C118.193 83.7933 118.066 84.4008 117.765 85.04C117.482 85.642 117.14 86.1058 116.74 86.4313C116.34 86.7569 115.903 86.9416 115.429 86.9855C114.953 87.0335 114.462 86.9382 113.955 86.6995C113.674 86.5676 113.417 86.3913 113.184 86.1705C112.95 85.9498 112.735 85.6899 112.538 85.3908C112.344 85.0978 112.161 84.7729 111.992 84.4161C111.826 84.0613 111.668 83.6818 111.515 83.2777L110.286 80.3193L108.33 84.4759Z" fill="white"/>
<path d="M104.028 97.8927L102.774 96.8557C102.174 96.3589 101.711 95.8751 101.385 95.4042C101.059 94.9398 100.856 94.488 100.776 94.0489C100.695 93.6098 100.722 93.1849 100.854 92.7742C100.984 92.3671 101.206 91.9739 101.52 91.5946C101.769 91.2926 102.04 91.0437 102.333 90.8477C102.622 90.6553 102.935 90.5238 103.271 90.4531C103.608 90.3825 103.967 90.3809 104.349 90.4484C104.731 90.5223 105.138 90.6699 105.57 90.8913C106 91.1161 106.455 91.4275 106.936 91.8255L108.189 92.8626C108.793 93.3622 109.253 93.8431 109.569 94.3053C109.888 94.7704 110.086 95.221 110.163 95.6572C110.243 96.0963 110.216 96.518 110.083 96.9222C109.947 97.33 109.722 97.7235 109.408 98.1027C109.155 98.4082 108.884 98.6572 108.595 98.8496C108.306 99.0485 107.997 99.1829 107.667 99.253C107.334 99.3265 106.978 99.3278 106.599 99.2568C106.221 99.1922 105.817 99.0475 105.388 98.8226C104.962 98.6007 104.509 98.2907 104.028 97.8927ZM103.645 95.4381L105.268 96.7802C105.573 97.0329 105.856 97.2376 106.117 97.3942C106.381 97.5537 106.623 97.6652 106.843 97.7286C107.063 97.7984 107.266 97.8245 107.453 97.8069C107.642 97.7922 107.813 97.7388 107.967 97.6467C108.123 97.5574 108.268 97.432 108.402 97.2705C108.565 97.0738 108.671 96.8663 108.722 96.6479C108.776 96.4324 108.764 96.2037 108.686 95.9618C108.608 95.72 108.457 95.4591 108.233 95.1792C108.01 94.9058 107.707 94.6107 107.324 94.2941L105.702 92.952C105.393 92.6964 105.106 92.4888 104.842 92.3293C104.578 92.1698 104.332 92.0554 104.106 91.9862C103.883 91.9199 103.676 91.8909 103.486 91.8992C103.296 91.9138 103.123 91.9658 102.966 92.0551C102.807 92.1478 102.662 92.2732 102.531 92.4312C102.365 92.6314 102.257 92.8407 102.207 93.0591C102.156 93.2775 102.172 93.5091 102.253 93.7539C102.338 94.0016 102.496 94.265 102.726 94.5443C102.956 94.8235 103.263 95.1215 103.645 95.4381Z" fill="white"/>
<path d="M96.5632 104.344L95.7668 104.923C95.4571 105.148 95.2397 105.387 95.1146 105.642C94.9858 105.898 94.94 106.157 94.977 106.417C95.0141 106.678 95.121 106.93 95.2978 107.173C95.4827 107.427 95.6868 107.611 95.9102 107.725C96.1327 107.845 96.3722 107.888 96.6289 107.854C96.8819 107.822 97.1484 107.704 97.4287 107.501C97.6646 107.329 97.8436 107.126 97.9657 106.891C98.0868 106.662 98.1397 106.421 98.1244 106.167C98.1118 105.917 98.0197 105.674 97.8483 105.438L99.1867 104.466C99.4974 104.894 99.6608 105.355 99.677 105.85C99.6932 106.345 99.576 106.828 99.3255 107.297C99.074 107.773 98.7049 108.187 98.2182 108.541C97.6984 108.919 97.1819 109.161 96.6689 109.269C96.1549 109.384 95.6659 109.35 95.2019 109.169C94.7379 108.988 94.3238 108.647 93.9595 108.145C93.7934 107.917 93.6781 107.646 93.6136 107.332C93.5491 107.018 93.5509 106.687 93.6191 106.339C93.69 105.995 93.8379 105.648 94.0629 105.299C94.2905 104.953 94.6108 104.63 95.0238 104.33L96.0248 103.603L96.5632 104.344ZM95.8078 103.304L96.3382 104.034L95.3372 104.762C94.8653 105.104 94.4232 105.341 94.011 105.472C93.5951 105.605 93.2111 105.65 92.859 105.607C92.5096 105.568 92.1972 105.46 91.9219 105.283C91.6428 105.108 91.4029 104.882 91.202 104.606C90.9287 104.23 90.7532 103.845 90.6753 103.451C90.5964 103.063 90.6068 102.678 90.7065 102.296C90.8062 101.913 90.9845 101.55 91.2413 101.206C91.4944 100.864 91.8145 100.553 92.2017 100.271C92.5482 100.02 92.9149 99.8265 93.3016 99.692C93.6883 99.5575 94.0754 99.4932 94.4627 99.4991C94.8527 99.5086 95.2246 99.6018 95.5783 99.7785C95.931 99.9616 96.244 100.241 96.5172 100.617L95.1844 101.586C95.0103 101.346 94.801 101.174 94.5564 101.07C94.3109 100.973 94.0492 100.946 93.7714 100.99C93.4899 101.037 93.2165 101.157 92.951 101.349C92.6708 101.553 92.4655 101.778 92.335 102.025C92.2046 102.272 92.1569 102.532 92.1919 102.805C92.2233 103.081 92.3394 103.357 92.5403 103.633C92.768 103.947 93.0137 104.157 93.2773 104.264C93.541 104.371 93.8187 104.389 94.1106 104.318C94.4051 104.25 94.7054 104.105 95.0114 103.883L95.8078 103.304Z" fill="white"/>
<path d="M79.894 113.245L79.295 111.732C79.0082 111.008 78.8353 110.361 78.7763 109.791C78.7148 109.227 78.7547 108.733 78.8958 108.31C79.0369 107.886 79.2646 107.527 79.5787 107.231C79.8886 106.937 80.2724 106.699 80.73 106.518C81.0944 106.373 81.4519 106.286 81.8023 106.255C82.1486 106.226 82.4861 106.261 82.815 106.361C83.1438 106.461 83.4593 106.633 83.7614 106.876C84.0609 107.125 84.3467 107.451 84.6186 107.853C84.8863 108.256 85.1351 108.749 85.3649 109.329L85.9638 110.842C86.2524 111.571 86.4236 112.214 86.4775 112.771C86.5331 113.332 86.4895 113.822 86.3467 114.241C86.2056 114.665 85.9792 115.022 85.6676 115.312C85.3518 115.603 84.965 115.84 84.5074 116.021C84.1388 116.167 83.7813 116.255 83.4351 116.284C83.0863 116.319 82.7504 116.288 82.4275 116.19C82.1003 116.094 81.7878 115.924 81.4899 115.679C81.1895 115.44 80.9054 115.119 80.6377 114.715C80.3717 114.316 80.1238 113.826 79.894 113.245ZM80.7413 110.91L81.5163 112.867C81.6623 113.236 81.8118 113.552 81.9649 113.815C82.1197 114.082 82.278 114.296 82.4399 114.457C82.5993 114.625 82.7647 114.745 82.9363 114.82C83.1095 114.898 83.2854 114.934 83.464 114.927C83.6442 114.924 83.8318 114.884 84.0267 114.807C84.264 114.713 84.4574 114.583 84.607 114.416C84.7582 114.253 84.8579 114.047 84.9062 113.797C84.9545 113.548 84.9479 113.246 84.8865 112.893C84.8226 112.546 84.6992 112.141 84.5163 111.68L83.7412 109.722C83.5936 109.349 83.4424 109.029 83.2876 108.762C83.1328 108.495 82.9728 108.276 82.8076 108.107C82.644 107.941 82.4768 107.816 82.3062 107.732C82.133 107.653 81.9562 107.615 81.776 107.618C81.5915 107.622 81.4039 107.662 81.2132 107.738C80.9717 107.834 80.7761 107.965 80.6266 108.132C80.4771 108.299 80.379 108.509 80.3324 108.763C80.2875 109.021 80.2987 109.328 80.366 109.683C80.4333 110.039 80.5584 110.448 80.7413 110.91Z" fill="white"/>
</svg>
