<svg width="37" height="37" viewBox="0 0 37 37" fill="none" xmlns="http://www.w3.org/2000/svg">
<path d="M15.0972 14.1745L13.8102 15.4615C13.0401 15.281 12.2412 15.1743 11.4178 15.1743C5.66579 15.1743 1.00391 19.8372 1.00391 25.5872C1.00391 31.3381 5.66579 36 11.4178 36C17.1677 36 21.8296 31.3381 21.8296 25.5872C21.8296 24.3976 21.6204 23.2593 21.2532 22.1959L23.736 19.7121V15.1754H28.6347V9.10445H33.673L36.0562 6.72121V1H28.2727L17.3379 11.9348" stroke="#1179EC" stroke-miterlimit="10" stroke-linecap="round" stroke-linejoin="round"/>
<path d="M12.8151 27.1378C12.8151 28.8944 11.3917 30.3168 9.63605 30.3168C7.88041 30.3168 6.45703 28.8955 6.45703 27.1378C6.45703 25.3821 7.88041 23.9587 9.63605 23.9587C11.3927 23.9587 12.8151 25.3811 12.8151 27.1378Z" fill="#F6D200"/>
<path d="M12.8151 27.1378C12.8151 28.8944 11.3917 30.3168 9.63605 30.3168C7.88041 30.3168 6.45703 28.8955 6.45703 27.1378C6.45703 25.3821 7.88041 23.9587 9.63605 23.9587C11.3927 23.9587 12.8151 25.3811 12.8151 27.1378Z" stroke="#1179EC" stroke-miterlimit="10" stroke-linecap="round" stroke-linejoin="round"/>
</svg>
