<svg width="60" height="85" viewBox="0 0 60 85" fill="none" xmlns="http://www.w3.org/2000/svg">
<mask id="mask0_1004_12" style="mask-type:luminance" maskUnits="userSpaceOnUse" x="0" y="0" width="60" height="85">
<path d="M59.8571 0H0V84.7976H59.8571V0Z" fill="white"/>
</mask>
<g mask="url(#mask0_1004_12)">
<path d="M29.9304 84.7976C38.7717 84.7976 45.939 83.4216 45.939 81.7242C45.939 80.0267 38.7717 78.6507 29.9304 78.6507C21.0892 78.6507 13.9219 80.0267 13.9219 81.7242C13.9219 83.4216 21.0892 84.7976 29.9304 84.7976Z" fill="black" fill-opacity="0.1"/>
<path d="M29.9286 0C13.4249 0 0 13.4338 0 29.9485C0 42.9986 8.33562 54.4542 20.7441 58.4553C21.1388 58.582 21.4738 58.8539 21.6823 59.2116L29.9323 73.5097L38.1823 59.2116C38.3908 58.8502 38.7221 58.582 39.1205 58.4553C51.529 54.4542 59.8646 42.9986 59.8646 29.9485C59.8572 13.4338 46.4323 0 29.9286 0Z" fill="#FF385C"/>
<path d="M35.9681 51.5935C48.3301 48.5283 55.8684 36.0155 52.8052 23.6452C49.7421 11.275 37.2376 3.73169 24.8756 6.79685C12.5136 9.86201 4.97535 22.3749 8.03846 34.7451C11.1016 47.1154 23.6061 54.6586 35.9681 51.5935Z" fill="white"/>
<path d="M40.2 21.8H33.8V19.4C33.7992 18.976 33.6304 18.5688 33.3304 18.2688C33.0312 17.9696 32.624 17.8008 32.2 17.8H21C20.576 17.8008 20.1688 17.9688 19.8688 18.2688C19.5688 18.5688 19.4008 18.976 19.4 19.4V38.6C19.4008 39.024 19.5696 39.4312 19.8688 39.7304C20.1688 40.0304 20.576 40.1992 21 40.2H40.2C40.624 40.1992 41.0304 40.0304 41.3304 39.7304C41.6304 39.4304 41.7992 39.024 41.8 38.6V23.4C41.7992 22.976 41.6304 22.5688 41.3304 22.2688C41.0312 21.9696 40.624 21.8008 40.2 21.8ZM28.2 38.6H25V34.6H28.2V38.6ZM32.2 38.6H29.8V34.6C29.7992 34.176 29.6304 33.7688 29.3304 33.4696C29.0312 33.1696 28.624 33.0008 28.2 33H25C24.576 33.0008 24.1688 33.1696 23.8688 33.4696C23.5696 33.7688 23.4008 34.176 23.4 34.6V38.6H21L20.9992 19.4H32.2V38.6ZM40.2 38.6H33.8V23.4H40.2V38.6ZM37.8 29C37.8 29.1584 37.7528 29.3128 37.6648 29.4448C37.5776 29.576 37.452 29.6784 37.3064 29.7392C37.16 29.8 36.9992 29.8152 36.844 29.7848C36.6888 29.7536 36.5464 29.6776 36.4344 29.5656C36.3224 29.4536 36.2464 29.3112 36.2152 29.156C36.1848 29.0008 36.2 28.84 36.2608 28.6936C36.3216 28.548 36.424 28.4224 36.5552 28.3352C36.6872 28.2472 36.8416 28.2 37 28.2C37.212 28.2 37.416 28.284 37.5656 28.4344C37.716 28.584 37.8 28.788 37.8 29ZM36.2 25.8C36.2 25.6416 36.2472 25.4872 36.3352 25.3552C36.4224 25.224 36.548 25.1216 36.6936 25.0608C36.84 25 37.0008 24.9848 37.156 25.0152C37.3112 25.0464 37.4536 25.1224 37.5656 25.2344C37.6776 25.3464 37.7536 25.4888 37.7848 25.644C37.8152 25.7992 37.8 25.96 37.7392 26.1064C37.6784 26.252 37.576 26.3776 37.4448 26.4648C37.3128 26.5528 37.1584 26.6 37 26.6C36.788 26.6 36.584 26.516 36.4344 26.3656C36.284 26.216 36.2 26.012 36.2 25.8ZM29.8 29C29.8 29.1584 29.7528 29.3128 29.6648 29.4448C29.5776 29.576 29.452 29.6784 29.3064 29.7392C29.16 29.8 28.9992 29.8152 28.844 29.7848C28.6888 29.7536 28.5464 29.6776 28.4344 29.5656C28.3224 29.4536 28.2464 29.3112 28.2152 29.156C28.1848 29.0008 28.2 28.84 28.2608 28.6936C28.3216 28.548 28.424 28.4224 28.5552 28.3352C28.6872 28.2472 28.8416 28.2 29 28.2C29.212 28.2 29.416 28.284 29.5656 28.4344C29.716 28.584 29.8 28.788 29.8 29ZM29.8 25.8C29.8 25.9584 29.7528 26.1128 29.6648 26.2448C29.5776 26.376 29.452 26.4784 29.3064 26.5392C29.16 26.6 28.9992 26.6152 28.844 26.5848C28.6888 26.5536 28.5464 26.4776 28.4344 26.3656C28.3224 26.2536 28.2464 26.1112 28.2152 25.956C28.1848 25.8008 28.2 25.64 28.2608 25.4936C28.3216 25.348 28.424 25.2224 28.5552 25.1352C28.6872 25.0472 28.8416 25 29 25C29.212 25 29.416 25.084 29.5656 25.2344C29.716 25.384 29.8 25.588 29.8 25.8ZM29.8 22.6C29.8 22.7584 29.7528 22.9128 29.6648 23.0448C29.5776 23.176 29.452 23.2784 29.3064 23.3392C29.16 23.4 28.9992 23.4152 28.844 23.3848C28.6888 23.3536 28.5464 23.2776 28.4344 23.1656C28.3224 23.0536 28.2464 22.9112 28.2152 22.756C28.1848 22.6008 28.2 22.44 28.2608 22.2936C28.3216 22.148 28.424 22.0224 28.5552 21.9352C28.6872 21.8472 28.8416 21.8 29 21.8C29.212 21.8 29.416 21.884 29.5656 22.0344C29.716 22.184 29.8 22.388 29.8 22.6ZM25 29C25 29.1584 24.9528 29.3128 24.8648 29.4448C24.7776 29.576 24.652 29.6784 24.5064 29.7392C24.36 29.8 24.1992 29.8152 24.044 29.7848C23.8888 29.7536 23.7464 29.6776 23.6344 29.5656C23.5224 29.4536 23.4464 29.3112 23.4152 29.156C23.3848 29.0008 23.4 28.84 23.4608 28.6936C23.5216 28.548 23.624 28.4224 23.7552 28.3352C23.8872 28.2472 24.0416 28.2 24.2 28.2C24.412 28.2 24.616 28.284 24.7656 28.4344C24.916 28.584 25 28.788 25 29ZM25 25.8C25 25.9584 24.9528 26.1128 24.8648 26.2448C24.7776 26.376 24.652 26.4784 24.5064 26.5392C24.36 26.6 24.1992 26.6152 24.044 26.5848C23.8888 26.5536 23.7464 26.4776 23.6344 26.3656C23.5224 26.2536 23.4464 26.1112 23.4152 25.956C23.3848 25.8008 23.4 25.64 23.4608 25.4936C23.5216 25.348 23.624 25.2224 23.7552 25.1352C23.8872 25.0472 24.0416 25 24.2 25C24.412 25 24.616 25.084 24.7656 25.2344C24.916 25.384 25 25.588 25 25.8ZM25 22.6C25 22.7584 24.9528 22.9128 24.8648 23.0448C24.7776 23.176 24.652 23.2784 24.5064 23.3392C24.36 23.4 24.1992 23.4152 24.044 23.3848C23.8888 23.3536 23.7464 23.2776 23.6344 23.1656C23.5224 23.0536 23.4464 22.9112 23.4152 22.756C23.3848 22.6008 23.4 22.44 23.4608 22.2936C23.5216 22.148 23.624 22.0224 23.7552 21.9352C23.8872 21.8472 24.0416 21.8 24.2 21.8C24.412 21.8 24.616 21.884 24.7656 22.0344C24.916 22.184 25 22.388 25 22.6Z" fill="#222222"/>
</g>
</svg>
