<svg width="86" height="82" viewBox="0 0 86 82" fill="none" xmlns="http://www.w3.org/2000/svg">
<path d="M84.4478 25.9853C84.2875 25.9853 84.1271 25.9445 83.9763 25.8596L69.6087 17.5678C69.1592 17.3069 69.0021 16.7317 69.2629 16.2791C69.5238 15.8296 70.099 15.6725 70.5517 15.9334L84.9192 24.2251C85.3687 24.486 85.5259 25.0612 85.265 25.5138C85.0921 25.8156 84.7746 25.9853 84.4478 25.9853Z" fill="#BEBDBD"/>
<path d="M75.3251 31.2535C75.1648 31.2535 75.0045 31.2127 74.8537 31.1278L60.4798 22.8297C60.0303 22.5688 59.8732 21.9936 60.134 21.541C60.3949 21.0884 60.9701 20.9344 61.4227 21.1953L75.7966 29.4933C76.2461 29.7542 76.4033 30.3294 76.1424 30.782C75.9695 31.0869 75.652 31.2535 75.3251 31.2535Z" fill="#BEBDBD"/>
<path d="M66.2072 36.5277C66.0469 36.5277 65.8866 36.4868 65.7357 36.4019L51.3587 28.1007C50.9092 27.8398 50.7521 27.2646 51.0129 26.812C51.2738 26.3594 51.849 26.2054 52.3017 26.4663L66.6787 34.7675C67.1281 35.0283 67.2853 35.6036 67.0244 36.0562C66.8515 36.3579 66.5341 36.5277 66.2072 36.5277Z" fill="#BEBDBD"/>
<path d="M57.0767 41.7863C56.9164 41.7863 56.7561 41.7455 56.6052 41.6606L42.2376 33.3688C41.7881 33.108 41.631 32.5328 41.8918 32.0801C42.1527 31.6307 42.7279 31.4735 43.1806 31.7344L57.5481 40.0261C57.9976 40.287 58.1548 40.8622 57.8939 41.3149C57.721 41.6166 57.4036 41.7863 57.0767 41.7863Z" fill="#BEBDBD"/>
<path d="M60.9441 71.1654C60.6172 71.1654 60.2998 70.9957 60.1269 70.6939C59.866 70.2413 60.02 69.6661 60.4727 69.4052L69.5879 64.1435C70.0406 63.8826 70.6158 64.0366 70.8767 64.4893C71.1375 64.9387 70.9835 65.5171 70.5309 65.778L61.4156 71.0397C61.2647 71.1246 61.1044 71.1654 60.9441 71.1654Z" fill="#BEBDBD"/>
<path d="M42.6941 81.7047C42.3672 81.7047 42.0498 81.535 41.8769 81.2332C41.616 80.7806 41.77 80.2054 42.2227 79.9445L51.3474 74.6796C51.8 74.4188 52.3752 74.5728 52.6361 75.0254C52.897 75.478 52.743 76.0532 52.2903 76.3141L43.1656 81.579C43.0179 81.6638 42.8544 81.7047 42.6941 81.7047Z" fill="#BEBDBD"/>
<path d="M70.0652 65.9038C69.7383 65.9038 69.424 65.734 69.248 65.4323C68.9871 64.9828 69.1411 64.4044 69.5938 64.1436L83.9771 55.8298C84.4297 55.5689 85.0049 55.7229 85.2658 56.1755C85.5267 56.625 85.3726 57.2034 84.92 57.4643L70.5367 65.778C70.389 65.8629 70.2255 65.9038 70.0652 65.9038Z" fill="#BEBDBD"/>
<path d="M51.827 76.437C51.5001 76.437 51.1857 76.2673 51.0097 75.9655C50.7488 75.5161 50.9029 74.9377 51.3555 74.6768L60.4833 69.4025C60.936 69.1417 61.5112 69.2957 61.772 69.7483C62.0329 70.1978 61.8789 70.7761 61.4263 71.037L52.2984 76.3113C52.1507 76.3962 51.9873 76.437 51.827 76.437Z" fill="#BEBDBD"/>
<path d="M75.3309 52.3321C75.004 52.3321 74.6896 52.1624 74.5136 51.8606C74.2527 51.4111 74.4068 50.8328 74.8594 50.5719L83.9841 45.3007C84.4367 45.0398 85.0119 45.1939 85.2728 45.6465C85.5337 46.096 85.3797 46.6743 84.9271 46.9352L75.8023 52.2064C75.6515 52.2912 75.4912 52.3321 75.3309 52.3321Z" fill="#BEBDBD"/>
<path d="M60.9402 60.6392C60.6133 60.6392 60.299 60.4694 60.123 60.1677C59.8621 59.7151 60.0161 59.1399 60.4688 58.879L74.8583 50.5715C75.311 50.3106 75.8862 50.4646 76.147 50.9172C76.4079 51.3699 76.2539 51.9451 75.8013 52.206L61.4117 60.5134C61.264 60.5983 61.1005 60.6392 60.9402 60.6392Z" fill="#BEBDBD"/>
<path d="M42.6941 71.1721C42.3672 71.1721 42.0529 71.0024 41.8769 70.7007C41.616 70.2512 41.77 69.6728 42.2227 69.4119L51.3474 64.1377C51.7969 63.8768 52.3752 64.0308 52.6361 64.4834C52.897 64.9329 52.743 65.5112 52.2903 65.7721L43.1656 71.0464C43.0179 71.1313 42.8544 71.1721 42.6941 71.1721Z" fill="#BEBDBD"/>
<path d="M33.5763 76.4335C33.2494 76.4335 32.9319 76.2638 32.759 75.9621C32.4981 75.5094 32.6553 74.9342 33.1048 74.6733L42.2295 69.4116C42.6821 69.1507 43.2573 69.3079 43.5182 69.7574C43.7791 70.21 43.6219 70.7852 43.1725 71.0461L34.0478 76.3078C33.9 76.3927 33.7366 76.4335 33.5763 76.4335Z" fill="#BEBDBD"/>
<path d="M51.8263 65.8979C51.4994 65.8979 51.1819 65.7282 51.009 65.4264C50.7481 64.9738 50.9053 64.3986 51.3548 64.1377L60.4764 58.8792C60.929 58.6183 61.5042 58.7754 61.7651 59.2249C62.026 59.6775 61.8688 60.2527 61.4193 60.5136L52.2978 65.7722C52.1469 65.8571 51.9866 65.8979 51.8263 65.8979Z" fill="#BEBDBD"/>
<path d="M42.6863 60.6302C42.3594 60.6302 42.0451 60.4604 41.8691 60.1587C41.6082 59.7092 41.7622 59.1309 42.2148 58.87L51.3364 53.5988C51.7859 53.3379 52.3642 53.492 52.6251 53.9446C52.886 54.3941 52.732 54.9724 52.2794 55.2333L43.1578 60.5044C43.0101 60.5893 42.8466 60.6302 42.6863 60.6302Z" fill="#BEBDBD"/>
<path d="M33.5691 65.9036C33.2422 65.9036 32.9279 65.7339 32.7519 65.4321C32.491 64.9827 32.645 64.4043 33.0977 64.1434L42.2224 58.8723C42.675 58.6114 43.2502 58.7654 43.5111 59.218C43.772 59.6675 43.618 60.2458 43.1653 60.5067L34.0406 65.7779C33.8929 65.8628 33.7294 65.9036 33.5691 65.9036Z" fill="#BEBDBD"/>
<path d="M51.8152 55.359C51.4883 55.359 51.1709 55.1893 50.998 54.8876C50.7371 54.4349 50.8911 53.8597 51.3438 53.5988L65.7333 45.3008C66.186 45.0399 66.7612 45.1971 67.0221 45.6465C67.2829 46.0992 67.1289 46.6744 66.6763 46.9353L52.2867 55.2333C52.139 55.3182 51.9755 55.359 51.8152 55.359Z" fill="#BEBDBD"/>
<path d="M24.4395 71.1654C24.1127 71.1654 23.7952 70.9957 23.6223 70.6939C23.3614 70.2413 23.5186 69.6661 23.9681 69.4052L33.0896 64.1435C33.5423 63.8826 34.1175 64.0366 34.3784 64.4893C34.6392 64.9419 34.4821 65.5171 34.0326 65.778L24.911 71.0366C24.7602 71.1246 24.5999 71.1654 24.4395 71.1654Z" fill="#BEBDBD"/>
<path d="M66.2176 47.0609C65.8907 47.0609 65.5732 46.8911 65.4003 46.5894C65.1395 46.1368 65.2935 45.5616 65.7461 45.3007L74.874 40.0327C75.3234 39.7718 75.9018 39.9258 76.1627 40.3784C76.4236 40.831 76.2695 41.4062 75.8169 41.6671L66.6891 46.9351C66.5382 47.02 66.3779 47.0609 66.2176 47.0609Z" fill="#BEBDBD"/>
<path d="M75.3309 41.7926C75.004 41.7926 74.6865 41.6229 74.5136 41.3211C74.2527 40.8716 74.4068 40.2933 74.8594 40.0324L83.9841 34.7675C84.4367 34.5066 85.0119 34.6607 85.2728 35.1133C85.5337 35.5628 85.3797 36.1411 84.9271 36.402L75.8023 41.6669C75.6515 41.7517 75.4912 41.7926 75.3309 41.7926Z" fill="#BEBDBD"/>
<path d="M75.3309 31.2535C75.004 31.2535 74.6896 31.0837 74.5136 30.782C74.2527 30.3325 74.4068 29.7542 74.8594 29.4933L83.9778 24.2221C84.4304 23.9612 85.0056 24.1153 85.2665 24.5679C85.5274 25.0174 85.3734 25.5957 84.9208 25.8566L75.8023 31.1277C75.6515 31.2126 75.4912 31.2535 75.3309 31.2535Z" fill="#BEBDBD"/>
<path d="M57.0802 41.7861C56.7533 41.7861 56.4358 41.6163 56.2629 41.3146C56.0021 40.862 56.1592 40.2868 56.6087 40.0259L65.7334 34.7642C66.1829 34.5033 66.7612 34.6604 67.0221 35.1099C67.283 35.5625 67.129 36.1377 66.6764 36.3986L57.5517 41.6603C57.4008 41.7452 57.2405 41.7861 57.0802 41.7861Z" fill="#BEBDBD"/>
<path d="M33.577 55.3589C33.2501 55.3589 32.9326 55.1891 32.7597 54.8874C32.4988 54.4348 32.6529 53.8596 33.1055 53.5987L42.2208 48.3401C42.6702 48.0792 43.2486 48.2364 43.5095 48.6858C43.7704 49.1385 43.6163 49.7137 43.1637 49.9746L34.0484 55.2331C33.8976 55.318 33.7373 55.3589 33.577 55.3589Z" fill="#BEBDBD"/>
<path d="M24.4402 60.6302C24.1133 60.6302 23.799 60.4604 23.623 60.1587C23.3621 59.7061 23.5161 59.1309 23.9688 58.87L33.0998 53.5988C33.5524 53.3379 34.1276 53.492 34.3885 53.9446C34.6494 54.3972 34.4953 54.9724 34.0427 55.2333L24.9117 60.5044C24.764 60.5893 24.6005 60.6302 24.4402 60.6302Z" fill="#BEBDBD"/>
<path d="M15.327 65.9039C15.0001 65.9039 14.6857 65.7341 14.5097 65.4324C14.2488 64.9829 14.4029 64.4046 14.8555 64.1437L23.977 58.8725C24.4297 58.6116 25.0049 58.7656 25.2658 59.2183C25.5266 59.6677 25.3726 60.2461 24.92 60.507L15.7984 65.7781C15.6507 65.863 15.4873 65.9039 15.327 65.9039Z" fill="#BEBDBD"/>
<path d="M42.6863 50.0998C42.3594 50.0998 42.0451 49.9301 41.8691 49.6283C41.6082 49.1788 41.7622 48.6005 42.2148 48.3396L56.6044 40.0258C57.0571 39.7649 57.6323 39.919 57.8931 40.3716C58.154 40.8211 58 41.3994 57.5474 41.6603L43.1578 49.9741C43.0101 50.0589 42.8466 50.0998 42.6863 50.0998Z" fill="#BEBDBD"/>
<path d="M66.2176 36.5276C65.8907 36.5276 65.5764 36.3579 65.4003 36.0562C65.1395 35.6067 65.2935 35.0283 65.7461 34.7674L74.874 29.4963C75.3234 29.2354 75.9018 29.3894 76.1627 29.842C76.4236 30.2915 76.2695 30.8699 75.8169 31.1308L66.6891 36.4019C66.5382 36.4868 66.3779 36.5276 66.2176 36.5276Z" fill="#BEBDBD"/>
<path d="M15.3228 65.9041C15.1625 65.9041 14.999 65.8633 14.8513 65.7784L0.483694 57.4741C0.0342162 57.2132 -0.122944 56.638 0.137942 56.1854C0.398828 55.7359 0.974034 55.5787 1.42666 55.8396L15.7974 64.1408C16.2469 64.4017 16.404 64.9769 16.1431 65.4295C15.9671 65.7344 15.6496 65.9041 15.3228 65.9041Z" fill="#BEBDBD"/>
<path d="M24.4438 60.6298C24.2835 60.6298 24.1232 60.5889 23.9723 60.5041L9.60157 52.2123C9.14895 51.9514 8.99493 51.3762 9.25581 50.9236C9.5167 50.471 10.095 50.317 10.5445 50.5778L24.9153 58.8696C25.3679 59.1305 25.5219 59.7057 25.261 60.1583C25.085 60.4601 24.7675 60.6298 24.4438 60.6298Z" fill="#BEBDBD"/>
<path d="M33.5712 55.3583C33.4109 55.3583 33.2505 55.3175 33.0997 55.2326L18.7227 46.9408C18.27 46.6799 18.116 46.1047 18.3769 45.6521C18.6378 45.1995 19.213 45.0455 19.6656 45.3064L34.0426 53.5981C34.4953 53.859 34.6493 54.4342 34.3884 54.8868C34.2155 55.1886 33.898 55.3583 33.5712 55.3583Z" fill="#BEBDBD"/>
<path d="M42.7017 50.1C42.5414 50.1 42.3779 50.0591 42.2302 49.9743L27.8626 41.6762C27.4131 41.4153 27.256 40.8401 27.5168 40.3875C27.7777 39.938 28.3529 39.7809 28.8056 40.0418L43.1731 48.3398C43.6226 48.6007 43.7798 49.1759 43.5189 49.6285C43.3429 49.9303 43.0286 50.1 42.7017 50.1Z" fill="#BEBDBD"/>
<path d="M15.3466 17.6905C15.0197 17.6905 14.7054 17.5207 14.5294 17.219C14.2685 16.7695 14.4225 16.1912 14.872 15.9303L23.9873 10.6591C24.4367 10.3982 25.0151 10.5523 25.276 11.0049C25.5369 11.4544 25.3828 12.0327 24.9334 12.2936L15.8181 17.5648C15.6672 17.6528 15.5069 17.6905 15.3466 17.6905Z" fill="#BEBDBD"/>
<path d="M33.5841 7.14814C33.2572 7.14814 32.9397 6.97841 32.7668 6.67666C32.506 6.22404 32.6631 5.64883 33.1126 5.38794L42.2373 0.126223C42.6899 -0.134663 43.2651 0.0224975 43.526 0.471976C43.7869 0.924597 43.6298 1.4998 43.1803 1.76069L34.0556 7.02241C33.9078 7.10728 33.7444 7.14814 33.5841 7.14814Z" fill="#BEBDBD"/>
<path d="M24.452 12.419C24.1251 12.419 23.8107 12.2492 23.6347 11.9475C23.3738 11.498 23.5279 10.9197 23.9805 10.6588L33.1052 5.38448C33.5578 5.12359 34.133 5.27761 34.3939 5.73023C34.6548 6.17971 34.5008 6.75806 34.0482 7.01894L24.9234 12.2932C24.7757 12.3781 24.6123 12.419 24.452 12.419Z" fill="#BEBDBD"/>
<path d="M0.955859 25.9978C0.628966 25.9978 0.314646 25.8281 0.138627 25.5264C-0.122259 25.0737 0.0317577 24.4985 0.484379 24.2376L14.874 15.9333C15.3266 15.6724 15.9018 15.8264 16.1627 16.2791C16.4236 16.7317 16.2695 17.3069 15.8169 17.5678L1.42734 25.8721C1.27961 25.957 1.11616 25.9978 0.955859 25.9978Z" fill="#BEBDBD"/>
<path d="M0.944141 36.5311C0.617248 36.5311 0.299784 36.3613 0.126908 36.0596C-0.133978 35.6101 0.0200389 35.0317 0.47266 34.7709L9.60052 29.4997C10.05 29.2388 10.6283 29.3928 10.8892 29.8455C11.1501 30.2949 10.9961 30.8733 10.5435 31.1342L1.41562 36.4053C1.26789 36.4902 1.10444 36.5311 0.944141 36.5311Z" fill="#BEBDBD"/>
<path d="M42.702 12.4187C42.3751 12.4187 42.0607 12.249 41.8847 11.9472C41.6238 11.4978 41.7779 10.9194 42.2305 10.6585L51.3583 5.38423C51.811 5.12335 52.3862 5.27736 52.647 5.72998C52.9079 6.17946 52.7539 6.75781 52.3013 7.0187L43.1734 12.293C43.0257 12.3779 42.8623 12.4187 42.702 12.4187Z" fill="#BEBDBD"/>
<path d="M24.4552 22.9523C24.1283 22.9523 23.8108 22.7826 23.6379 22.4808C23.3771 22.0282 23.5342 21.453 23.9837 21.1921L33.1053 15.9304C33.5579 15.6695 34.1331 15.8235 34.394 16.2761C34.6549 16.7287 34.4977 17.304 34.0482 17.5648L24.9267 22.8266C24.7789 22.9114 24.6155 22.9523 24.4552 22.9523Z" fill="#BEBDBD"/>
<path d="M33.5848 17.6907C33.2579 17.6907 32.9436 17.521 32.7675 17.2192C32.5066 16.7698 32.6607 16.1914 33.1133 15.9305L42.238 10.6594C42.6906 10.3985 43.2658 10.5525 43.5267 11.0051C43.7876 11.4578 43.6336 12.033 43.181 12.2938L34.0562 17.565C33.9085 17.653 33.7451 17.6907 33.5848 17.6907Z" fill="#BEBDBD"/>
<path d="M10.073 31.2598C9.74615 31.2598 9.43183 31.09 9.25581 30.7883C8.99493 30.3388 9.14895 29.7605 9.60157 29.4996L23.988 21.1921C24.4406 20.9312 25.0158 21.0852 25.2767 21.5378C25.5376 21.9873 25.3836 22.5657 24.931 22.8266L10.5445 31.134C10.3968 31.2189 10.2334 31.2598 10.073 31.2598Z" fill="#BEBDBD"/>
<path d="M19.198 36.5339C18.8712 36.5339 18.5537 36.3642 18.3808 36.0624C18.1199 35.6098 18.2739 35.0346 18.7266 34.7737L33.1162 26.4631C33.5656 26.2022 34.144 26.3562 34.4049 26.8088C34.6657 27.2615 34.5117 27.8367 34.0591 28.0976L19.6695 36.4082C19.5218 36.4931 19.3583 36.5339 19.198 36.5339Z" fill="#BEBDBD"/>
<path d="M33.5926 28.2267C33.2657 28.2267 32.9482 28.0569 32.7753 27.7552C32.5145 27.3026 32.6685 26.7274 33.1211 26.4665L42.2458 21.2016C42.6953 20.9407 43.2736 21.0947 43.5345 21.5474C43.7954 22 43.6414 22.5752 43.1888 22.8361L34.0641 28.1009C33.9163 28.1858 33.7529 28.2267 33.5926 28.2267Z" fill="#BEBDBD"/>
<path d="M51.8426 17.6905C51.5157 17.6905 51.2014 17.5208 51.0253 17.2191C50.7645 16.7696 50.9185 16.1912 51.3711 15.9303L60.4927 10.6655C60.9453 10.4046 61.5205 10.5586 61.7814 11.0112C62.0423 11.4607 61.8883 12.0391 61.4356 12.2999L52.3109 17.5648C52.1632 17.6528 52.0029 17.6905 51.8426 17.6905Z" fill="#BEBDBD"/>
<path d="M42.7098 22.9615C42.3829 22.9615 42.0686 22.7918 41.8925 22.49C41.6316 22.0405 41.7857 21.4622 42.2383 21.2013L51.363 15.9333C51.8156 15.6724 52.3908 15.8264 52.6517 16.2791C52.9126 16.7285 52.7586 17.3069 52.306 17.5678L43.1812 22.8358C43.0304 22.9206 42.8701 22.9615 42.7098 22.9615Z" fill="#BEBDBD"/>
<path d="M10.073 41.7984C9.74615 41.7984 9.42869 41.6287 9.25581 41.327C8.99493 40.8775 9.14895 40.2991 9.60157 40.0383L18.7263 34.7734C19.1789 34.5125 19.7541 34.6665 20.015 35.1191C20.2759 35.5686 20.1219 36.147 19.6692 36.4079L10.5445 41.6727C10.3968 41.7576 10.2334 41.7984 10.073 41.7984Z" fill="#BEBDBD"/>
<path d="M0.944141 47.0636C0.617248 47.0636 0.299784 46.8939 0.126908 46.5922C-0.133978 46.1395 0.0200389 45.5643 0.47266 45.3034L9.60052 40.0386C10.05 39.7777 10.6283 39.9349 10.8892 40.3843C11.1501 40.8338 10.9961 41.4122 10.5435 41.673L1.41562 46.9379C1.26789 47.0228 1.10444 47.0636 0.944141 47.0636Z" fill="#BEBDBD"/>
<path d="M0.955175 57.5997C0.628282 57.5997 0.310818 57.43 0.137942 57.1283C-0.122944 56.6756 0.0342162 56.1004 0.483694 55.8396L9.60527 50.5778C10.0579 50.317 10.6331 50.471 10.894 50.9236C11.1549 51.3731 10.9977 51.9514 10.5482 52.2123L1.42666 57.474C1.27892 57.5589 1.11548 57.5997 0.955175 57.5997Z" fill="#BEBDBD"/>
<path d="M19.198 47.0673C18.8712 47.0673 18.5537 46.8975 18.3808 46.5958C18.1199 46.1463 18.2739 45.5679 18.7266 45.3071L27.8513 40.0422C28.3039 39.7813 28.8791 39.9353 29.14 40.3879C29.4009 40.8374 29.2469 41.4158 28.7942 41.6767L19.6695 46.9415C19.5218 47.0264 19.3583 47.0673 19.198 47.0673Z" fill="#BEBDBD"/>
<path d="M42.7098 33.4945C42.3829 33.4945 42.0686 33.3247 41.8925 33.023C41.6316 32.5735 41.7857 31.9952 42.2383 31.7343L51.3536 26.4663C51.8062 26.2054 52.3814 26.3594 52.6423 26.812C52.9032 27.2615 52.7492 27.8398 52.2965 28.1007L43.1812 33.3687C43.0304 33.4536 42.8701 33.4945 42.7098 33.4945Z" fill="#BEBDBD"/>
<path d="M60.9559 22.9584C60.629 22.9584 60.3115 22.7886 60.1386 22.4869C59.8777 22.0343 60.0318 21.4591 60.4844 21.1982L69.6091 15.9333C70.0617 15.6724 70.6369 15.8264 70.8978 16.2791C71.1587 16.7317 71.0047 17.3069 70.5521 17.5678L61.4273 22.8326C61.2765 22.9175 61.113 22.9584 60.9559 22.9584Z" fill="#BEBDBD"/>
<path d="M28.3348 41.8023C28.0079 41.8023 27.6936 41.6325 27.5175 41.3308C27.2566 40.8782 27.4107 40.3029 27.8633 40.0421L42.2497 31.7346C42.7023 31.4737 43.2776 31.6277 43.5384 32.0803C43.7993 32.5298 43.6453 33.1082 43.1927 33.369L28.8031 41.6734C28.6554 41.7614 28.4919 41.8023 28.3348 41.8023Z" fill="#BEBDBD"/>
<path d="M51.8309 28.2264C51.504 28.2264 51.1865 28.0567 51.0136 27.7549C50.7527 27.3023 50.9068 26.7271 51.3594 26.4662L60.4872 21.1982C60.9367 20.9373 61.5151 21.0913 61.776 21.5439C62.0368 21.9966 61.8828 22.5718 61.4302 22.8327L52.3023 28.1007C52.1515 28.1855 51.9912 28.2264 51.8309 28.2264Z" fill="#BEBDBD"/>
<path d="M10.073 52.3414C9.74615 52.3414 9.43183 52.1716 9.25581 51.8699C8.99493 51.4204 9.14895 50.8421 9.60157 50.5812L18.7263 45.31C19.1789 45.0491 19.7541 45.2031 20.015 45.6558C20.2759 46.1052 20.1219 46.6836 19.6692 46.9445L10.5445 52.2156C10.3968 52.3005 10.2334 52.3414 10.073 52.3414Z" fill="#BEBDBD"/>
</svg>
