<svg width="62" height="108" viewBox="0 0 62 108" fill="none" xmlns="http://www.w3.org/2000/svg">
<path d="M42.1298 66.5428L33.0625 60.0466L40.1761 63.42L49.2434 69.9132L42.1298 66.5428Z" fill="#B97E2E"/>
<path d="M35.0555 63.1996L25.9883 56.7034L33.0601 60.0469L42.1274 66.5431L35.0555 63.1996Z" fill="#B97E2E"/>
<path d="M9.06726 107.11L0 100.614L17.0309 63.9988L26.0982 70.492L9.06726 107.11Z" fill="#B97E2E"/>
<path d="M13.868 64.7027L4.80078 58.2064L52.3681 0L61.4354 6.49621L13.868 64.7027Z" fill="#B97E2E"/>
<path d="M42.1291 66.5428L49.2427 69.9132L41.3208 77.2476L41.285 77.6801L40.9957 77.5458L9.06641 107.11L26.0973 70.4919L15.9056 65.6629L13.8685 64.7025L61.4358 6.49609L35.0572 63.1993L42.1291 66.5428Z" fill="#F7BC1E"/>
</svg>
