<svg width="60" height="85" viewBox="0 0 60 85" fill="none" xmlns="http://www.w3.org/2000/svg">
<mask id="mask0_1006_67" style="mask-type:luminance" maskUnits="userSpaceOnUse" x="0" y="0" width="60" height="85">
<path d="M59.8571 0H0V84.7976H59.8571V0Z" fill="white"/>
</mask>
<g mask="url(#mask0_1006_67)">
<path d="M29.9304 84.7976C38.7717 84.7976 45.939 83.4216 45.939 81.7242C45.939 80.0267 38.7717 78.6507 29.9304 78.6507C21.0892 78.6507 13.9219 80.0267 13.9219 81.7242C13.9219 83.4216 21.0892 84.7976 29.9304 84.7976Z" fill="black" fill-opacity="0.1"/>
<path d="M29.9286 0C13.4249 0 0 13.4338 0 29.9485C0 42.9986 8.33562 54.4542 20.7441 58.4553C21.1388 58.582 21.4738 58.8539 21.6823 59.2116L29.9323 73.5097L38.1823 59.2116C38.3908 58.8502 38.7221 58.582 39.1205 58.4553C51.529 54.4542 59.8646 42.9986 59.8646 29.9485C59.8572 13.4338 46.4323 0 29.9286 0Z" fill="#FF8038"/>
<path d="M35.9681 51.5935C48.3301 48.5283 55.8684 36.0155 52.8052 23.6452C49.7421 11.275 37.2376 3.73169 24.8756 6.79685C12.5136 9.86201 4.97535 22.3749 8.03846 34.7451C11.1016 47.1154 23.6061 54.6586 35.9681 51.5935Z" fill="white"/>
<path d="M19.6406 24.0052L29.9286 16.0035L40.2165 24.0052V36.5794C40.2165 37.1857 39.9756 37.7672 39.5469 38.196C39.1182 38.6247 38.5366 38.8656 37.9303 38.8656H21.9268C21.3205 38.8656 20.739 38.6247 20.3102 38.196C19.8815 37.7672 19.6406 37.1857 19.6406 36.5794V24.0052Z" stroke="#222222" stroke-width="2" stroke-linecap="round" stroke-linejoin="round"/>
<path d="M26.5 38.8656V27.4345H33.3586V38.8656" stroke="#222222" stroke-width="2" stroke-linecap="round" stroke-linejoin="round"/>
</g>
</svg>
