<svg width="133" height="103" viewBox="0 0 133 103" fill="none" xmlns="http://www.w3.org/2000/svg">
<path d="M40.8158 33.595C41.0071 33.7317 41.1165 33.9093 41.1438 34.128C41.1711 34.3467 41.1301 34.538 41.0208 34.702C40.8568 34.9207 40.6381 35.03 40.3648 35.03C40.2555 35.03 40.1461 35.0027 40.0368 34.948C39.4901 34.8387 36.7841 34.702 31.9188 34.538C30.5794 40.1413 29.4998 44.8837 28.6798 48.765C27.0124 56.5003 26.1788 61.4613 26.1788 63.648C26.2881 63.4567 26.4111 63.2517 26.5478 63.033C26.6571 62.8417 26.8211 62.7187 27.0398 62.664C27.2584 62.6093 27.4498 62.6367 27.6138 62.746C27.8051 62.8553 27.9281 63.0057 27.9828 63.197C28.0374 63.4157 28.0101 63.6207 27.9008 63.812C27.1081 65.1513 26.4248 65.821 25.8508 65.821C25.7141 65.821 25.5774 65.7937 25.4408 65.739C25.1128 65.6023 24.8804 65.3017 24.7438 64.837C24.6344 64.3997 24.6071 63.5387 24.6618 62.254C24.7438 60.9967 24.9898 59.2473 25.3998 57.006C25.8098 54.7647 26.4111 51.7853 27.2038 48.068C28.0238 44.378 29.0624 39.8543 30.3198 34.497C28.4611 34.4423 25.6868 34.374 21.9968 34.292C21.4501 34.2647 20.8351 34.251 20.1518 34.251C16.0244 42.0957 12.8264 47.576 10.5578 50.692C9.95645 51.4847 9.35511 52.0997 8.75378 52.537C8.15245 52.9743 7.59212 53.2203 7.07278 53.275C6.55345 53.357 6.11611 53.357 5.76078 53.275C5.40545 53.193 5.06378 53.0563 4.73578 52.865C3.31445 52.045 2.18011 50.3777 1.33278 47.863C0.512781 45.3757 0.143781 42.615 0.225781 39.581C0.307781 36.5197 0.840781 33.8547 1.82478 31.586C3.05478 28.798 4.84511 26.9257 7.19578 25.969C9.57378 25.0123 12.3618 25.0397 15.5598 26.051C15.7784 26.1057 15.9288 26.2287 16.0108 26.42C16.1201 26.6113 16.1338 26.8163 16.0518 27.035C15.9971 27.2263 15.8741 27.3767 15.6828 27.486C15.4914 27.5953 15.2864 27.609 15.0678 27.527C14.0018 27.199 12.9631 26.994 11.9518 26.912C10.9404 26.83 9.87445 26.912 8.75378 27.158C7.66045 27.3767 6.63545 27.9233 5.67878 28.798C4.72211 29.6453 3.91578 30.7933 3.25978 32.242C2.76778 33.3627 2.39878 34.6063 2.15278 35.973C1.90678 37.3397 1.78378 38.679 1.78378 39.991C1.78378 41.303 1.87945 42.5877 2.07078 43.845C2.26211 45.1297 2.52178 46.2777 2.84978 47.289C3.20511 48.3277 3.60145 49.216 4.03878 49.954C4.50345 50.692 4.99545 51.2113 5.51478 51.512C6.66278 52.168 7.92012 51.5803 9.28678 49.749C11.4734 46.797 14.5074 41.6173 18.3888 34.21C11.2821 34.0187 7.40078 33.8547 6.74478 33.718C6.52611 33.6633 6.34845 33.554 6.21178 33.39C6.10245 33.1987 6.06145 32.9937 6.08878 32.775C6.14345 32.5563 6.26645 32.3923 6.45778 32.283C6.64911 32.1737 6.84045 32.1327 7.03178 32.16C7.63311 32.2967 11.6921 32.4607 19.2088 32.652C20.4114 30.3013 22.2291 26.748 24.6618 21.992C26.2471 18.8213 27.5455 16.252 28.5568 14.284C29.5681 12.316 30.5521 10.4437 31.5088 8.667C32.4928 6.89033 33.2718 5.551 33.8458 4.649C34.4198 3.71966 34.9664 2.927 35.4858 2.271C36.0051 1.58767 36.4288 1.164 36.7568 1C37.1121 0.808664 37.4538 0.767664 37.7818 0.876999C38.2191 1.041 38.4925 1.41 38.6018 1.984C38.7385 2.558 38.7521 3.35066 38.6428 4.362C38.4788 6.13866 38.0005 8.79 37.2078 12.316C36.8798 13.874 36.0461 17.4 34.7068 22.894C33.6681 27.2127 32.8618 30.5747 32.2878 32.98C37.6178 33.144 40.4605 33.349 40.8158 33.595ZM22.0378 32.693C25.6184 32.8023 28.5021 32.8843 30.6888 32.939C31.4268 29.7683 32.2468 26.297 33.1488 22.525C34.4881 17.0583 35.3355 13.546 35.6908 11.988C36.7568 7.15 37.2351 4.04766 37.1258 2.681C36.6884 3.11833 36.0734 3.97933 35.2808 5.264C34.5154 6.52133 33.5314 8.27067 32.3288 10.512C31.1534 12.7533 30.1694 14.653 29.3768 16.211C28.5841 17.7417 27.4771 19.901 26.0558 22.689C23.8144 27.117 22.1198 30.4517 20.9718 32.693C21.0811 32.693 21.2451 32.693 21.4638 32.693C21.7098 32.693 21.9011 32.693 22.0378 32.693ZM60.7277 7.765C61.4384 8.47567 61.083 10.9903 59.6617 15.309C59.5524 15.637 59.402 16.088 59.2107 16.662C58.6094 18.4933 58.1174 19.9557 57.7347 21.049C57.352 22.1423 56.7507 23.673 55.9307 25.641C55.1107 27.609 54.2224 29.495 53.2657 31.299C52.473 35.071 51.7214 39.089 51.0107 43.353C49.7807 50.651 49.1247 55.5983 49.0427 58.195C49.2614 58.113 49.48 58.113 49.6987 58.195C49.89 58.3043 50.013 58.4547 50.0677 58.646C50.1497 58.8647 50.1497 59.0697 50.0677 59.261C49.5757 60.2997 49.0837 60.819 48.5917 60.819C48.4824 60.819 48.373 60.8053 48.2637 60.778C47.963 60.6687 47.7444 60.4637 47.6077 60.163C47.4984 59.8897 47.4437 59.2883 47.4437 58.359C47.471 57.457 47.594 56.1177 47.8127 54.341C48.1407 51.4983 48.6874 47.7537 49.4527 43.107C49.89 40.565 50.341 38.0913 50.8057 35.686C49.9584 37.0527 49.0564 38.4193 48.0997 39.786C46.2957 42.41 44.724 43.353 43.3847 42.615C42.51 41.9863 42.0864 40.8793 42.1137 39.294C42.141 37.6813 42.5374 36.055 43.3027 34.415C44.2047 32.5017 45.2707 31.094 46.5007 30.192C47.7307 29.29 48.824 28.9893 49.7807 29.29C50.7374 29.5633 51.284 30.274 51.4207 31.422C51.5574 31.2033 51.6804 30.9847 51.7897 30.766C53.2384 23.9053 54.687 18.3977 56.1357 14.243C57.6117 10.061 58.8144 7.81967 59.7437 7.519C60.1264 7.38233 60.4544 7.46433 60.7277 7.765ZM46.8287 38.884C48.1134 37.0253 49.2887 35.1667 50.3547 33.308C49.9447 33.1713 49.7807 32.898 49.8627 32.488C49.972 31.4767 49.7944 30.9027 49.3297 30.766C49.275 30.766 49.193 30.766 49.0837 30.766C48.5097 30.766 47.799 31.1487 46.9517 31.914C46.1317 32.652 45.3937 33.718 44.7377 35.112C44.3004 36.014 43.9997 36.9433 43.8357 37.9C43.699 38.8293 43.6717 39.5947 43.7537 40.196C43.8357 40.77 43.986 41.1117 44.2047 41.221C44.2867 41.2757 44.4097 41.2757 44.5737 41.221C44.765 41.139 45.0657 40.9067 45.4757 40.524C45.8857 40.114 46.3367 39.5673 46.8287 38.884ZM58.1447 14.817C58.6914 13.1497 59.0877 11.7283 59.3337 10.553C57.9944 13.3683 56.5594 17.7553 55.0287 23.714C55.794 21.8553 56.6824 19.3543 57.6937 16.211C57.885 15.6097 58.0354 15.145 58.1447 14.817ZM76.0812 32.898C76.2999 32.8707 76.4912 32.9253 76.6552 33.062C76.8466 33.1987 76.9422 33.3763 76.9422 33.595C76.9696 33.8137 76.9149 34.005 76.7782 34.169C75.7396 35.3717 74.5506 36.2463 73.2112 36.793C71.8719 37.3123 70.6009 37.408 69.3982 37.08C68.0042 36.7247 66.9246 35.8637 66.1592 34.497C65.4759 36.875 64.4372 39.212 63.0432 41.508C62.1139 43.066 61.1709 44.3507 60.2142 45.362C59.2576 46.4007 58.3966 47.043 57.6312 47.289C57.3579 47.371 57.0982 47.412 56.8522 47.412C56.3602 47.412 55.9502 47.248 55.6222 46.92C54.0369 45.3073 54.8296 39.7587 58.0002 30.274C58.0549 30.0827 58.1779 29.946 58.3692 29.864C58.5879 29.7547 58.7929 29.741 58.9842 29.823C59.2029 29.8777 59.3532 30.0007 59.4352 30.192C59.5446 30.3833 59.5582 30.5883 59.4762 30.807C58.6836 33.2123 58.0412 35.3717 57.5492 37.285C57.0572 39.171 56.7292 40.6197 56.5652 41.631C56.4286 42.615 56.3739 43.4487 56.4012 44.132C56.4286 44.8153 56.4696 45.239 56.5242 45.403C56.5789 45.5943 56.6472 45.7173 56.7292 45.772C56.8112 45.854 56.9479 45.854 57.1392 45.772C57.9046 45.526 58.8612 44.665 60.0092 43.189C61.1572 41.713 62.2369 39.8953 63.2482 37.736C64.2596 35.5493 64.9019 33.4857 65.1752 31.545C65.2026 31.3537 65.2846 31.2033 65.4212 31.094C65.5852 30.9573 65.7629 30.8753 65.9542 30.848C66.3916 30.848 66.6512 31.0667 66.7332 31.504C67.1706 33.8 68.1956 35.153 69.8082 35.563C70.7102 35.809 71.6806 35.7133 72.7192 35.276C73.7852 34.8387 74.7282 34.128 75.5482 33.144C75.7122 32.98 75.8899 32.898 76.0812 32.898ZM91.7359 32.857C91.9545 32.775 92.1595 32.7887 92.3509 32.898C92.5422 32.98 92.6652 33.1303 92.7199 33.349C92.8019 33.5403 92.8019 33.7317 92.7199 33.923C89.7952 39.9637 87.1849 42.984 84.8889 42.984C84.7522 42.984 84.6019 42.9703 84.4379 42.943C82.6065 42.5877 81.4722 40.1277 81.0349 35.563C79.6955 37.367 78.5065 38.843 77.4679 39.991C76.5385 40.975 75.7459 41.3167 75.0899 41.016C74.4339 40.77 74.1195 40.0593 74.1469 38.884C74.1469 37.9 74.3655 36.7247 74.8029 35.358C75.2402 33.9913 75.8825 32.6657 76.7299 31.381C77.5772 30.0963 78.4929 29.29 79.4769 28.962C80.9255 28.4427 82.2649 28.921 83.4949 30.397C83.6315 30.561 83.6862 30.7523 83.6589 30.971C83.6589 31.1897 83.5769 31.3673 83.4129 31.504C83.2489 31.6407 83.0575 31.709 82.8389 31.709C82.6202 31.6817 82.4425 31.586 82.3059 31.422C81.3492 30.274 80.3789 30.0553 79.3949 30.766C78.2742 31.5587 77.3312 32.9937 76.5659 35.071C75.8279 37.121 75.5409 38.5833 75.7049 39.458C75.8689 39.3213 76.0602 39.1437 76.2789 38.925C77.3722 37.7497 78.7115 36.0687 80.2969 33.882C80.6522 33.39 80.8982 33.0483 81.0349 32.857C81.2535 32.5837 81.5405 32.5017 81.8959 32.611C82.2512 32.693 82.4425 32.9253 82.4699 33.308C82.5245 34.6473 82.6339 35.8363 82.7979 36.875C82.9619 37.9137 83.1259 38.7063 83.2899 39.253C83.4539 39.7723 83.6452 40.2097 83.8639 40.565C84.0825 40.9203 84.2465 41.1527 84.3559 41.262C84.4925 41.344 84.6292 41.385 84.7659 41.385C85.1485 41.467 85.6269 41.2893 86.2009 40.852C86.8022 40.3873 87.5539 39.5127 88.4559 38.228C89.3852 36.916 90.3282 35.2623 91.2849 33.267C91.3942 33.0483 91.5445 32.9117 91.7359 32.857ZM106.815 32.775C107.034 32.7203 107.239 32.7477 107.43 32.857C107.622 32.9663 107.745 33.1303 107.799 33.349C107.854 33.5403 107.827 33.7317 107.717 33.923C106.788 35.563 105.982 36.8613 105.298 37.818C104.615 38.7747 103.918 39.5263 103.207 40.073C102.497 40.6197 101.8 40.852 101.116 40.77C99.7495 40.606 98.6699 39.13 97.8772 36.342C97.3032 34.456 96.8112 33.513 96.4012 33.513C96.3192 33.4857 96.1962 33.5267 96.0322 33.636C95.8955 33.718 95.6632 33.964 95.3352 34.374C95.0072 34.7567 94.6382 35.2897 94.2282 35.973C93.8455 36.6563 93.3262 37.6677 92.6702 39.007C92.0415 40.3463 91.3582 41.9317 90.6202 43.763C90.4835 44.091 90.2375 44.255 89.8822 44.255C89.8275 44.255 89.7729 44.2413 89.7182 44.214C89.2535 44.1047 89.0485 43.8177 89.1032 43.353C89.3765 41.1117 90.4015 36.9433 92.1782 30.848C92.3695 30.2193 92.5062 29.741 92.5882 29.413C92.6702 29.1943 92.8069 29.044 92.9982 28.962C93.1895 28.8527 93.3809 28.8253 93.5722 28.88C93.7909 28.9347 93.9549 29.0577 94.0642 29.249C94.1735 29.4403 94.1872 29.6453 94.1052 29.864C94.0505 30.0553 93.9139 30.5337 93.6952 31.299C93.0939 33.4037 92.6292 35.0437 92.3012 36.219C93.1759 34.579 93.9412 33.4447 94.5972 32.816C95.2532 32.1873 95.8819 31.8867 96.4832 31.914C97.1939 31.9413 97.7542 32.3103 98.1642 33.021C98.6015 33.7317 99.0115 34.702 99.3942 35.932C99.9955 38.0367 100.638 39.13 101.321 39.212C101.649 39.2667 102.046 39.089 102.51 38.679C103.002 38.2417 103.522 37.6267 104.068 36.834C104.615 36.014 105.025 35.3717 105.298 34.907C105.599 34.4423 105.941 33.8547 106.323 33.144C106.433 32.9527 106.597 32.8297 106.815 32.775ZM118.758 32.57C118.976 32.5153 119.168 32.5563 119.332 32.693C119.523 32.8023 119.646 32.9663 119.701 33.185C119.755 33.4037 119.714 33.595 119.578 33.759C118.676 35.153 117.883 36.3283 117.2 37.285C116.544 38.2417 115.792 39.2667 114.945 40.36C114.097 41.426 113.318 42.2733 112.608 42.902C111.924 43.558 111.2 44.091 110.435 44.501C109.669 44.9383 108.945 45.157 108.262 45.157C108.016 45.157 107.77 45.1297 107.524 45.075C106.54 44.8563 105.788 44.2823 105.269 43.353C104.722 42.123 104.49 40.7837 104.572 39.335C104.626 37.859 104.913 36.4103 105.433 34.989C105.979 33.4857 106.663 32.324 107.483 31.504C108.33 30.684 109.123 30.397 109.861 30.643C110.025 30.6977 110.175 30.7797 110.312 30.889C110.448 30.971 110.612 31.1623 110.804 31.463C110.995 31.7363 111.091 32.1053 111.091 32.57C111.091 33.0347 111.009 33.636 110.845 34.374C110.79 34.5927 110.667 34.7567 110.476 34.866C110.312 34.9753 110.12 35.0027 109.902 34.948C109.683 34.8933 109.519 34.7703 109.41 34.579C109.3 34.3877 109.273 34.1963 109.328 34.005C109.601 32.9663 109.615 32.3377 109.369 32.119C109.259 32.119 109.082 32.201 108.836 32.365C108.617 32.529 108.316 32.898 107.934 33.472C107.551 34.0187 107.209 34.7157 106.909 35.563C106.417 36.8477 106.143 38.1597 106.089 39.499C106.061 40.811 106.253 41.836 106.663 42.574C106.936 43.0933 107.332 43.4077 107.852 43.517C108.316 43.6263 108.836 43.558 109.41 43.312C110.011 43.066 110.64 42.6287 111.296 42C111.979 41.344 112.594 40.7153 113.141 40.114C113.687 39.4853 114.316 38.6653 115.027 37.654C115.765 36.6153 116.325 35.8227 116.708 35.276C117.09 34.702 117.61 33.9093 118.266 32.898C118.375 32.734 118.539 32.6247 118.758 32.57ZM131.218 32.734C131.436 32.6793 131.628 32.7203 131.792 32.857C131.983 32.9663 132.092 33.1303 132.12 33.349C132.147 33.5677 132.106 33.759 131.997 33.923C128.908 38.2417 126.093 41.303 123.551 43.107C122.539 43.8177 121.542 44.173 120.558 44.173C119.792 44.173 119.123 43.968 118.549 43.558C118.221 43.312 117.934 42.984 117.688 42.574C117.414 42.164 117.182 41.59 116.991 40.852C116.799 40.114 116.772 39.1437 116.909 37.941C117.018 36.7383 117.319 35.3717 117.811 33.841V33.8C118.576 31.3127 119.505 29.3447 120.599 27.896C121.692 26.4473 122.676 25.7093 123.551 25.682C124.179 25.6547 124.589 25.928 124.781 26.502C125.081 27.2947 124.726 28.4153 123.715 29.864C122.703 31.3127 121.214 32.8707 119.246 34.538C118.918 35.604 118.685 36.588 118.549 37.49C118.412 38.392 118.357 39.1163 118.385 39.663C118.439 40.1823 118.535 40.647 118.672 41.057C118.836 41.4397 118.972 41.713 119.082 41.877C119.218 42.041 119.355 42.1777 119.492 42.287C120.312 42.8883 121.364 42.7243 122.649 41.795C125.054 40.1003 127.733 37.1757 130.685 33.021C130.821 32.857 130.999 32.7613 131.218 32.734ZM123.264 27.404C122.307 28.0053 121.364 29.3037 120.435 31.299C122.02 29.7137 122.963 28.4153 123.264 27.404ZM37.0084 77.406C37.2271 77.3787 37.4184 77.447 37.5824 77.611C37.7464 77.7477 37.8421 77.9253 37.8694 78.144C37.8967 78.3627 37.8284 78.554 37.6644 78.718C32.3617 84.8953 29.3277 88.4623 28.5624 89.419C28.0977 90.0203 27.6467 90.608 27.2094 91.182C27.5921 92.74 27.6194 94.2433 27.2914 95.692C26.9634 97.1407 26.4987 98.3843 25.8974 99.423C25.2961 100.462 24.5854 101.309 23.7654 101.965C23.0001 102.621 22.2894 102.949 21.6334 102.949C21.2234 102.949 20.8817 102.812 20.6084 102.539C19.1597 101.145 20.7861 97.25 25.4874 90.854C25.1867 89.8153 24.7084 88.804 24.0524 87.82C22.6857 85.77 21.6744 84.0617 21.0184 82.695C20.3624 81.3283 20.0617 80.0847 20.1164 78.964C20.1711 77.8707 20.4581 76.8867 20.9774 76.012C21.5241 75.1373 22.2484 74.4267 23.1504 73.88C23.9157 73.4153 24.7221 73.142 25.5694 73.06C26.4167 72.978 27.1957 73.101 27.9064 73.429C28.0977 73.5383 28.2207 73.7023 28.2754 73.921C28.3574 74.1123 28.3437 74.3037 28.2344 74.495C28.1524 74.6863 28.0021 74.823 27.7834 74.905C27.5921 74.9597 27.4007 74.946 27.2094 74.864C26.2254 74.3993 25.1457 74.5223 23.9704 75.233C22.5491 76.0803 21.7974 77.3513 21.7154 79.046C21.6607 79.948 21.9477 81.0277 22.5764 82.285C23.2051 83.515 24.1344 85.0593 25.3644 86.918C25.8837 87.7107 26.3074 88.517 26.6354 89.337C26.8541 89.0637 27.0864 88.763 27.3324 88.435C28.0977 87.4783 31.1454 83.8977 36.4754 77.693C36.6121 77.529 36.7897 77.4333 37.0084 77.406ZM24.2574 99.054C25.4601 97.2227 25.9931 95.2137 25.8564 93.027C24.7084 94.667 23.7791 96.1293 23.0684 97.414C22.3851 98.6987 21.9614 99.6143 21.7974 100.161C21.6607 100.735 21.6197 101.131 21.6744 101.35C21.9204 101.323 22.2894 101.104 22.7814 100.694C23.2734 100.311 23.7654 99.7647 24.2574 99.054ZM49.1575 77.734C49.3762 77.6793 49.5675 77.7203 49.7315 77.857C49.9229 77.9663 50.0322 78.1303 50.0595 78.349C50.0869 78.5677 50.0459 78.759 49.9365 78.923C46.8479 83.2417 44.0325 86.303 41.4905 88.107C40.4792 88.8177 39.4815 89.173 38.4975 89.173C37.7322 89.173 37.0625 88.968 36.4885 88.558C36.1605 88.312 35.8735 87.984 35.6275 87.574C35.3542 87.164 35.1219 86.59 34.9305 85.852C34.7392 85.114 34.7119 84.1437 34.8485 82.941C34.9579 81.7383 35.2585 80.3717 35.7505 78.841V78.8C36.5159 76.3127 37.4452 74.3447 38.5385 72.896C39.6319 71.4473 40.6159 70.7093 41.4905 70.682C42.1192 70.6547 42.5292 70.928 42.7205 71.502C43.0212 72.2947 42.6659 73.4153 41.6545 74.864C40.6432 76.3127 39.1535 77.8707 37.1855 79.538C36.8575 80.604 36.6252 81.588 36.4885 82.49C36.3519 83.392 36.2972 84.1163 36.3245 84.663C36.3792 85.1823 36.4749 85.647 36.6115 86.057C36.7755 86.4397 36.9122 86.713 37.0215 86.877C37.1582 87.041 37.2949 87.1777 37.4315 87.287C38.2515 87.8883 39.3039 87.7243 40.5885 86.795C42.9939 85.1003 45.6725 82.1757 48.6245 78.021C48.7612 77.857 48.9389 77.7613 49.1575 77.734ZM41.2035 72.404C40.2469 73.0053 39.3039 74.3037 38.3745 76.299C39.9599 74.7137 40.9029 73.4153 41.2035 72.404ZM64.6094 77.857C64.8281 77.775 65.0331 77.7887 65.2244 77.898C65.4157 77.98 65.5387 78.1303 65.5934 78.349C65.6754 78.5403 65.6754 78.7317 65.5934 78.923C62.6687 84.9637 60.0584 87.984 57.7624 87.984C57.6257 87.984 57.4754 87.9703 57.3114 87.943C55.4801 87.5877 54.3457 85.1277 53.9084 80.563C52.5691 82.367 51.3801 83.843 50.3414 84.991C49.4121 85.975 48.6194 86.3167 47.9634 86.016C47.3074 85.77 46.9931 85.0593 47.0204 83.884C47.0204 82.9 47.2391 81.7247 47.6764 80.358C48.1137 78.9913 48.7561 77.6657 49.6034 76.381C50.4507 75.0963 51.3664 74.29 52.3504 73.962C53.7991 73.4427 55.1384 73.921 56.3684 75.397C56.5051 75.561 56.5597 75.7523 56.5324 75.971C56.5324 76.1897 56.4504 76.3673 56.2864 76.504C56.1224 76.6407 55.9311 76.709 55.7124 76.709C55.4937 76.6817 55.3161 76.586 55.1794 76.422C54.2227 75.274 53.2524 75.0553 52.2684 75.766C51.1477 76.5587 50.2047 77.9937 49.4394 80.071C48.7014 82.121 48.4144 83.5833 48.5784 84.458C48.7424 84.3213 48.9337 84.1437 49.1524 83.925C50.2457 82.7497 51.5851 81.0687 53.1704 78.882C53.5257 78.39 53.7717 78.0483 53.9084 77.857C54.1271 77.5837 54.4141 77.5017 54.7694 77.611C55.1247 77.693 55.3161 77.9253 55.3434 78.308C55.3981 79.6473 55.5074 80.8363 55.6714 81.875C55.8354 82.9137 55.9994 83.7063 56.1634 84.253C56.3274 84.7723 56.5187 85.2097 56.7374 85.565C56.9561 85.9203 57.1201 86.1527 57.2294 86.262C57.3661 86.344 57.5027 86.385 57.6394 86.385C58.0221 86.467 58.5004 86.2893 59.0744 85.852C59.6757 85.3873 60.4274 84.5127 61.3294 83.228C62.2587 81.916 63.2017 80.2623 64.1584 78.267C64.2677 78.0483 64.4181 77.9117 64.6094 77.857ZM80.6843 77.693C80.9029 77.611 81.1079 77.6247 81.2993 77.734C81.4906 77.816 81.6273 77.9663 81.7093 78.185C81.7913 78.3763 81.7776 78.5677 81.6683 78.759C80.9303 80.3443 80.0966 81.9707 79.1673 83.638C78.2379 85.3053 77.2129 86.9863 76.0923 88.681C74.9989 90.403 73.9056 91.797 72.8123 92.863C71.7189 93.9563 70.7896 94.503 70.0243 94.503C69.8329 94.503 69.6553 94.462 69.4913 94.38C68.3706 93.9427 68.0153 92.248 68.4253 89.296C68.8079 86.5353 69.8193 82.6267 71.4593 77.57C71.4319 77.57 71.4046 77.5837 71.3773 77.611C71.3773 77.611 71.3636 77.611 71.3363 77.611C70.7349 78.021 70.2293 78.3353 69.8193 78.554C69.4366 78.7727 68.9036 79.0187 68.2203 79.292C67.5643 79.5653 66.9356 79.6883 66.3343 79.661C65.7329 79.6337 65.1726 79.4423 64.6533 79.087C63.6146 78.349 63.0816 77.324 63.0543 76.012C63.0269 74.7 63.5189 73.265 64.5303 71.707C65.1589 70.723 65.9106 69.862 66.7853 69.124C67.6873 68.386 68.4526 68.222 69.0813 68.632C69.4639 68.8507 69.6826 69.206 69.7373 69.698C69.8193 70.19 69.5869 71.1467 69.0403 72.568C68.4936 73.962 67.5779 75.7933 66.2933 78.062C67.1406 78.1713 68.5346 77.5837 70.4753 76.299C70.8306 76.053 71.0903 75.889 71.2543 75.807C71.4456 75.6977 71.6506 75.5883 71.8693 75.479C72.1153 75.3697 72.3203 75.3287 72.4843 75.356C72.6483 75.3833 72.8123 75.4517 72.9763 75.561C73.3863 75.889 73.4546 76.463 73.1813 77.283C70.4479 85.7563 69.3683 90.895 69.9423 92.699C69.9969 92.8083 70.0379 92.8903 70.0653 92.945C70.2839 92.9723 70.6119 92.7947 71.0493 92.412C71.5139 92.0293 72.0743 91.428 72.7303 90.608C73.4136 89.788 74.1379 88.804 74.9033 87.656C75.6959 86.508 76.5569 85.1003 77.4863 83.433C78.4429 81.7657 79.3586 79.989 80.2333 78.103C80.3426 77.8843 80.4929 77.7477 80.6843 77.693ZM64.7763 74.905C64.5303 75.8617 64.5849 76.627 64.9403 77.201C66.9356 73.7297 68.0016 71.379 68.1383 70.149C67.8103 70.3403 67.4276 70.6547 66.9903 71.092C66.5803 71.5293 66.1429 72.1033 65.6783 72.814C65.2409 73.4973 64.9403 74.1943 64.7763 74.905ZM92.6323 77.57C92.8509 77.5153 93.0423 77.5563 93.2063 77.693C93.3976 77.8023 93.5206 77.9663 93.5753 78.185C93.6299 78.4037 93.5889 78.595 93.4523 78.759C92.5503 80.153 91.7576 81.3283 91.0743 82.285C90.4183 83.2417 89.6666 84.2667 88.8193 85.36C87.9719 86.426 87.1929 87.2733 86.4823 87.902C85.7989 88.558 85.0746 89.091 84.3093 89.501C83.5439 89.9383 82.8196 90.157 82.1363 90.157C81.8903 90.157 81.6443 90.1297 81.3983 90.075C80.4143 89.8563 79.6626 89.2823 79.1433 88.353C78.5966 87.123 78.3643 85.7837 78.4463 84.335C78.5009 82.859 78.7879 81.4103 79.3073 79.989C79.8539 78.4857 80.5373 77.324 81.3573 76.504C82.2046 75.684 82.9973 75.397 83.7353 75.643C83.8993 75.6977 84.0496 75.7797 84.1863 75.889C84.3229 75.971 84.4869 76.1623 84.6783 76.463C84.8696 76.7363 84.9653 77.1053 84.9653 77.57C84.9653 78.0347 84.8833 78.636 84.7193 79.374C84.6646 79.5927 84.5416 79.7567 84.3503 79.866C84.1863 79.9753 83.9949 80.0027 83.7763 79.948C83.5576 79.8933 83.3936 79.7703 83.2843 79.579C83.1749 79.3877 83.1476 79.1963 83.2023 79.005C83.4756 77.9663 83.4893 77.3377 83.2433 77.119C83.1339 77.119 82.9563 77.201 82.7103 77.365C82.4916 77.529 82.1909 77.898 81.8083 78.472C81.4256 79.0187 81.0839 79.7157 80.7833 80.563C80.2913 81.8477 80.0179 83.1597 79.9633 84.499C79.9359 85.811 80.1273 86.836 80.5373 87.574C80.8106 88.0933 81.2069 88.4077 81.7263 88.517C82.1909 88.6263 82.7103 88.558 83.2843 88.312C83.8856 88.066 84.5143 87.6287 85.1703 87C85.8536 86.344 86.4686 85.7153 87.0153 85.114C87.5619 84.4853 88.1906 83.6653 88.9013 82.654C89.6393 81.6153 90.1996 80.8227 90.5823 80.276C90.9649 79.702 91.4843 78.9093 92.1403 77.898C92.2496 77.734 92.4136 77.6247 92.6323 77.57ZM109.906 77.529C110.125 77.4743 110.316 77.5017 110.48 77.611C110.672 77.7203 110.795 77.8843 110.849 78.103C110.904 78.3217 110.877 78.5267 110.767 78.718C109.865 80.1667 109.004 81.465 108.184 82.613C107.364 83.7337 106.654 84.6493 106.052 85.36C105.478 86.0433 104.918 86.6173 104.371 87.082C103.825 87.574 103.387 87.9157 103.059 88.107C102.731 88.3257 102.403 88.4623 102.075 88.517C101.747 88.599 101.515 88.6263 101.378 88.599C101.269 88.599 101.132 88.5853 100.968 88.558C99.6837 88.23 98.9594 86.7677 98.7954 84.171C98.7681 83.597 98.6997 83.1187 98.5904 82.736C98.4811 82.326 98.3854 82.0663 98.3034 81.957C98.2214 81.8203 98.1531 81.752 98.0984 81.752C98.0711 81.752 98.0574 81.752 98.0574 81.752C97.8387 81.752 97.5381 81.9297 97.1554 82.285C96.7727 82.613 96.3081 83.1597 95.7614 83.925C95.2147 84.6903 94.6407 85.6197 94.0394 86.713C93.4381 87.8063 92.7684 89.1867 92.0304 90.854C91.3197 92.5213 90.6227 94.3253 89.9394 96.266C89.8301 96.6213 89.5841 96.799 89.2014 96.799C89.1467 96.799 89.0921 96.799 89.0374 96.799C88.9007 96.7717 88.7914 96.717 88.7094 96.635C88.6001 96.553 88.5181 96.4437 88.4634 96.307C88.4087 96.1977 88.3951 96.0883 88.4224 95.979C88.4771 94.8583 89.2014 91.264 90.5954 85.196C91.9621 79.1007 93.0827 74.208 93.9574 70.518C94.8594 66.8007 95.5564 63.958 96.0484 61.99C96.9777 58.218 98.0437 55.0063 99.2464 52.355C100.476 49.6763 101.529 48.255 102.403 48.091C102.868 48.009 103.223 48.1457 103.469 48.501C104.071 49.321 103.715 51.4393 102.403 54.856C101.119 58.2727 99.1097 62.4547 96.3764 67.402C94.2717 76.0667 92.6454 83.023 91.4974 88.271C92.7001 85.729 93.8891 83.72 95.0644 82.244C96.2397 80.7407 97.3194 80.0573 98.3034 80.194C99.5334 80.358 100.217 81.6427 100.353 84.048C100.49 85.8793 100.818 86.8633 101.337 87C101.419 87.0273 101.529 87.0273 101.665 87C101.829 86.9727 102.144 86.8087 102.608 86.508C103.073 86.2073 103.579 85.77 104.125 85.196C104.672 84.5947 105.41 83.6653 106.339 82.408C107.296 81.1507 108.321 79.6337 109.414 77.857C109.524 77.693 109.688 77.5837 109.906 77.529ZM102.116 50.387C100.613 52.5463 99.2054 56.1133 97.8934 61.088C100.299 56.25 101.706 52.683 102.116 50.387Z" fill="white"/>
</svg>
