<svg width="82" height="83" viewBox="0 0 82 83" fill="none" xmlns="http://www.w3.org/2000/svg">
<path d="M55.5583 17.0633C55.139 17.0633 54.8005 16.7248 54.8005 16.3055C54.8005 8.61349 48.5408 2.3538 40.8463 2.3538C33.1517 2.3538 26.8946 8.61349 26.8946 16.3055C26.8946 16.7248 26.5561 17.0633 26.1367 17.0633C25.7174 17.0633 25.3789 16.7248 25.3789 16.3055C25.3789 7.77735 32.3181 0.838135 40.8463 0.838135C49.3769 0.838135 56.3161 7.77735 56.3161 16.3055C56.3161 16.7248 55.9776 17.0633 55.5583 17.0633Z" fill="#BEBDBD"/>
<path d="M50.2632 17.0633C49.8439 17.0633 49.5054 16.7248 49.5054 16.3054C49.5054 11.5311 45.6228 7.64848 40.8484 7.64848C36.0741 7.64848 32.1914 11.5311 32.1914 16.3054C32.1914 16.7248 31.8529 17.0633 31.4336 17.0633C31.0143 17.0633 30.6758 16.7248 30.6758 16.3054C30.6758 10.695 35.2379 6.13281 40.8484 6.13281C46.4589 6.13281 51.021 10.6975 51.021 16.3054C51.021 16.7248 50.6826 17.0633 50.2632 17.0633Z" fill="#BEBDBD"/>
<path d="M44.9667 17.0632C44.5474 17.0632 44.2089 16.7247 44.2089 16.3054C44.2089 14.4512 42.7008 12.9432 40.8467 12.9432C38.9925 12.9432 37.4844 14.4512 37.4844 16.3054C37.4844 16.7247 37.1459 17.0632 36.7266 17.0632C36.3072 17.0632 35.9688 16.7247 35.9688 16.3054C35.9688 13.6151 38.1564 11.4275 40.8467 11.4275C43.537 11.4275 45.7246 13.6151 45.7246 16.3054C45.7246 16.7247 45.3861 17.0632 44.9667 17.0632Z" fill="#BEBDBD"/>
<path d="M26.1367 33.036C25.7174 33.036 25.3789 32.6975 25.3789 32.2781V26.9834C25.3789 26.5641 25.7174 26.2256 26.1367 26.2256C26.5561 26.2256 26.8946 26.5641 26.8946 26.9834V32.2756C26.8946 32.6949 26.5561 33.036 26.1367 33.036Z" fill="#BEBDBD"/>
<path d="M26.1367 27.7416C25.7174 27.7416 25.3789 27.4031 25.3789 26.9838V16.3059C25.3789 15.8866 25.7174 15.5481 26.1367 15.5481C26.5561 15.5481 26.8946 15.8866 26.8946 16.3059V26.9838C26.8946 27.4031 26.5561 27.7416 26.1367 27.7416Z" fill="#BEBDBD"/>
<path d="M26.1367 38.3304C25.7174 38.3304 25.3789 37.9919 25.3789 37.5726V32.2779C25.3789 31.8585 25.7174 31.52 26.1367 31.52C26.5561 31.52 26.8946 31.8585 26.8946 32.2779V37.5726C26.8946 37.9919 26.5561 38.3304 26.1367 38.3304Z" fill="#BEBDBD"/>
<path d="M31.4336 27.7409C31.0143 27.7409 30.6758 27.4024 30.6758 26.9831V16.3052C30.6758 15.8859 31.0143 15.5474 31.4336 15.5474C31.8529 15.5474 32.1914 15.8859 32.1914 16.3052V26.9831C32.1914 27.4024 31.8529 27.7409 31.4336 27.7409Z" fill="#BEBDBD"/>
<path d="M31.4336 33.036C31.0143 33.036 30.6758 32.6975 30.6758 32.2781V26.9834C30.6758 26.5641 31.0143 26.2256 31.4336 26.2256C31.8529 26.2256 32.1914 26.5641 32.1914 26.9834V32.2756C32.1914 32.6949 31.8529 33.036 31.4336 33.036Z" fill="#BEBDBD"/>
<path d="M36.7266 27.7416C36.3072 27.7416 35.9688 27.4031 35.9688 26.9838V16.3059C35.9688 15.8866 36.3072 15.5481 36.7266 15.5481C37.1459 15.5481 37.4844 15.8866 37.4844 16.3059V26.9838C37.4844 27.4031 37.1459 27.7416 36.7266 27.7416Z" fill="#BEBDBD"/>
<path d="M44.9766 27.7416C44.5572 27.7416 44.2188 27.4031 44.2188 26.9838V16.3059C44.2188 15.8866 44.5572 15.5481 44.9766 15.5481C45.3959 15.5481 45.7344 15.8866 45.7344 16.3059V26.9838C45.7344 27.4031 45.3959 27.7416 44.9766 27.7416Z" fill="#BEBDBD"/>
<path d="M50.2656 27.7419C49.8463 27.7419 49.5078 27.4034 49.5078 26.984V16.3062C49.5078 15.8868 49.8463 15.5483 50.2656 15.5483C50.685 15.5483 51.0235 15.8868 51.0235 16.3062V26.984C51.0235 27.4034 50.685 27.7419 50.2656 27.7419Z" fill="#BEBDBD"/>
<path d="M55.5664 27.7416C55.1471 27.7416 54.8086 27.4031 54.8086 26.9838V16.3059C54.8086 15.8866 55.1471 15.5481 55.5664 15.5481C55.9858 15.5481 56.3243 15.8866 56.3243 16.3059V26.9838C56.3243 27.4031 55.9858 27.7416 55.5664 27.7416Z" fill="#BEBDBD"/>
<path d="M40.8463 82.5427C32.3181 82.5427 25.3789 75.606 25.3789 67.0779C25.3789 66.6586 25.7174 66.3201 26.1367 66.3201C26.5561 66.3201 26.8946 66.6586 26.8946 67.0779C26.8946 74.7699 33.1543 81.0271 40.8463 81.0271C48.5408 81.0271 54.8005 74.7699 54.8005 67.0779C54.8005 66.6586 55.139 66.3201 55.5583 66.3201C55.9776 66.3201 56.3161 66.6586 56.3161 67.0779C56.3161 75.6035 49.3769 82.5427 40.8463 82.5427Z" fill="#BEBDBD"/>
<path d="M40.8484 77.2475C35.2379 77.2475 30.6758 72.6854 30.6758 67.0774C30.6758 66.6581 31.0143 66.3196 31.4336 66.3196C31.8529 66.3196 32.1914 66.6581 32.1914 67.0774C32.1914 71.8492 36.0741 75.7319 40.8484 75.7319C45.6228 75.7319 49.5054 71.8492 49.5054 67.0774C49.5054 66.6581 49.8439 66.3196 50.2632 66.3196C50.6826 66.3196 51.021 66.6581 51.021 67.0774C51.021 72.6828 46.4589 77.2475 40.8484 77.2475Z" fill="#BEBDBD"/>
<path d="M40.8467 71.9509C38.1564 71.9509 35.9688 69.7632 35.9688 67.0755C35.9688 66.6561 36.3072 66.3176 36.7266 66.3176C37.1459 66.3176 37.4844 66.6561 37.4844 67.0755C37.4844 68.9271 38.9925 70.4352 40.8467 70.4352C42.7008 70.4352 44.2089 68.9271 44.2089 67.0755C44.2089 66.6561 44.5474 66.3176 44.9667 66.3176C45.3861 66.3176 45.7246 66.6561 45.7246 67.0755C45.7246 69.7632 43.537 71.9509 40.8467 71.9509Z" fill="#BEBDBD"/>
<path d="M26.1367 67.8327C25.7174 67.8327 25.3789 67.4942 25.3789 67.0748V56.397C25.3789 55.9777 25.7174 55.6392 26.1367 55.6392C26.5561 55.6392 26.8946 55.9777 26.8946 56.397V67.0748C26.8946 67.4942 26.5561 67.8327 26.1367 67.8327Z" fill="#BEBDBD"/>
<path d="M31.4336 67.8329C31.0143 67.8329 30.6758 67.4944 30.6758 67.0751V56.3972C30.6758 55.9779 31.0143 55.6394 31.4336 55.6394C31.8529 55.6394 32.1914 55.9779 32.1914 56.3972V67.0751C32.1914 67.4944 31.8529 67.8329 31.4336 67.8329Z" fill="#BEBDBD"/>
<path d="M36.7266 67.8327C36.3072 67.8327 35.9688 67.4942 35.9688 67.0748V56.397C35.9688 55.9777 36.3072 55.6392 36.7266 55.6392C37.1459 55.6392 37.4844 55.9777 37.4844 56.397V67.0748C37.4844 67.4942 37.1459 67.8327 36.7266 67.8327Z" fill="#BEBDBD"/>
<path d="M44.9766 67.8327C44.5572 67.8327 44.2188 67.4942 44.2188 67.0748V56.397C44.2188 55.9777 44.5572 55.6392 44.9766 55.6392C45.3959 55.6392 45.7344 55.9777 45.7344 56.397V67.0748C45.7344 67.4942 45.3959 67.8327 44.9766 67.8327Z" fill="#BEBDBD"/>
<path d="M50.2656 57.1551C49.8463 57.1551 49.5078 56.8166 49.5078 56.3973V51.1026C49.5078 50.6832 49.8463 50.3447 50.2656 50.3447C50.685 50.3447 51.0235 50.6832 51.0235 51.1026V56.3973C51.0235 56.8166 50.685 57.1551 50.2656 57.1551Z" fill="#BEBDBD"/>
<path d="M50.2656 67.8332C49.8463 67.8332 49.5078 67.4947 49.5078 67.0753V56.3975C49.5078 55.9781 49.8463 55.6396 50.2656 55.6396C50.685 55.6396 51.0235 55.9781 51.0235 56.3975V67.0753C51.0235 67.4947 50.685 67.8332 50.2656 67.8332Z" fill="#BEBDBD"/>
<path d="M55.5664 67.8327C55.1471 67.8327 54.8086 67.4942 54.8086 67.0748V56.397C54.8086 55.9777 55.1471 55.6392 55.5664 55.6392C55.9858 55.6392 56.3243 55.9777 56.3243 56.397V67.0748C56.3243 67.4942 55.9858 67.8327 55.5664 67.8327Z" fill="#BEBDBD"/>
<path d="M55.5664 51.8607C55.1471 51.8607 54.8086 51.5222 54.8086 51.1028V45.8081C54.8086 45.3888 55.1471 45.0503 55.5664 45.0503C55.9858 45.0503 56.3243 45.3888 56.3243 45.8081V51.1028C56.3243 51.5222 55.9858 51.8607 55.5664 51.8607Z" fill="#BEBDBD"/>
<path d="M55.5664 57.1549C55.1471 57.1549 54.8086 56.8164 54.8086 56.397V51.1023C54.8086 50.683 55.1471 50.3445 55.5664 50.3445C55.9858 50.3445 56.3243 50.683 56.3243 51.1023V56.397C56.3243 56.8164 55.9858 57.1549 55.5664 57.1549Z" fill="#BEBDBD"/>
<path d="M66.2344 57.1552C65.8151 57.1552 65.4766 56.8167 65.4766 56.3974C65.4766 55.9781 65.8151 55.6396 66.2344 55.6396C73.9264 55.6396 80.1861 49.3824 80.1861 41.6904C80.1861 33.9984 73.9264 27.7413 66.2344 27.7413C65.8151 27.7413 65.4766 27.4028 65.4766 26.9834C65.4766 26.5641 65.8151 26.2256 66.2344 26.2256C74.7625 26.2256 81.7017 33.1623 81.7017 41.6904C81.7017 50.2186 74.7625 57.1552 66.2344 57.1552Z" fill="#BEBDBD"/>
<path d="M66.2344 51.8607C65.8151 51.8607 65.4766 51.5222 65.4766 51.1029C65.4766 50.6836 65.8151 50.3451 66.2344 50.3451C71.0087 50.3451 74.8914 46.4624 74.8914 41.6931C74.8914 36.9213 71.0062 33.0362 66.2344 33.0362C65.8151 33.0362 65.4766 32.6977 65.4766 32.2783C65.4766 31.859 65.8151 31.5205 66.2344 31.5205C71.8449 31.5205 76.407 36.0827 76.407 41.6931C76.407 47.2986 71.8424 51.8607 66.2344 51.8607Z" fill="#BEBDBD"/>
<path d="M66.2344 46.5651C65.8151 46.5651 65.4766 46.2266 65.4766 45.8073C65.4766 45.388 65.8151 45.0495 66.2344 45.0495C68.0886 45.0495 69.5966 43.5439 69.5966 41.6923C69.5966 39.8406 68.0886 38.3326 66.2344 38.3326C65.8151 38.3326 65.4766 37.9941 65.4766 37.5747C65.4766 37.1554 65.8151 36.8169 66.2344 36.8169C68.9247 36.8169 71.1123 39.0045 71.1123 41.6923C71.1123 44.3775 68.9222 46.5651 66.2344 46.5651Z" fill="#BEBDBD"/>
<path d="M66.2392 27.7413H55.5664C55.1471 27.7413 54.8086 27.4028 54.8086 26.9834C54.8086 26.5641 55.1471 26.2256 55.5664 26.2256H66.2392C66.6586 26.2256 66.9971 26.5641 66.9971 26.9834C66.9971 27.4028 66.656 27.7413 66.2392 27.7413Z" fill="#BEBDBD"/>
<path d="M50.2713 27.7413H44.9766C44.5572 27.7413 44.2188 27.4028 44.2188 26.9834C44.2188 26.5641 44.5572 26.2256 44.9766 26.2256H50.2713C50.6906 26.2256 51.0291 26.5641 51.0291 26.9834C51.0291 27.4028 50.6906 27.7413 50.2713 27.7413Z" fill="#BEBDBD"/>
<path d="M55.5604 27.7413H50.2656C49.8463 27.7413 49.5078 27.4028 49.5078 26.9834C49.5078 26.5641 49.8463 26.2256 50.2656 26.2256H55.5604C55.9797 26.2256 56.3182 26.5641 56.3182 26.9834C56.3182 27.4028 55.9797 27.7413 55.5604 27.7413Z" fill="#BEBDBD"/>
<path d="M55.5604 33.0357H50.2656C49.8463 33.0357 49.5078 32.6972 49.5078 32.2779C49.5078 31.8585 49.8463 31.52 50.2656 31.52H55.5604C55.9797 31.52 56.3182 31.8585 56.3182 32.2779C56.3182 32.6947 55.9797 33.0357 55.5604 33.0357Z" fill="#BEBDBD"/>
<path d="M66.2392 33.0357H55.5664C55.1471 33.0357 54.8086 32.6972 54.8086 32.2779C54.8086 31.8585 55.1471 31.52 55.5664 31.52H66.2392C66.6586 31.52 66.9971 31.8585 66.9971 32.2779C66.9971 32.6947 66.656 33.0357 66.2392 33.0357Z" fill="#BEBDBD"/>
<path d="M66.2392 38.3311H55.5664C55.1471 38.3311 54.8086 37.9926 54.8086 37.5733C54.8086 37.1539 55.1471 36.8154 55.5664 36.8154H66.2392C66.6586 36.8154 66.9971 37.1539 66.9971 37.5733C66.9971 37.9926 66.656 38.3311 66.2392 38.3311Z" fill="#BEBDBD"/>
<path d="M66.2392 46.566H55.5664C55.1471 46.566 54.8086 46.2275 54.8086 45.8081C54.8086 45.3888 55.1471 45.0503 55.5664 45.0503H66.2392C66.6586 45.0503 66.9971 45.3888 66.9971 45.8081C66.9971 46.2275 66.656 46.566 66.2392 46.566Z" fill="#BEBDBD"/>
<path d="M66.2392 51.8601H55.5664C55.1471 51.8601 54.8086 51.5216 54.8086 51.1023C54.8086 50.683 55.1471 50.3445 55.5664 50.3445H66.2392C66.6586 50.3445 66.9971 50.683 66.9971 51.1023C66.9971 51.5216 66.656 51.8601 66.2392 51.8601Z" fill="#BEBDBD"/>
<path d="M66.2392 57.1548H55.5664C55.1471 57.1548 54.8086 56.8163 54.8086 56.397C54.8086 55.9777 55.1471 55.6392 55.5664 55.6392H66.2392C66.6586 55.6392 66.9971 55.9777 66.9971 56.397C66.9971 56.8163 66.656 57.1548 66.2392 57.1548Z" fill="#BEBDBD"/>
<path d="M15.4674 57.155C6.93922 57.155 0 50.2183 0 41.6902C0 33.162 6.93922 26.2253 15.4674 26.2253C15.8867 26.2253 16.2252 26.5638 16.2252 26.9832C16.2252 27.4025 15.8867 27.741 15.4674 27.741C7.77536 27.741 1.51566 33.9982 1.51566 41.6902C1.51566 49.3822 7.77536 55.6393 15.4674 55.6393C15.8867 55.6393 16.2252 55.9778 16.2252 56.3972C16.2252 56.8165 15.8867 57.155 15.4674 57.155Z" fill="#BEBDBD"/>
<path d="M15.4734 51.8602C9.86293 51.8602 5.30078 47.2981 5.30078 41.6927C5.30078 36.0847 9.86546 31.52 15.4734 31.52C15.8927 31.52 16.2312 31.8585 16.2312 32.2779C16.2312 32.6972 15.8927 33.0357 15.4734 33.0357C10.6991 33.0357 6.81645 36.9183 6.81645 41.6927C6.81645 46.4645 10.6991 50.3446 15.4734 50.3446C15.8927 50.3446 16.2312 50.6831 16.2312 51.1024C16.2312 51.5217 15.8927 51.8602 15.4734 51.8602Z" fill="#BEBDBD"/>
<path d="M15.4678 46.5659C12.7775 46.5659 10.5898 44.3783 10.5898 41.693C10.5898 39.0052 12.7775 36.8176 15.4678 36.8176C15.8871 36.8176 16.2256 37.1561 16.2256 37.5755C16.2256 37.9948 15.8871 38.3333 15.4678 38.3333C13.6136 38.3333 12.1055 39.8414 12.1055 41.693C12.1055 43.5447 13.6136 45.0502 15.4678 45.0502C15.8871 45.0502 16.2256 45.3887 16.2256 45.808C16.2256 46.2274 15.8871 46.5659 15.4678 46.5659Z" fill="#BEBDBD"/>
<path d="M26.1416 27.7413H15.4688C15.0494 27.7413 14.7109 27.4028 14.7109 26.9834C14.7109 26.5641 15.0494 26.2256 15.4688 26.2256H26.1416C26.5609 26.2256 26.8994 26.5641 26.8994 26.9834C26.8994 27.4028 26.5609 27.7413 26.1416 27.7413Z" fill="#BEBDBD"/>
<path d="M26.1416 33.0357H15.4688C15.0494 33.0357 14.7109 32.6972 14.7109 32.2779C14.7109 31.8585 15.0494 31.52 15.4688 31.52H26.1416C26.5609 31.52 26.8994 31.8585 26.8994 32.2779C26.8994 32.6947 26.5609 33.0357 26.1416 33.0357Z" fill="#BEBDBD"/>
<path d="M26.1416 38.3311H15.4688C15.0494 38.3311 14.7109 37.9926 14.7109 37.5733C14.7109 37.1539 15.0494 36.8154 15.4688 36.8154H26.1416C26.5609 36.8154 26.8994 37.1539 26.8994 37.5733C26.8994 37.9926 26.5609 38.3311 26.1416 38.3311Z" fill="#BEBDBD"/>
<path d="M26.1416 46.566H15.4688C15.0494 46.566 14.7109 46.2275 14.7109 45.8081C14.7109 45.3888 15.0494 45.0503 15.4688 45.0503H26.1416C26.5609 45.0503 26.8994 45.3888 26.8994 45.8081C26.8994 46.2275 26.5609 46.566 26.1416 46.566Z" fill="#BEBDBD"/>
<path d="M31.4315 51.8601H26.1367C25.7174 51.8601 25.3789 51.5216 25.3789 51.1023C25.3789 50.683 25.7174 50.3445 26.1367 50.3445H31.4315C31.8508 50.3445 32.1893 50.683 32.1893 51.1023C32.1893 51.5216 31.8508 51.8601 31.4315 51.8601Z" fill="#BEBDBD"/>
<path d="M26.1416 51.8604H15.4688C15.0494 51.8604 14.7109 51.5219 14.7109 51.1026C14.7109 50.6832 15.0494 50.3447 15.4688 50.3447H26.1416C26.5609 50.3447 26.8994 50.6832 26.8994 51.1026C26.8994 51.5219 26.5609 51.8604 26.1416 51.8604Z" fill="#BEBDBD"/>
<path d="M31.4315 57.1548H26.1367C25.7174 57.1548 25.3789 56.8163 25.3789 56.397C25.3789 55.9777 25.7174 55.6392 26.1367 55.6392H31.4315C31.8508 55.6392 32.1893 55.9777 32.1893 56.397C32.1893 56.8163 31.8508 57.1548 31.4315 57.1548Z" fill="#BEBDBD"/>
<path d="M36.7283 57.1551H31.4336C31.0143 57.1551 30.6758 56.8166 30.6758 56.3972C30.6758 55.9779 31.0143 55.6394 31.4336 55.6394H36.7283C37.1477 55.6394 37.4862 55.9779 37.4862 56.3972C37.4862 56.8166 37.1477 57.1551 36.7283 57.1551Z" fill="#BEBDBD"/>
<path d="M26.1416 57.1551H15.4688C15.0494 57.1551 14.7109 56.8166 14.7109 56.3972C14.7109 55.9779 15.0494 55.6394 15.4688 55.6394H26.1416C26.5609 55.6394 26.8994 55.9779 26.8994 56.3972C26.8994 56.8166 26.5609 57.1551 26.1416 57.1551Z" fill="#BEBDBD"/>
</svg>
