<svg width="76" height="83" viewBox="0 0 76 83" fill="none" xmlns="http://www.w3.org/2000/svg">
<path d="M33.1572 82.5439C33.016 82.5439 32.8747 82.5079 32.7417 82.4331L0.421044 63.7714C0.163432 63.6219 0.00554005 63.3476 0.00554005 63.0512L0 20.3346C0 20.0382 0.157892 19.764 0.415504 19.6144L32.7417 0.949976C33.1378 0.720063 33.6475 0.855795 33.8774 1.25468C34.1073 1.65356 33.9716 2.16048 33.5727 2.39039L1.66202 20.8138L1.66756 62.572L33.5755 80.9927C33.9744 81.2226 34.1101 81.7295 33.8802 82.1284C33.7251 82.3943 33.4453 82.5439 33.1572 82.5439Z" fill="#BEBDBD"/>
<path d="M33.1492 74.879C33.0079 74.879 32.8666 74.843 32.7337 74.7682L7.05549 59.9347C6.79788 59.7851 6.63999 59.5109 6.63999 59.2145L6.62891 24.1708C6.62891 23.8744 6.7868 23.6002 7.04441 23.4506L32.7337 8.6116C33.1325 8.38168 33.6395 8.51742 33.8694 8.9163C34.0993 9.31241 33.9635 9.8221 33.5647 10.052L8.29092 24.6501L8.302 58.7352L33.5674 73.3278C33.9635 73.5577 34.102 74.0646 33.8721 74.4635C33.717 74.7294 33.4372 74.879 33.1492 74.879Z" fill="#BEBDBD"/>
<path d="M33.158 67.1921C33.0167 67.1921 32.8754 67.1561 32.7425 67.0813L13.7124 56.0926C13.4548 55.943 13.2969 55.6688 13.2969 55.3724V28.01C13.2969 27.7136 13.4548 27.4394 13.7124 27.2898L32.7397 16.2984C33.1386 16.0685 33.6455 16.2042 33.8754 16.6031C34.1053 16.9992 33.9696 17.5089 33.5707 17.7388L14.9617 28.4893V54.8932L33.5762 65.6409C33.9751 65.8708 34.1109 66.3777 33.881 66.7766C33.7258 67.0425 33.4461 67.1921 33.158 67.1921Z" fill="#BEBDBD"/>
<path d="M33.1684 59.4333C33.0271 59.4333 32.883 59.3973 32.7529 59.3225L20.4428 52.2091C20.1852 52.0595 20.0273 51.7853 20.0273 51.4889V31.8882C20.0273 31.5918 20.1852 31.3176 20.4428 31.168L32.7529 24.0518C33.1517 23.8219 33.6587 23.9576 33.8886 24.3565C34.1185 24.7526 33.9827 25.2623 33.5839 25.4922L21.6894 32.3674V51.0069L33.5839 57.8821C33.98 58.112 34.1185 58.619 33.8886 59.0178C33.7334 59.2838 33.4537 59.4333 33.1684 59.4333Z" fill="#BEBDBD"/>
<path d="M42.51 82.544C42.2219 82.544 41.9421 82.3945 41.7898 82.1285C41.5599 81.7296 41.6956 81.2227 42.0945 80.9928L74.0052 62.5721L74.008 20.814L42.0917 2.39052C41.6956 2.16061 41.5571 1.65369 41.787 1.25481C42.0169 0.858694 42.5238 0.720192 42.9227 0.950105L75.2545 19.6145C75.5121 19.7641 75.67 20.0384 75.67 20.3348L75.6672 63.0513C75.6672 63.3477 75.5093 63.622 75.2517 63.7716L42.9255 82.4332C42.7925 82.508 42.6513 82.544 42.51 82.544Z" fill="#BEBDBD"/>
<path d="M42.51 74.8788C42.2219 74.8788 41.9449 74.7293 41.7898 74.4633C41.5599 74.0645 41.6956 73.5575 42.0945 73.3276L67.3627 58.7351L67.3682 24.6499L42.0917 10.0519C41.6956 9.82198 41.5571 9.31507 41.787 8.91618C42.0169 8.52007 42.5238 8.38157 42.9227 8.61148L68.6147 23.4505C68.8724 23.6001 69.0302 23.8743 69.0302 24.1707L69.0247 59.2143C69.0247 59.5107 68.8668 59.785 68.6092 59.9345L42.9255 74.768C42.7925 74.8428 42.6513 74.8788 42.51 74.8788Z" fill="#BEBDBD"/>
<path d="M42.51 67.1921C42.2219 67.1921 41.9421 67.0425 41.7898 66.7766C41.5599 66.3777 41.6956 65.8708 42.0945 65.6409L60.7118 54.8932V28.4893L42.0917 17.7305C41.6956 17.5006 41.5571 16.9937 41.787 16.5948C42.0169 16.1959 42.5238 16.0602 42.9227 16.2901L61.9584 27.2871C62.216 27.4367 62.3739 27.7109 62.3739 28.0073V55.3696C62.3739 55.666 62.216 55.9402 61.9584 56.0898L42.9255 67.0785C42.7925 67.1561 42.6513 67.1921 42.51 67.1921Z" fill="#BEBDBD"/>
<path d="M42.51 59.4362C42.2219 59.4362 41.9449 59.2867 41.7898 59.0207C41.5599 58.6246 41.6956 58.1149 42.0945 57.885L53.9918 51.0098V32.3703L42.0917 25.4923C41.6956 25.2624 41.5571 24.7555 41.787 24.3566C42.0169 23.9605 42.5238 23.822 42.9227 24.0519L55.2355 31.1681C55.4931 31.3177 55.651 31.5919 55.651 31.8883V51.489C55.651 51.7854 55.4931 52.0597 55.2355 52.2092L42.9227 59.3254C42.7925 59.4002 42.6513 59.4362 42.51 59.4362Z" fill="#BEBDBD"/>
<path d="M33.1669 17.8491C32.7071 17.8491 32.3359 17.4779 32.3359 17.0181V9.33125C32.3359 8.87143 32.7071 8.50024 33.1669 8.50024C33.6268 8.50024 33.998 8.87143 33.998 9.33125V17.0181C33.998 17.4751 33.6268 17.8491 33.1669 17.8491Z" fill="#BEBDBD"/>
<path d="M33.1669 82.5438C32.7071 82.5438 32.3359 82.1726 32.3359 81.7128V74.0454C32.3359 73.5855 32.7071 73.2144 33.1669 73.2144C33.6268 73.2144 33.998 73.5855 33.998 74.0454V81.7128C33.998 82.1726 33.624 82.5438 33.1669 82.5438Z" fill="#BEBDBD"/>
<path d="M33.1697 67.1921C32.7099 67.1921 32.3387 66.8209 32.3387 66.3611L32.3359 58.6022C32.3359 58.1424 32.7071 57.7712 33.1669 57.7712C33.6268 57.7712 33.998 58.1424 33.998 58.6022L34.0007 66.3611C34.0007 66.8181 33.6268 67.1921 33.1697 67.1921Z" fill="#BEBDBD"/>
<path d="M42.5068 74.8767C42.047 74.8767 41.6758 74.5055 41.6758 74.0457V66.3588C41.6758 65.899 42.047 65.5278 42.5068 65.5278C42.9666 65.5278 43.3378 65.899 43.3378 66.3588V74.0457C43.3378 74.5055 42.9666 74.8767 42.5068 74.8767Z" fill="#BEBDBD"/>
<path d="M42.5068 10.163C42.047 10.163 41.6758 9.79184 41.6758 9.33202V1.67012C41.6758 1.21029 42.047 0.839111 42.5068 0.839111C42.9666 0.839111 43.3378 1.21029 43.3378 1.67012V9.33202C43.3378 9.79184 42.9638 10.163 42.5068 10.163Z" fill="#BEBDBD"/>
<path d="M42.5096 25.6055C42.0497 25.6055 41.6785 25.2343 41.6785 24.7745L41.6758 17.0129C41.6758 16.5531 42.047 16.1819 42.5068 16.1819C42.9666 16.1819 43.3378 16.5531 43.3378 17.0129L43.3406 24.7745C43.3406 25.2316 42.9694 25.6055 42.5096 25.6055Z" fill="#BEBDBD"/>
</svg>
