<svg width="79" height="80" viewBox="0 0 79 80" fill="none" xmlns="http://www.w3.org/2000/svg">
<path d="M20.1034 79.6494C9.01815 79.6494 0 70.6285 0 59.5404C0 48.458 9.01815 39.4426 20.1034 39.4426C20.5677 39.4426 20.9426 39.8175 20.9426 40.2818C20.9426 40.7461 20.5677 41.1209 20.1034 41.1209C9.94402 41.1237 1.67831 49.3866 1.67831 59.5404C1.67831 69.7026 9.94402 77.9683 20.1034 77.9683C30.2656 77.9683 38.5341 69.7026 38.5341 59.5404C38.5341 59.0761 38.9089 58.7013 39.3733 58.7013C39.8376 58.7013 40.2124 59.0761 40.2124 59.5404C40.2124 70.6285 31.1915 79.6494 20.1034 79.6494Z" fill="#BEBDBD"/>
<path d="M20.1081 71.7168C13.3976 71.7168 7.9375 66.2567 7.9375 59.5434C7.9375 52.8357 13.3976 47.3784 20.1081 47.3784C20.5724 47.3784 20.9472 47.7532 20.9472 48.2176C20.9472 48.6819 20.5724 49.0567 20.1081 49.0567C14.3235 49.0567 9.61582 53.7616 9.61582 59.5434C9.61582 65.3308 14.3235 70.0385 20.1081 70.0385C25.8955 70.0385 30.6059 65.3308 30.6059 59.5434C30.6059 59.0791 30.9808 58.7042 31.4451 58.7042C31.9094 58.7042 32.2843 59.0791 32.2843 59.5434C32.2815 66.2539 26.8213 71.7168 20.1081 71.7168Z" fill="#BEBDBD"/>
<path d="M20.1038 63.7866C17.7654 63.7866 15.8633 61.8818 15.8633 59.5433C15.8633 57.2076 17.7654 55.3083 20.1038 55.3083C20.5682 55.3083 20.943 55.6832 20.943 56.1475C20.943 56.6118 20.5682 56.9867 20.1038 56.9867C18.6912 56.9867 17.5416 58.1335 17.5416 59.5433C17.5416 60.9587 18.6912 62.1083 20.1038 62.1083C21.5164 62.1083 22.6661 60.9559 22.6661 59.5433C22.6661 59.079 23.0409 58.7041 23.5052 58.7041C23.9695 58.7041 24.3444 59.079 24.3444 59.5433C24.3416 61.8818 22.4395 63.7866 20.1038 63.7866Z" fill="#BEBDBD"/>
<path d="M23.5188 41.0535C23.0545 41.0535 22.6797 40.6786 22.6797 40.2143V40.1556C22.6797 39.6912 23.0545 39.3164 23.5188 39.3164C23.9832 39.3164 24.358 39.6912 24.358 40.1556V40.2143C24.358 40.6786 23.9832 41.0535 23.5188 41.0535Z" fill="#BEBDBD"/>
<path d="M23.5188 41.118C23.0545 41.118 22.6797 40.7432 22.6797 40.2789V40.2173C22.6797 39.753 23.0545 39.3782 23.5188 39.3782C23.9832 39.3782 24.358 39.753 24.358 40.2173V40.2789C24.358 40.7404 23.9832 41.118 23.5188 41.118Z" fill="#BEBDBD"/>
<path d="M23.5188 56.9821C23.0545 56.9821 22.6797 56.6073 22.6797 56.143V48.2129C22.6797 47.7486 23.0545 47.3738 23.5188 47.3738C23.9832 47.3738 24.358 47.7486 24.358 48.2129V56.143C24.358 56.6045 23.9832 56.9821 23.5188 56.9821Z" fill="#BEBDBD"/>
<path d="M23.5188 60.3797C23.0545 60.3797 22.6797 60.0049 22.6797 59.5406V56.1392C22.6797 55.6749 23.0545 55.3 23.5188 55.3C23.9832 55.3 24.358 55.6749 24.358 56.1392V59.5406C24.358 60.0049 23.9832 60.3797 23.5188 60.3797Z" fill="#BEBDBD"/>
<path d="M23.5188 49.0521C23.0545 49.0521 22.6797 48.6772 22.6797 48.2129V40.2801C22.6797 39.8157 23.0545 39.4409 23.5188 39.4409C23.9832 39.4409 24.358 39.8157 24.358 40.2801V48.2129C24.358 48.6744 23.9832 49.0521 23.5188 49.0521Z" fill="#BEBDBD"/>
<path d="M31.4407 41.1152C30.9764 41.1152 30.6016 40.7404 30.6016 40.2761V40.2173C30.6016 39.753 30.9764 39.3782 31.4407 39.3782C31.9051 39.3782 32.2799 39.753 32.2799 40.2173V40.2761C32.2799 40.7376 31.9051 41.1152 31.4407 41.1152Z" fill="#BEBDBD"/>
<path d="M31.4407 60.3797C30.9764 60.3797 30.6016 60.0049 30.6016 59.5406V56.1392C30.6016 55.6749 30.9764 55.3 31.4407 55.3C31.9051 55.3 32.2799 55.6749 32.2799 56.1392V59.5406C32.2799 60.0049 31.9051 60.3797 31.4407 60.3797Z" fill="#BEBDBD"/>
<path d="M31.4407 49.0517C30.9764 49.0517 30.6016 48.6769 30.6016 48.2125V40.2769C30.6016 39.8126 30.9764 39.4377 31.4407 39.4377C31.9051 39.4377 32.2799 39.8126 32.2799 40.2769V48.2125C32.2799 48.6741 31.9051 49.0517 31.4407 49.0517Z" fill="#BEBDBD"/>
<path d="M31.4407 41.0535C30.9764 41.0535 30.6016 40.6786 30.6016 40.2143V40.1556C30.6016 39.6912 30.9764 39.3164 31.4407 39.3164C31.9051 39.3164 32.2799 39.6912 32.2799 40.1556V40.2143C32.2799 40.6786 31.9051 41.0535 31.4407 41.0535Z" fill="#BEBDBD"/>
<path d="M31.4435 56.9821C30.9792 56.9821 30.6044 56.6073 30.6044 56.143L30.6016 48.2129C30.6016 47.7486 30.9764 47.3738 31.4407 47.3738C31.9051 47.3738 32.2799 47.7486 32.2799 48.2129L32.2827 56.143C32.2827 56.6045 31.9079 56.9821 31.4435 56.9821Z" fill="#BEBDBD"/>
<path d="M39.3704 41.0535C38.9061 41.0535 38.5312 40.6786 38.5312 40.2143V40.1556C38.5312 39.6912 38.9061 39.3164 39.3704 39.3164C39.8347 39.3164 40.2096 39.6912 40.2096 40.1556V40.2143C40.2096 40.6786 39.8319 41.0535 39.3704 41.0535Z" fill="#BEBDBD"/>
<path d="M39.3704 49.0517C38.9061 49.0517 38.5312 48.6769 38.5312 48.2125V40.2769C38.5312 39.8126 38.9061 39.4377 39.3704 39.4377C39.8347 39.4377 40.2096 39.8126 40.2096 40.2769V48.2125C40.2096 48.6741 39.8319 49.0517 39.3704 49.0517Z" fill="#BEBDBD"/>
<path d="M39.3704 56.9819C38.9061 56.9819 38.5312 56.6071 38.5312 56.1427V48.2127C38.5312 47.7484 38.9061 47.3735 39.3704 47.3735C39.8347 47.3735 40.2096 47.7484 40.2096 48.2127V56.1427C40.2096 56.6043 39.8319 56.9819 39.3704 56.9819Z" fill="#BEBDBD"/>
<path d="M39.3704 41.1152C38.9061 41.1152 38.5312 40.7404 38.5312 40.2761V40.2173C38.5312 39.753 38.9061 39.3782 39.3704 39.3782C39.8347 39.3782 40.2096 39.753 40.2096 40.2173V40.2761C40.2096 40.7376 39.8319 41.1152 39.3704 41.1152Z" fill="#BEBDBD"/>
<path d="M39.3704 60.3797C38.9061 60.3797 38.5312 60.0049 38.5312 59.5406V56.1392C38.5312 55.6749 38.9061 55.3 39.3704 55.3C39.8347 55.3 40.2096 55.6749 40.2096 56.1392V59.5406C40.2096 60.0049 39.8319 60.3797 39.3704 60.3797Z" fill="#BEBDBD"/>
<path d="M23.5168 56.9813H20.1126C19.6483 56.9813 19.2734 56.6065 19.2734 56.1421C19.2734 55.6778 19.6483 55.303 20.1126 55.303H23.5168C23.9811 55.303 24.3559 55.6778 24.3559 56.1421C24.3559 56.6037 23.9811 56.9813 23.5168 56.9813Z" fill="#BEBDBD"/>
<path d="M23.5112 49.0521H20.1126C19.6483 49.0521 19.2734 48.6773 19.2734 48.2129C19.2734 47.7486 19.6483 47.3738 20.1126 47.3738H23.514C23.9783 47.3738 24.3531 47.7486 24.3531 48.2129C24.3503 48.6745 23.9755 49.0521 23.5112 49.0521Z" fill="#BEBDBD"/>
<path d="M39.3704 49.0507C39.1494 49.0507 38.9313 48.9612 38.7746 48.8045C38.6208 48.6479 38.5312 48.4325 38.5312 48.2115C38.5312 47.9905 38.6208 47.7752 38.7746 47.6185C39.0879 47.3052 39.6501 47.3052 39.9634 47.6185C40.1201 47.7752 40.2096 47.9905 40.2096 48.2115C40.2096 48.4325 40.1201 48.6479 39.9634 48.8045C39.8068 48.9612 39.5914 49.0507 39.3704 49.0507Z" fill="#BEBDBD"/>
<path d="M31.4407 49.0509C31.2197 49.0509 31.0044 48.9614 30.8477 48.8048C30.6911 48.6481 30.6016 48.4327 30.6016 48.2118C30.6016 47.9908 30.6911 47.7754 30.8477 47.6188C31.161 47.3055 31.7232 47.3055 32.0337 47.6188C32.1904 47.7726 32.2799 47.9908 32.2799 48.2118C32.2799 48.4327 32.1904 48.6481 32.0337 48.8048C31.8771 48.9614 31.6617 49.0509 31.4407 49.0509Z" fill="#BEBDBD"/>
<path d="M23.5216 49.0521C23.0573 49.0521 22.6797 48.6773 22.6797 48.2129C22.6797 47.7486 23.0517 47.3738 23.516 47.3738H23.5216C23.986 47.3738 24.3608 47.7486 24.3608 48.2129C24.3608 48.6745 23.986 49.0521 23.5216 49.0521Z" fill="#BEBDBD"/>
<path d="M31.4407 41.1156C31.2197 41.1156 31.0044 41.0261 30.8477 40.8695C30.6911 40.7128 30.6016 40.4974 30.6016 40.2765C30.6016 40.0555 30.6911 39.8373 30.8477 39.6835C31.161 39.3702 31.7232 39.3702 32.0337 39.6835C32.1904 39.8373 32.2799 40.0555 32.2799 40.2765C32.2799 40.4974 32.1904 40.7128 32.0337 40.8695C31.8771 41.0261 31.6617 41.1156 31.4407 41.1156Z" fill="#BEBDBD"/>
<path d="M23.5188 41.1189C23.0545 41.1189 22.6797 40.744 22.6797 40.2797C22.6797 39.8154 23.0545 39.4405 23.5188 39.4405L31.4489 39.4377C31.9132 39.4377 32.288 39.8126 32.288 40.2769C32.288 40.7412 31.9132 41.1161 31.4489 41.1161L23.5188 41.1189Z" fill="#BEBDBD"/>
<path d="M39.3764 41.1161H31.4407C30.9764 41.1161 30.6016 40.7412 30.6016 40.2769C30.6016 39.8126 30.9764 39.4377 31.4407 39.4377H39.3764C39.8407 39.4377 40.2155 39.8126 40.2155 40.2769C40.2155 40.7384 39.8379 41.1161 39.3764 41.1161Z" fill="#BEBDBD"/>
<path d="M39.3704 41.1154C39.1494 41.1154 38.9313 41.0259 38.7746 40.8692C38.6208 40.7126 38.5312 40.4972 38.5312 40.2762C38.5312 40.0552 38.6208 39.8398 38.7746 39.6832C39.0879 39.3699 39.6501 39.3699 39.9634 39.6832C40.1201 39.8398 40.2096 40.0552 40.2096 40.2762C40.2096 40.4972 40.1201 40.7126 39.9634 40.8692C39.8068 41.0259 39.5914 41.1154 39.3704 41.1154Z" fill="#BEBDBD"/>
<path d="M23.5168 41.1192H20.1126C19.6483 41.1192 19.2734 40.7444 19.2734 40.2801C19.2734 39.8157 19.6483 39.4409 20.1126 39.4409H23.5168C23.9811 39.4409 24.3559 39.8157 24.3559 40.2801C24.3559 40.7416 23.9811 41.1192 23.5168 41.1192Z" fill="#BEBDBD"/>
<path d="M23.5188 41.1181C23.2979 41.1181 23.0825 41.0285 22.9258 40.8719C22.7692 40.7153 22.6797 40.4999 22.6797 40.2789C22.6797 40.0579 22.7692 39.8425 22.9258 39.6859C23.2363 39.3726 23.8014 39.3726 24.1119 39.6859C24.2685 39.8425 24.358 40.0579 24.358 40.2789C24.358 40.4999 24.2685 40.7153 24.1119 40.8719C23.9552 41.0285 23.7398 41.1181 23.5188 41.1181Z" fill="#BEBDBD"/>
<path d="M20.1034 40.9865C9.01815 40.9865 0 31.9684 0 20.8859C0 9.80062 9.01815 0.782471 20.1034 0.782471C31.1915 0.782471 40.2124 9.80062 40.2124 20.8859C40.2124 21.3502 39.8376 21.725 39.3733 21.725C38.9089 21.725 38.5341 21.3502 38.5341 20.8859C38.5341 10.7265 30.2656 2.46079 20.1034 2.46079C9.94402 2.46079 1.67831 10.7265 1.67831 20.8859C1.67831 31.0453 9.94402 39.311 20.1034 39.311C20.5677 39.311 20.9426 39.6858 20.9426 40.1501C20.9426 40.6117 20.565 40.9865 20.1034 40.9865Z" fill="#BEBDBD"/>
<path d="M20.1081 33.0566C13.3976 33.0566 7.9375 27.5965 7.9375 20.8832C7.9375 14.1728 13.3976 8.71265 20.1081 8.71265C26.8213 8.71265 32.2843 14.1728 32.2843 20.8832C32.2843 21.3476 31.9094 21.7224 31.4451 21.7224C30.9808 21.7224 30.6059 21.3476 30.6059 20.8832C30.6059 15.0986 25.8983 10.391 20.1081 10.391C14.3235 10.391 9.61582 15.0986 9.61582 20.8832C9.61582 26.6706 14.3235 31.3783 20.1081 31.3783C20.5724 31.3783 20.9472 31.7531 20.9472 32.2174C20.9472 32.6818 20.5696 33.0566 20.1081 33.0566Z" fill="#BEBDBD"/>
<path d="M20.1038 25.124C17.7654 25.124 15.8633 23.2219 15.8633 20.8835C15.8633 18.5478 17.7654 16.6458 20.1038 16.6458C22.4423 16.6458 24.3444 18.545 24.3444 20.8835C24.3444 21.3478 23.9695 21.7227 23.5052 21.7227C23.0409 21.7227 22.6661 21.3478 22.6661 20.8835C22.6661 19.4737 21.5164 18.3241 20.1038 18.3241C18.6912 18.3241 17.5416 19.4709 17.5416 20.8835C17.5416 22.2961 18.6912 23.4457 20.1038 23.4457C20.5682 23.4457 20.943 23.8205 20.943 24.2849C20.943 24.7492 20.5654 25.124 20.1038 25.124Z" fill="#BEBDBD"/>
<path d="M23.5188 41.0535C23.0545 41.0535 22.6797 40.6786 22.6797 40.2143V40.1556C22.6797 39.6912 23.0545 39.3164 23.5188 39.3164C23.9832 39.3164 24.358 39.6912 24.358 40.1556V40.2143C24.358 40.6786 23.9832 41.0535 23.5188 41.0535Z" fill="#BEBDBD"/>
<path d="M23.5188 41.118C23.0545 41.118 22.6797 40.7432 22.6797 40.2789V40.2173C22.6797 39.753 23.0545 39.3782 23.5188 39.3782C23.9832 39.3782 24.358 39.753 24.358 40.2173V40.2789C24.358 40.7404 23.9832 41.118 23.5188 41.118Z" fill="#BEBDBD"/>
<path d="M23.5149 50.8307C23.0506 50.8307 22.6758 50.4559 22.6758 49.9916V48.2098C22.6758 47.7454 23.0506 47.3706 23.5149 47.3706C23.9793 47.3706 24.3541 47.7454 24.3541 48.2098V49.9916C24.3541 50.4559 23.9793 50.8307 23.5149 50.8307Z" fill="#BEBDBD"/>
<path d="M23.5149 49.0521C23.0506 49.0521 22.6758 48.6744 22.6758 48.2129L22.6814 40.2801C22.6814 39.8157 23.0562 39.4409 23.5205 39.4409C23.9849 39.4409 24.3597 39.8185 24.3597 40.2801L24.3541 48.2129C24.3541 48.6772 23.9793 49.0521 23.5149 49.0521Z" fill="#BEBDBD"/>
<path d="M23.5188 25.1299C23.0545 25.1299 22.6797 24.755 22.6797 24.2907V20.8865C22.6797 20.4222 23.0545 20.0474 23.5188 20.0474C23.9832 20.0474 24.358 20.4222 24.358 20.8865V24.2907C24.358 24.755 23.9832 25.1299 23.5188 25.1299Z" fill="#BEBDBD"/>
<path d="M31.4407 41.1152C30.9764 41.1152 30.6016 40.7404 30.6016 40.2761V40.2173C30.6016 39.753 30.9764 39.3782 31.4407 39.3782C31.9051 39.3782 32.2799 39.753 32.2799 40.2173V40.2761C32.2799 40.7376 31.9051 41.1152 31.4407 41.1152Z" fill="#BEBDBD"/>
<path d="M31.4407 41.0535C30.9764 41.0535 30.6016 40.6786 30.6016 40.2143V40.1556C30.6016 39.6912 30.9764 39.3164 31.4407 39.3164C31.9051 39.3164 32.2799 39.6912 32.2799 40.1556V40.2143C32.2799 40.6786 31.9051 41.0535 31.4407 41.0535Z" fill="#BEBDBD"/>
<path d="M31.4407 50.8305C30.9764 50.8305 30.6016 50.4557 30.6016 49.9913V48.2095C30.6016 47.7452 30.9764 47.3704 31.4407 47.3704C31.9051 47.3704 32.2799 47.7452 32.2799 48.2095V49.9913C32.2799 50.4557 31.9051 50.8305 31.4407 50.8305Z" fill="#BEBDBD"/>
<path d="M31.4407 49.0517C30.9764 49.0517 30.6016 48.6769 30.6016 48.2125V40.2769C30.6016 39.8126 30.9764 39.4377 31.4407 39.4377C31.9051 39.4377 32.2799 39.8126 32.2799 40.2769V48.2125C32.2799 48.6741 31.9051 49.0517 31.4407 49.0517Z" fill="#BEBDBD"/>
<path d="M31.4407 25.1324C30.9764 25.1324 30.6016 24.7576 30.6016 24.2933V20.8863C30.6016 20.4219 30.9764 20.0471 31.4407 20.0471C31.9051 20.0471 32.2799 20.4219 32.2799 20.8863V24.2933C32.2799 24.7576 31.9051 25.1324 31.4407 25.1324Z" fill="#BEBDBD"/>
<path d="M39.3704 41.0535C38.9061 41.0535 38.5312 40.6786 38.5312 40.2143V40.1556C38.5312 39.6912 38.9061 39.3164 39.3704 39.3164C39.8347 39.3164 40.2096 39.6912 40.2096 40.1556V40.2143C40.2096 40.6786 39.8319 41.0535 39.3704 41.0535Z" fill="#BEBDBD"/>
<path d="M39.3704 50.8307C38.9061 50.8307 38.5312 50.4559 38.5312 49.9916V48.2098C38.5312 47.7454 38.9061 47.3706 39.3704 47.3706C39.8347 47.3706 40.2096 47.7454 40.2096 48.2098V49.9916C40.2096 50.4559 39.8319 50.8307 39.3704 50.8307Z" fill="#BEBDBD"/>
<path d="M39.3704 41.1152C38.9061 41.1152 38.5312 40.7404 38.5312 40.2761V40.2173C38.5312 39.753 38.9061 39.3782 39.3704 39.3782C39.8347 39.3782 40.2096 39.753 40.2096 40.2173V40.2761C40.2096 40.7376 39.8319 41.1152 39.3704 41.1152Z" fill="#BEBDBD"/>
<path d="M39.3704 49.0517C38.9061 49.0517 38.5312 48.6769 38.5312 48.2125V40.2769C38.5312 39.8126 38.9061 39.4377 39.3704 39.4377C39.8347 39.4377 40.2096 39.8126 40.2096 40.2769V48.2125C40.2096 48.6741 39.8319 49.0517 39.3704 49.0517Z" fill="#BEBDBD"/>
<path d="M39.3704 25.1327C38.9061 25.1327 38.5312 24.7578 38.5312 24.2935V20.8865C38.5312 20.4222 38.9061 20.0474 39.3704 20.0474C39.8347 20.0474 40.2096 20.4222 40.2096 20.8865V24.2935C40.2096 24.7578 39.8319 25.1327 39.3704 25.1327Z" fill="#BEBDBD"/>
<path d="M31.4517 25.132L23.5188 25.1292C23.0545 25.1292 22.6797 24.7544 22.6797 24.2901C22.6797 23.8258 23.0545 23.4509 23.5188 23.4509L31.4517 23.4537C31.916 23.4537 32.2908 23.8285 32.2908 24.2929C32.2908 24.7572 31.916 25.132 31.4517 25.132Z" fill="#BEBDBD"/>
<path d="M23.5168 25.1292H20.1126C19.6483 25.1292 19.2734 24.7544 19.2734 24.2901C19.2734 23.8258 19.6483 23.4509 20.1126 23.4509H23.5168C23.9811 23.4509 24.3559 23.8258 24.3559 24.2901C24.3559 24.7544 23.9811 25.1292 23.5168 25.1292Z" fill="#BEBDBD"/>
<path d="M39.3736 25.1317H31.4407C30.9764 25.1317 30.6016 24.7569 30.6016 24.2925C30.6016 23.8282 30.9764 23.4534 31.4407 23.4534H39.3736C39.8379 23.4534 40.2127 23.8282 40.2127 24.2925C40.2127 24.7569 39.8351 25.1317 39.3736 25.1317Z" fill="#BEBDBD"/>
<path d="M39.3704 33.0624C39.1494 33.0624 38.9313 32.9729 38.7746 32.8162C38.6208 32.6596 38.5312 32.4442 38.5312 32.2232C38.5312 32.0023 38.6208 31.7869 38.7746 31.6302C39.0879 31.3169 39.6501 31.3169 39.9634 31.6302C40.1201 31.7869 40.2096 32.0023 40.2096 32.2232C40.2096 32.4442 40.1201 32.6596 39.9634 32.8162C39.8068 32.9729 39.5886 33.0624 39.3704 33.0624Z" fill="#BEBDBD"/>
<path d="M31.4489 33.0623H23.5188C23.0545 33.0623 22.6797 32.6875 22.6797 32.2232C22.6797 31.7589 23.0545 31.384 23.5188 31.384H31.4489C31.9132 31.384 32.288 31.7589 32.288 32.2232C32.288 32.6875 31.9132 33.0623 31.4489 33.0623Z" fill="#BEBDBD"/>
<path d="M39.3764 33.0623H31.4407C30.9764 33.0623 30.6016 32.6875 30.6016 32.2232C30.6016 31.7589 30.9764 31.384 31.4407 31.384H39.3764C39.8407 31.384 40.2155 31.7589 40.2155 32.2232C40.2155 32.6875 39.8379 33.0623 39.3764 33.0623Z" fill="#BEBDBD"/>
<path d="M23.5216 33.0623C23.0573 33.0623 22.6797 32.6875 22.6797 32.2232C22.6797 31.7589 23.0517 31.384 23.516 31.384H23.5216C23.986 31.384 24.3608 31.7589 24.3608 32.2232C24.3608 32.6875 23.986 33.0623 23.5216 33.0623Z" fill="#BEBDBD"/>
<path d="M23.5112 33.0621H20.1126C19.6483 33.0621 19.2734 32.6873 19.2734 32.2229C19.2734 31.7586 19.6483 31.3838 20.1126 31.3838H23.514C23.9783 31.3838 24.3531 31.7586 24.3531 32.2229C24.3531 32.6873 23.9755 33.0621 23.5112 33.0621Z" fill="#BEBDBD"/>
<path d="M31.4407 33.0621C31.2197 33.0621 31.0044 32.9726 30.8477 32.816C30.6911 32.6593 30.6016 32.444 30.6016 32.223C30.6016 32.002 30.6911 31.7866 30.8477 31.63C31.161 31.3167 31.7232 31.3167 32.0337 31.63C32.1904 31.7866 32.2799 32.002 32.2799 32.223C32.2799 32.444 32.1904 32.6593 32.0337 32.816C31.8771 32.9726 31.6617 33.0621 31.4407 33.0621Z" fill="#BEBDBD"/>
<path d="M23.5168 40.9947H20.1126C19.6483 40.9947 19.2734 40.6199 19.2734 40.1556C19.2734 39.6912 19.6483 39.3164 20.1126 39.3164H23.5168C23.9811 39.3164 24.3559 39.6912 24.3559 40.1556C24.3559 40.6199 23.9811 40.9947 23.5168 40.9947Z" fill="#BEBDBD"/>
<path d="M31.4407 40.995C31.2197 40.995 31.0044 40.9055 30.8477 40.7489C30.6911 40.5922 30.6016 40.3768 30.6016 40.1558C30.6016 39.9349 30.6911 39.7195 30.8477 39.5628C31.161 39.2496 31.7232 39.2496 32.0337 39.5628C32.1904 39.7195 32.2799 39.9349 32.2799 40.1558C32.2799 40.3768 32.1904 40.595 32.0337 40.7489C31.8771 40.9055 31.6617 40.995 31.4407 40.995Z" fill="#BEBDBD"/>
<path d="M39.3704 40.9953C39.1494 40.9953 38.9313 40.9058 38.7746 40.7492C38.6208 40.5954 38.5312 40.3772 38.5312 40.1562C38.5312 39.9352 38.6208 39.7198 38.7746 39.5632C39.0879 39.2527 39.6501 39.2527 39.9634 39.5632C40.1201 39.7198 40.2096 39.9352 40.2096 40.1562C40.2096 40.3772 40.1201 40.5926 39.9634 40.7492C39.8068 40.9058 39.5914 40.9953 39.3704 40.9953Z" fill="#BEBDBD"/>
<path d="M39.3764 40.9947H31.4407C30.9764 40.9947 30.6016 40.6199 30.6016 40.1556C30.6016 39.6912 30.9764 39.3164 31.4407 39.3164H39.3764C39.8407 39.3164 40.2155 39.6912 40.2155 40.1556C40.2155 40.6199 39.8379 40.9947 39.3764 40.9947Z" fill="#BEBDBD"/>
<path d="M23.5188 40.9952C23.2979 40.9952 23.0825 40.9057 22.9258 40.749C22.7692 40.5952 22.6797 40.377 22.6797 40.156C22.6797 39.935 22.7692 39.7197 22.9258 39.563C23.2363 39.2525 23.7986 39.2497 24.1119 39.563C24.2685 39.7197 24.358 39.935 24.358 40.156C24.358 40.377 24.2685 40.5924 24.1119 40.749C23.9552 40.9057 23.7398 40.9952 23.5188 40.9952Z" fill="#BEBDBD"/>
<path d="M31.4489 40.9947H23.5188C23.0545 40.9947 22.6797 40.6199 22.6797 40.1556C22.6797 39.6912 23.0545 39.3164 23.5188 39.3164H31.4489C31.9132 39.3164 32.288 39.6912 32.288 40.1556C32.288 40.6199 31.9132 40.9947 31.4489 40.9947Z" fill="#BEBDBD"/>
<path d="M58.6347 40.987C58.1703 40.987 57.7955 40.6122 57.7955 40.1478C57.7955 39.6835 58.1703 39.3087 58.6347 39.3087C68.7969 39.3087 77.0626 31.043 77.0626 20.8836C77.0654 10.727 68.7969 2.46127 58.6347 2.46127C48.4753 2.46127 40.2096 10.727 40.2096 20.8864C40.2096 21.3507 39.8347 21.7255 39.3704 21.7255C38.9061 21.7255 38.5312 21.3507 38.5312 20.8864C38.534 9.8011 47.5494 0.782959 58.6347 0.782959C69.7227 0.782959 78.7409 9.8011 78.7409 20.8864C78.7437 31.9688 69.7227 40.987 58.6347 40.987Z" fill="#BEBDBD"/>
<path d="M58.6393 33.0568C58.175 33.0568 57.8002 32.682 57.8002 32.2177C57.8002 31.7533 58.175 31.3785 58.6393 31.3785C64.4267 31.3785 69.1372 26.6709 69.1372 20.8835C69.1372 15.0989 64.4295 10.3912 58.6393 10.3912C52.8519 10.3912 48.1471 15.0989 48.1471 20.8835C48.1471 21.3478 47.7722 21.7226 47.3079 21.7226C46.8436 21.7226 46.4688 21.3478 46.4688 20.8835C46.4688 14.173 51.9289 8.71289 58.6393 8.71289C65.3526 8.71289 70.8155 14.173 70.8155 20.8835C70.8155 27.5967 65.3526 33.0568 58.6393 33.0568Z" fill="#BEBDBD"/>
<path d="M58.649 25.124C58.1847 25.124 57.8099 24.7492 57.8099 24.2849C57.8099 23.8205 58.1847 23.4457 58.649 23.4457C60.0616 23.4457 61.2112 22.2961 61.2112 20.8835C61.2112 19.4737 60.0616 18.3241 58.649 18.3241C57.2392 18.3241 56.0924 19.4709 56.0924 20.8835C56.0924 21.3478 55.7176 21.7227 55.2532 21.7227C54.7889 21.7227 54.4141 21.3478 54.4141 20.8835C54.4141 18.5478 56.3134 16.6458 58.649 16.6458C60.9875 16.6458 62.8896 18.545 62.8896 20.8835C62.8896 23.2219 60.9875 25.124 58.649 25.124Z" fill="#BEBDBD"/>
<path d="M55.2454 41.1185C54.7811 41.1185 54.4062 40.7437 54.4062 40.2794V40.2178C54.4062 39.7535 54.7811 39.3787 55.2454 39.3787C55.7097 39.3787 56.0846 39.7535 56.0846 40.2178V40.2794C56.0846 40.7409 55.7097 41.1185 55.2454 41.1185Z" fill="#BEBDBD"/>
<path d="M55.2454 41.054C54.7811 41.054 54.4062 40.6791 54.4062 40.2148V40.1561C54.4062 39.6917 54.7811 39.3169 55.2454 39.3169C55.7097 39.3169 56.0846 39.6917 56.0846 40.1561V40.2148C56.0846 40.6791 55.7097 41.054 55.2454 41.054Z" fill="#BEBDBD"/>
<path d="M55.2454 33.0621C54.7811 33.0621 54.4062 32.6873 54.4062 32.2229V24.2901C54.4062 23.8258 54.7811 23.4509 55.2454 23.4509C55.7097 23.4509 56.0846 23.8258 56.0846 24.2901V32.2229C56.0846 32.6873 55.7097 33.0621 55.2454 33.0621Z" fill="#BEBDBD"/>
<path d="M55.2454 25.1299C54.7811 25.1299 54.4062 24.755 54.4062 24.2907V20.8865C54.4062 20.4222 54.7811 20.0474 55.2454 20.0474C55.7097 20.0474 56.0846 20.4222 56.0846 20.8865V24.2907C56.0846 24.755 55.7097 25.1299 55.2454 25.1299Z" fill="#BEBDBD"/>
<path d="M55.2454 40.9952C54.7811 40.9952 54.4062 40.6204 54.4062 40.156V32.2232C54.4062 31.7589 54.7811 31.384 55.2454 31.384C55.7097 31.384 56.0846 31.7589 56.0846 32.2232V40.156C56.0846 40.6204 55.7097 40.9952 55.2454 40.9952Z" fill="#BEBDBD"/>
<path d="M47.3079 41.054C46.8436 41.054 46.4688 40.6791 46.4688 40.2148V40.1561C46.4688 39.6917 46.8436 39.3169 47.3079 39.3169C47.7722 39.3169 48.1471 39.6917 48.1471 40.1561V40.2148C48.1471 40.6791 47.7694 41.054 47.3079 41.054Z" fill="#BEBDBD"/>
<path d="M47.3079 25.1327C46.8436 25.1327 46.4688 24.7578 46.4688 24.2935V20.8865C46.4688 20.4222 46.8436 20.0474 47.3079 20.0474C47.7722 20.0474 48.1471 20.4222 48.1471 20.8865V24.2935C48.1471 24.7578 47.7694 25.1327 47.3079 25.1327Z" fill="#BEBDBD"/>
<path d="M47.3079 40.9952C46.8436 40.9952 46.4688 40.6204 46.4688 40.156V32.2232C46.4688 31.7589 46.8436 31.384 47.3079 31.384C47.7722 31.384 48.1471 31.7589 48.1471 32.2232V40.156C48.1471 40.6204 47.7694 40.9952 47.3079 40.9952Z" fill="#BEBDBD"/>
<path d="M47.3079 41.1157C46.8436 41.1157 46.4688 40.7409 46.4688 40.2766V40.2178C46.4688 39.7535 46.8436 39.3787 47.3079 39.3787C47.7722 39.3787 48.1471 39.7535 48.1471 40.2178V40.2766C48.1471 40.7381 47.7694 41.1157 47.3079 41.1157Z" fill="#BEBDBD"/>
<path d="M47.3079 33.0622C46.8436 33.0622 46.4688 32.6874 46.4688 32.2231V24.293C46.4688 23.8287 46.8436 23.4539 47.3079 23.4539C47.7722 23.4539 48.1471 23.8287 48.1471 24.293V32.2231C48.1471 32.6874 47.7694 33.0622 47.3079 33.0622Z" fill="#BEBDBD"/>
<path d="M39.3743 41.1152C38.91 41.1152 38.5352 40.7404 38.5352 40.2761V40.2173C38.5352 39.753 38.91 39.3782 39.3743 39.3782C39.8386 39.3782 40.2135 39.753 40.2135 40.2173V40.2761C40.2135 40.7376 39.8359 41.1152 39.3743 41.1152Z" fill="#BEBDBD"/>
<path d="M39.3743 40.9952C38.91 40.9952 38.5352 40.6204 38.5352 40.156V32.2232C38.5352 31.7589 38.91 31.384 39.3743 31.384C39.8386 31.384 40.2135 31.7589 40.2135 32.2232V40.156C40.2135 40.6204 39.8359 40.9952 39.3743 40.9952Z" fill="#BEBDBD"/>
<path d="M39.3732 33.0622C38.9089 33.0622 38.534 32.6874 38.534 32.2231L38.5312 24.293C38.5312 23.8287 38.9061 23.4539 39.3704 23.4539C39.8347 23.4539 40.2096 23.8287 40.2096 24.293L40.2124 32.2231C40.2124 32.6846 39.8347 33.0622 39.3732 33.0622Z" fill="#BEBDBD"/>
<path d="M39.3743 41.0537C38.91 41.0537 38.5352 40.6789 38.5352 40.2146V40.1558C38.5352 39.6915 38.91 39.3167 39.3743 39.3167C39.8386 39.3167 40.2135 39.6915 40.2135 40.1558V40.2146C40.2135 40.6789 39.8359 41.0537 39.3743 41.0537Z" fill="#BEBDBD"/>
<path d="M39.3704 25.1331C38.9061 25.1331 38.5312 24.7583 38.5312 24.294V20.887C38.5312 20.4227 38.9061 20.0479 39.3704 20.0479C39.8347 20.0479 40.2096 20.4227 40.2096 20.887V24.294C40.2096 24.7583 39.8319 25.1331 39.3704 25.1331Z" fill="#BEBDBD"/>
<path d="M58.6468 25.1292H55.2454C54.7811 25.1292 54.4062 24.7544 54.4062 24.2901C54.4062 23.8258 54.7811 23.4509 55.2454 23.4509H58.6468C59.1111 23.4509 59.486 23.8258 59.486 24.2901C59.486 24.7544 59.1111 25.1292 58.6468 25.1292Z" fill="#BEBDBD"/>
<path d="M58.649 33.0619H55.2532C54.7889 33.0619 54.4141 32.687 54.4141 32.2227C54.4141 31.7584 54.7889 31.3835 55.2532 31.3835H58.649C59.1133 31.3835 59.4882 31.7584 59.4882 32.2227C59.4882 32.687 59.1133 33.0619 58.649 33.0619Z" fill="#BEBDBD"/>
<path d="M39.3704 33.0629C39.1494 33.0629 38.934 32.9734 38.7774 32.8167C38.6208 32.6601 38.5312 32.4447 38.5312 32.2237C38.5312 32.0027 38.6208 31.7874 38.7774 31.6307C39.0907 31.3174 39.6529 31.3174 39.9662 31.6307C40.1201 31.7874 40.2096 32.0027 40.2096 32.2237C40.2096 32.4447 40.1201 32.6601 39.9662 32.8167C39.8096 32.9734 39.5914 33.0629 39.3704 33.0629Z" fill="#BEBDBD"/>
<path d="M47.3079 33.0624C47.0869 33.0624 46.8688 32.9729 46.7121 32.8162C46.5583 32.6596 46.4688 32.4442 46.4688 32.2232C46.4688 32.0023 46.5583 31.7869 46.7121 31.6302C47.0254 31.3169 47.5848 31.3169 47.9009 31.6302C48.0576 31.7869 48.1471 32.0023 48.1471 32.2232C48.1471 32.4442 48.0576 32.6596 47.9009 32.8162C47.7443 32.9729 47.5261 33.0624 47.3079 33.0624Z" fill="#BEBDBD"/>
<path d="M55.251 33.0623H55.2454C54.7811 33.0623 54.4062 32.6875 54.4062 32.2232C54.4062 31.7589 54.7811 31.384 55.2454 31.384C55.7097 31.384 56.0874 31.7589 56.0874 32.2232C56.0874 32.6875 55.7153 33.0623 55.251 33.0623Z" fill="#BEBDBD"/>
<path d="M47.3079 40.9952C47.0869 40.9952 46.8688 40.9057 46.7121 40.749C46.5583 40.5952 46.4688 40.377 46.4688 40.156C46.4688 39.935 46.5583 39.7197 46.7121 39.563C47.0254 39.2525 47.5876 39.2497 47.9009 39.563C48.0576 39.7197 48.1471 39.935 48.1471 40.156C48.1471 40.377 48.0576 40.5952 47.9009 40.749C47.7443 40.9057 47.5261 40.9952 47.3079 40.9952Z" fill="#BEBDBD"/>
<path d="M55.2407 40.9952H47.3079C46.8436 40.9952 46.4688 40.6204 46.4688 40.1561C46.4688 39.6917 46.8436 39.3169 47.3079 39.3169H55.2407C55.7051 39.3169 56.0799 39.6917 56.0799 40.1561C56.0799 40.6204 55.7051 40.9952 55.2407 40.9952Z" fill="#BEBDBD"/>
<path d="M47.3044 40.995H39.3743C38.91 40.995 38.5352 40.6201 38.5352 40.1558C38.5352 39.6915 38.91 39.3167 39.3743 39.3167H47.3044C47.7687 39.3167 48.1435 39.6915 48.1435 40.1558C48.1435 40.6201 47.7659 40.995 47.3044 40.995Z" fill="#BEBDBD"/>
<path d="M39.3704 40.9955C39.1494 40.9955 38.934 40.906 38.7774 40.7493C38.6208 40.5927 38.5312 40.3773 38.5312 40.1563C38.5312 39.9354 38.6208 39.72 38.7774 39.5633C39.0907 39.25 39.6529 39.25 39.9662 39.5633C40.1201 39.72 40.2096 39.9354 40.2096 40.1563C40.2096 40.3773 40.1201 40.5927 39.9662 40.7493C39.8096 40.906 39.5914 40.9955 39.3704 40.9955Z" fill="#BEBDBD"/>
<path d="M58.6468 40.9952H55.2454C54.7811 40.9952 54.4062 40.6204 54.4062 40.1561C54.4062 39.6917 54.7811 39.3169 55.2454 39.3169H58.6468C59.1111 39.3169 59.486 39.6917 59.486 40.1561C59.486 40.6204 59.1111 40.9952 58.6468 40.9952Z" fill="#BEBDBD"/>
<path d="M55.2454 40.9952C55.0244 40.9952 54.809 40.9057 54.6524 40.749C54.4958 40.5952 54.4062 40.377 54.4062 40.156C54.4062 39.935 54.4958 39.7197 54.6524 39.563C54.9657 39.2525 55.5251 39.2497 55.8384 39.563C55.9951 39.7197 56.0846 39.935 56.0846 40.156C56.0846 40.377 55.9951 40.5924 55.8384 40.749C55.6818 40.9057 55.4664 40.9952 55.2454 40.9952Z" fill="#BEBDBD"/>
<path d="M58.6347 79.6496C47.5494 79.6496 38.5312 70.6286 38.5312 59.5434C38.5312 59.079 38.9061 58.7042 39.3704 58.7042C39.8347 58.7042 40.2096 59.079 40.2096 59.5434C40.2096 69.7056 48.4753 77.9713 58.6347 77.9713C68.7969 77.9713 77.0626 69.7056 77.0626 59.5434C77.0626 49.3868 68.7941 41.1239 58.6347 41.1239C58.1703 41.1239 57.7955 40.749 57.7955 40.2847C57.7955 39.8204 58.1703 39.4456 58.6347 39.4456C69.7227 39.4456 78.7409 48.4609 78.7409 59.5434C78.7437 70.6286 69.7227 79.6496 58.6347 79.6496Z" fill="#BEBDBD"/>
<path d="M58.6393 71.7173C51.9289 71.7173 46.4688 66.2571 46.4688 59.5439C46.4688 59.0796 46.8436 58.7047 47.3079 58.7047C47.7722 58.7047 48.1471 59.0796 48.1471 59.5439C48.1471 65.3313 52.8547 70.0389 58.6393 70.0389C64.4267 70.0389 69.1372 65.3313 69.1372 59.5439C69.1372 53.7621 64.4295 49.0572 58.6393 49.0572C58.175 49.0572 57.8002 48.6824 57.8002 48.2181C57.8002 47.7537 58.175 47.3789 58.6393 47.3789C65.3526 47.3789 70.8155 52.8362 70.8155 59.5439C70.8155 66.2543 65.3526 71.7173 58.6393 71.7173Z" fill="#BEBDBD"/>
<path d="M58.649 63.7866C56.3134 63.7866 54.4141 61.8818 54.4141 59.5433C54.4141 59.079 54.7889 58.7041 55.2532 58.7041C55.7176 58.7041 56.0924 59.079 56.0924 59.5433C56.0924 60.9587 57.2392 62.1083 58.649 62.1083C60.0616 62.1083 61.2112 60.9559 61.2112 59.5433C61.2112 58.1335 60.0616 56.9867 58.649 56.9867C58.1847 56.9867 57.8099 56.6118 57.8099 56.1475C57.8099 55.6832 58.1847 55.3083 58.649 55.3083C60.9875 55.3083 62.8896 57.2076 62.8896 59.5433C62.8896 61.8818 60.9875 63.7866 58.649 63.7866Z" fill="#BEBDBD"/>
<path d="M55.2454 41.1185C54.7811 41.1185 54.4062 40.7437 54.4062 40.2794V40.2178C54.4062 39.7535 54.7811 39.3787 55.2454 39.3787C55.7097 39.3787 56.0846 39.7535 56.0846 40.2178V40.2794C56.0846 40.7409 55.7097 41.1185 55.2454 41.1185Z" fill="#BEBDBD"/>
<path d="M55.2454 41.054C54.7811 41.054 54.4062 40.6791 54.4062 40.2148V40.1561C54.4062 39.6917 54.7811 39.3169 55.2454 39.3169C55.7097 39.3169 56.0846 39.6917 56.0846 40.1561V40.2148C56.0846 40.6791 55.7097 41.054 55.2454 41.054Z" fill="#BEBDBD"/>
<path d="M55.2532 33.063C54.7889 33.063 54.4141 32.6882 54.4141 32.2239V30.4393C54.4141 29.9749 54.7889 29.6001 55.2532 29.6001C55.7176 29.6001 56.0924 29.9749 56.0924 30.4393V32.2239C56.0924 32.6882 55.7176 33.063 55.2532 33.063Z" fill="#BEBDBD"/>
<path d="M55.2454 40.9952C54.7811 40.9952 54.4062 40.6176 54.4062 40.156L54.4118 32.2232C54.4118 31.7589 54.7867 31.384 55.251 31.384C55.7153 31.384 56.0902 31.7617 56.0902 32.2232L56.0846 40.156C56.0846 40.6204 55.7097 40.9952 55.2454 40.9952Z" fill="#BEBDBD"/>
<path d="M55.2454 60.3797C54.7811 60.3797 54.4062 60.0049 54.4062 59.5406V56.1392C54.4062 55.6749 54.7811 55.3 55.2454 55.3C55.7097 55.3 56.0846 55.6749 56.0846 56.1392V59.5406C56.0846 60.0049 55.7097 60.3797 55.2454 60.3797Z" fill="#BEBDBD"/>
<path d="M47.3079 41.054C46.8436 41.054 46.4688 40.6791 46.4688 40.2148V40.1561C46.4688 39.6917 46.8436 39.3169 47.3079 39.3169C47.7722 39.3169 48.1471 39.6917 48.1471 40.1561V40.2148C48.1471 40.6791 47.7694 41.054 47.3079 41.054Z" fill="#BEBDBD"/>
<path d="M47.3079 41.1157C46.8436 41.1157 46.4688 40.7409 46.4688 40.2766V40.2178C46.4688 39.7535 46.8436 39.3787 47.3079 39.3787C47.7722 39.3787 48.1471 39.7535 48.1471 40.2178V40.2766C48.1471 40.7381 47.7694 41.1157 47.3079 41.1157Z" fill="#BEBDBD"/>
<path d="M47.3079 33.0633C46.8436 33.0633 46.4688 32.6884 46.4688 32.2241V30.4395C46.4688 29.9752 46.8436 29.6003 47.3079 29.6003C47.7722 29.6003 48.1471 29.9752 48.1471 30.4395V32.2241C48.1471 32.6884 47.7694 33.0633 47.3079 33.0633Z" fill="#BEBDBD"/>
<path d="M47.3079 40.9952C46.8436 40.9952 46.4688 40.6204 46.4688 40.156V32.2232C46.4688 31.7589 46.8436 31.384 47.3079 31.384C47.7722 31.384 48.1471 31.7589 48.1471 32.2232V40.156C48.1471 40.6204 47.7694 40.9952 47.3079 40.9952Z" fill="#BEBDBD"/>
<path d="M47.3079 60.3797C46.8436 60.3797 46.4688 60.0049 46.4688 59.5406V56.1392C46.4688 55.6749 46.8436 55.3 47.3079 55.3C47.7722 55.3 48.1471 55.6749 48.1471 56.1392V59.5406C48.1471 60.0049 47.7694 60.3797 47.3079 60.3797Z" fill="#BEBDBD"/>
<path d="M39.3743 41.1152C38.91 41.1152 38.5352 40.7404 38.5352 40.2761V40.2173C38.5352 39.753 38.91 39.3782 39.3743 39.3782C39.8386 39.3782 40.2135 39.753 40.2135 40.2173V40.2761C40.2135 40.7376 39.8359 41.1152 39.3743 41.1152Z" fill="#BEBDBD"/>
<path d="M39.3743 33.0635C38.91 33.0635 38.5352 32.6887 38.5352 32.2244V30.4397C38.5352 29.9754 38.91 29.6006 39.3743 29.6006C39.8386 29.6006 40.2135 29.9754 40.2135 30.4397V32.2244C40.2135 32.6887 39.8359 33.0635 39.3743 33.0635Z" fill="#BEBDBD"/>
<path d="M39.3743 41.0537C38.91 41.0537 38.5352 40.6789 38.5352 40.2146V40.1558C38.5352 39.6915 38.91 39.3167 39.3743 39.3167C39.8386 39.3167 40.2135 39.6915 40.2135 40.1558V40.2146C40.2135 40.6789 39.8359 41.0537 39.3743 41.0537Z" fill="#BEBDBD"/>
<path d="M39.3743 40.9952C38.91 40.9952 38.5352 40.6204 38.5352 40.156V32.2232C38.5352 31.7589 38.91 31.384 39.3743 31.384C39.8386 31.384 40.2135 31.7589 40.2135 32.2232V40.156C40.2135 40.6204 39.8359 40.9952 39.3743 40.9952Z" fill="#BEBDBD"/>
<path d="M39.3704 60.3797C38.9061 60.3797 38.5312 60.0049 38.5312 59.5406V56.1392C38.5312 55.6749 38.9061 55.3 39.3704 55.3C39.8347 55.3 40.2096 55.6749 40.2096 56.1392V59.5406C40.2096 60.0049 39.8319 60.3797 39.3704 60.3797Z" fill="#BEBDBD"/>
<path d="M55.2407 56.9818H47.3079C46.8436 56.9818 46.4688 56.607 46.4688 56.1426C46.4688 55.6783 46.8436 55.3035 47.3079 55.3035H55.2407C55.7051 55.3035 56.0799 55.6783 56.0799 56.1426C56.0799 56.6042 55.7051 56.9818 55.2407 56.9818Z" fill="#BEBDBD"/>
<path d="M58.6468 56.9818H55.2454C54.7811 56.9818 54.4062 56.607 54.4062 56.1426C54.4062 55.6783 54.7811 55.3035 55.2454 55.3035H58.6468C59.1111 55.3035 59.486 55.6783 59.486 56.1426C59.486 56.6042 59.1111 56.9818 58.6468 56.9818Z" fill="#BEBDBD"/>
<path d="M47.3032 56.9818H39.3704C38.9061 56.9818 38.5312 56.607 38.5312 56.1426C38.5312 55.6783 38.9061 55.3035 39.3704 55.3035H47.3032C47.7676 55.3035 48.1424 55.6783 48.1424 56.1426C48.1424 56.6042 47.7648 56.9818 47.3032 56.9818Z" fill="#BEBDBD"/>
<path d="M39.3704 49.0507C39.1494 49.0507 38.934 48.9612 38.7774 48.8045C38.6208 48.6479 38.5312 48.4325 38.5312 48.2115C38.5312 47.9905 38.6208 47.7724 38.7774 47.6185C39.0907 47.3052 39.6529 47.3052 39.9662 47.6185C40.1201 47.7752 40.2096 47.9905 40.2096 48.2115C40.2096 48.4325 40.1201 48.6479 39.9662 48.8045C39.8096 48.9612 39.5914 49.0507 39.3704 49.0507Z" fill="#BEBDBD"/>
<path d="M55.2407 49.0521H47.3079C46.8436 49.0521 46.4688 48.6773 46.4688 48.2129C46.4688 47.7486 46.8436 47.3738 47.3079 47.3738H55.2407C55.7051 47.3738 56.0799 47.7486 56.0799 48.2129C56.0799 48.6745 55.7051 49.0521 55.2407 49.0521Z" fill="#BEBDBD"/>
<path d="M47.3044 49.0521H39.3743C38.91 49.0521 38.5352 48.6773 38.5352 48.2129C38.5352 47.7486 38.91 47.3738 39.3743 47.3738H47.3044C47.7687 47.3738 48.1435 47.7486 48.1435 48.2129C48.1435 48.6745 47.7659 49.0521 47.3044 49.0521Z" fill="#BEBDBD"/>
<path d="M55.251 49.0521H55.2454C54.7811 49.0521 54.4062 48.6773 54.4062 48.2129C54.4062 47.7486 54.7811 47.3738 55.2454 47.3738C55.7097 47.3738 56.0874 47.7486 56.0874 48.2129C56.0874 48.6745 55.7153 49.0521 55.251 49.0521Z" fill="#BEBDBD"/>
<path d="M58.649 49.0516H55.2532C54.7889 49.0516 54.4141 48.6768 54.4141 48.2124C54.4141 47.7481 54.7889 47.3733 55.2532 47.3733H58.649C59.1133 47.3733 59.4882 47.7481 59.4882 48.2124C59.4882 48.674 59.1133 49.0516 58.649 49.0516Z" fill="#BEBDBD"/>
<path d="M47.3079 49.0507C47.0869 49.0507 46.8688 48.9612 46.7121 48.8045C46.5583 48.6479 46.4688 48.4325 46.4688 48.2115C46.4688 47.9905 46.5583 47.7724 46.7121 47.6185C47.0254 47.3052 47.5848 47.3052 47.9009 47.6185C48.0576 47.7752 48.1471 47.9905 48.1471 48.2115C48.1471 48.4325 48.0548 48.6479 47.9009 48.8045C47.7443 48.9612 47.5261 49.0507 47.3079 49.0507Z" fill="#BEBDBD"/>
<path d="M58.6468 41.1192H55.2454C54.7811 41.1192 54.4062 40.7444 54.4062 40.2801C54.4062 39.8157 54.7811 39.4409 55.2454 39.4409H58.6468C59.1111 39.4409 59.486 39.8157 59.486 40.2801C59.486 40.7416 59.1111 41.1192 58.6468 41.1192Z" fill="#BEBDBD"/>
<path d="M47.3079 41.1154C47.0869 41.1154 46.8688 41.0259 46.7121 40.8692C46.5583 40.7126 46.4688 40.4972 46.4688 40.2762C46.4688 40.0552 46.5583 39.8371 46.7121 39.6832C47.0254 39.3699 47.5876 39.3699 47.9009 39.6832C48.0576 39.8398 48.1471 40.0552 48.1471 40.2762C48.1471 40.4972 48.0576 40.7126 47.9009 40.8692C47.7443 41.0259 47.5261 41.1154 47.3079 41.1154Z" fill="#BEBDBD"/>
<path d="M39.3704 41.1154C39.1522 41.1154 38.934 41.0259 38.7774 40.8692C38.6208 40.7126 38.5312 40.4972 38.5312 40.2762C38.5312 40.0552 38.6208 39.8371 38.7774 39.6832C39.0907 39.3699 39.6529 39.3699 39.9662 39.6832C40.1201 39.8398 40.2096 40.0552 40.2096 40.2762C40.2096 40.4944 40.1201 40.7126 39.9662 40.8692C39.8068 41.0259 39.5914 41.1154 39.3704 41.1154Z" fill="#BEBDBD"/>
<path d="M47.3044 41.1165H39.3743C38.91 41.1165 38.5352 40.7417 38.5352 40.2774C38.5352 39.8131 38.91 39.4382 39.3743 39.4382H47.3044C47.7687 39.4382 48.1435 39.8131 48.1435 40.2774C48.1435 40.7389 47.7659 41.1165 47.3044 41.1165Z" fill="#BEBDBD"/>
<path d="M55.2454 41.1181C55.0244 41.1181 54.809 41.0285 54.6524 40.8719C54.4958 40.7153 54.4062 40.4999 54.4062 40.2789C54.4062 40.0579 54.4958 39.8425 54.6524 39.6859C54.9657 39.3726 55.5251 39.3726 55.8384 39.6859C55.9951 39.8425 56.0846 40.0579 56.0846 40.2789C56.0846 40.4999 55.9951 40.7153 55.8384 40.8719C55.6818 41.0285 55.4664 41.1181 55.2454 41.1181Z" fill="#BEBDBD"/>
<path d="M55.2407 41.1189L47.3079 41.1161C46.8436 41.1161 46.4688 40.7412 46.4688 40.2769C46.4688 39.8126 46.8436 39.4377 47.3079 39.4377L55.2407 39.4405C55.7051 39.4405 56.0799 39.8154 56.0799 40.2797C56.0799 40.744 55.7051 41.1189 55.2407 41.1189Z" fill="#BEBDBD"/>
</svg>
