<svg width="61" height="82" viewBox="0 0 61 82" fill="none" xmlns="http://www.w3.org/2000/svg">
<path d="M38.8801 46.8504C38.6872 46.8504 38.4967 46.7777 38.3488 46.6298C38.0556 46.3366 38.0556 45.8604 38.3488 45.5672C41.0305 42.883 41.0305 38.5122 38.3513 35.8255C38.0581 35.5323 38.0581 35.0561 38.3513 34.7629C38.6446 34.4697 39.1207 34.4697 39.414 34.7629C42.6796 38.0335 42.6796 43.3567 39.4115 46.6273C39.2636 46.7777 39.0706 46.8504 38.8801 46.8504Z" fill="#BEBDBD"/>
<path d="M43.2083 51.1711C43.0153 51.1711 42.8223 51.0984 42.677 50.9505C42.3837 50.6573 42.3837 50.1811 42.677 49.8879C45.133 47.4343 46.4864 44.1712 46.4864 40.7001C46.4864 37.229 45.1355 33.9659 42.682 31.5099C42.3887 31.2166 42.3887 30.7404 42.682 30.4472C42.9752 30.154 43.4514 30.154 43.7446 30.4472C46.4839 33.1865 47.9901 36.828 47.9901 40.7001C47.9901 44.5722 46.4814 48.2138 43.7396 50.9505C43.5917 51.0984 43.4012 51.1711 43.2083 51.1711Z" fill="#BEBDBD"/>
<path d="M47.5169 55.49C47.3239 55.49 47.1309 55.4174 46.9855 55.2695C46.6923 54.9763 46.6923 54.5001 46.9855 54.2069C54.4315 46.7584 54.4315 34.6409 46.9881 27.1949C46.6948 26.9017 46.6948 26.4255 46.9881 26.1323C47.2813 25.839 47.7575 25.839 48.0507 26.1323C56.0806 34.1622 56.0806 47.2346 48.0482 55.272C47.9028 55.4149 47.7098 55.49 47.5169 55.49Z" fill="#BEBDBD"/>
<path d="M51.8372 59.8077C51.6442 59.8077 51.4512 59.7351 51.3059 59.5872C51.0126 59.294 51.0126 58.8178 51.3059 58.5246C61.1352 48.6977 61.1377 32.7031 51.3109 22.8712C51.0176 22.578 51.0176 22.1018 51.3109 21.8085C51.6041 21.5153 52.0803 21.5153 52.3735 21.8085C62.7868 32.2269 62.7843 49.1739 52.3685 59.5897C52.2231 59.7351 52.0302 59.8077 51.8372 59.8077Z" fill="#BEBDBD"/>
<path d="M52.1055 23.4293C51.9125 23.4293 51.7195 23.3566 51.5742 23.2087L42.6145 14.234C42.3212 13.9407 42.3212 13.4646 42.6145 13.1713C42.9077 12.8781 43.3839 12.8781 43.6771 13.1713L52.6368 22.1461C52.93 22.4393 52.93 22.9155 52.6368 23.2087C52.4914 23.3566 52.2985 23.4293 52.1055 23.4293Z" fill="#BEBDBD"/>
<path d="M47.8083 27.7375C47.6153 27.7375 47.4224 27.6649 47.277 27.517L38.3098 18.5448C38.0165 18.2515 38.0165 17.7754 38.3098 17.4821C38.603 17.1889 39.0792 17.1889 39.3724 17.4821L48.3371 26.4569C48.6304 26.7501 48.6304 27.2263 48.3371 27.5195C48.1918 27.6649 47.9988 27.7375 47.8083 27.7375Z" fill="#BEBDBD"/>
<path d="M43.5036 32.0457C43.3106 32.0457 43.1177 31.973 42.9723 31.8251L34.0051 22.8529C33.7118 22.5596 33.7118 22.0835 34.0051 21.7902C34.2983 21.497 34.7745 21.497 35.0677 21.7902L44.0349 30.7625C44.3282 31.0557 44.3282 31.5319 44.0349 31.8251C43.8871 31.973 43.6941 32.0457 43.5036 32.0457Z" fill="#BEBDBD"/>
<path d="M39.1872 36.3513C38.9942 36.3513 38.8013 36.2786 38.6559 36.1308L29.6887 27.1585C29.3954 26.8653 29.3954 26.3891 29.6887 26.0959C29.9819 25.8027 30.4581 25.8027 30.7513 26.0959L39.7185 35.0681C40.0118 35.3614 40.0118 35.8375 39.7185 36.1308C39.5732 36.2786 39.3802 36.3513 39.1872 36.3513Z" fill="#BEBDBD"/>
<path d="M17.009 68.7784C16.8161 68.7784 16.6231 68.7057 16.4777 68.5579C16.1845 68.2646 16.1845 67.7885 16.4777 67.4952L38.377 45.6035C38.6702 45.3102 39.1464 45.3102 39.4397 45.6035C39.7329 45.8967 39.7329 46.3729 39.4397 46.6661L17.5404 68.5579C17.395 68.7057 17.202 68.7784 17.009 68.7784Z" fill="#BEBDBD"/>
<path d="M21.3294 73.0888C21.1364 73.0888 20.9434 73.0161 20.798 72.8682C20.5048 72.575 20.5048 72.0988 20.798 71.8056L42.6923 49.9113C42.9855 49.6181 43.4617 49.6181 43.755 49.9113C44.0482 50.2046 44.0482 50.6807 43.755 50.974L21.8607 72.8682C21.7153 73.0161 21.5223 73.0888 21.3294 73.0888Z" fill="#BEBDBD"/>
<path d="M25.6262 77.3941C25.4333 77.3941 25.2403 77.3215 25.0949 77.1736C24.8017 76.8804 24.8017 76.4042 25.0949 76.111L46.9942 54.2192C47.2874 53.926 47.7636 53.926 48.0568 54.2192C48.3501 54.5124 48.3501 54.9886 48.0568 55.2818L26.1576 77.1736C26.0122 77.3215 25.8192 77.3941 25.6262 77.3941Z" fill="#BEBDBD"/>
<path d="M29.927 81.7051C29.734 81.7051 29.5411 81.6324 29.3957 81.4845C29.1025 81.1913 29.1025 80.7151 29.3957 80.4219L51.295 58.5251C51.5882 58.2319 52.0644 58.2319 52.3576 58.5251C52.6509 58.8183 52.6509 59.2945 52.3576 59.5877L30.4583 81.4845C30.313 81.6324 30.12 81.7051 29.927 81.7051Z" fill="#BEBDBD"/>
<path d="M21.313 47.1594C21.12 47.1594 20.927 47.0867 20.7817 46.9388C17.5186 43.6657 17.5211 38.3425 20.7867 35.0744C21.0799 34.7812 21.5561 34.7812 21.8493 35.0744C22.1426 35.3676 22.1426 35.8438 21.8493 36.137C19.1677 38.8212 19.1652 43.1895 21.8443 45.8762C22.1376 46.1694 22.1376 46.6456 21.8418 46.9388C21.6965 47.0867 21.5035 47.1594 21.313 47.1594Z" fill="#BEBDBD"/>
<path d="M16.98 51.4741C16.787 51.4741 16.594 51.4014 16.4487 51.2535C13.7094 48.5142 12.2031 44.8727 12.2031 41.0006C12.2031 37.1285 13.7119 33.487 16.4512 30.7502C16.7444 30.457 17.2206 30.457 17.5138 30.7502C17.807 31.0434 17.807 31.5196 17.5138 31.8128C15.0577 34.2664 13.7069 37.5295 13.7069 40.9981C13.7069 44.4692 15.0577 47.7323 17.5113 50.1859C17.8045 50.4791 17.8045 50.9553 17.5113 51.2485C17.3659 51.4014 17.1729 51.4741 16.98 51.4741Z" fill="#BEBDBD"/>
<path d="M12.6639 55.7933C12.471 55.7933 12.278 55.7206 12.1326 55.5727C8.24047 51.6806 6.09766 46.5077 6.09766 41.0041C6.09766 35.5005 8.24297 30.3251 12.1351 26.4355C12.4284 26.1423 12.9045 26.1423 13.1978 26.4355C13.491 26.7287 13.491 27.2049 13.1978 27.4981C9.58881 31.1046 7.60138 35.9015 7.60138 41.0041C7.60138 46.1068 9.58631 50.9036 13.1953 54.5101C13.4885 54.8033 13.4885 55.2795 13.1953 55.5727C13.0474 55.7206 12.8569 55.7933 12.6639 55.7933Z" fill="#BEBDBD"/>
<path d="M8.35571 60.1132C8.16273 60.1132 7.96976 60.0405 7.8244 59.8927C2.77688 54.8477 0 48.1385 0 41.0033C0 33.8657 2.7819 27.1565 7.8269 22.1115C8.12013 21.8183 8.59631 21.8183 8.88954 22.1115C9.18276 22.4047 9.18276 22.8809 8.88954 23.1742C4.12773 27.9385 1.50373 34.2692 1.50373 41.0033C1.50373 47.7375 4.12523 54.0682 8.88703 58.83C9.18026 59.1233 9.18026 59.5994 8.88703 59.8927C8.73916 60.0405 8.54869 60.1132 8.35571 60.1132Z" fill="#BEBDBD"/>
<path d="M17.048 68.7496C16.855 68.7496 16.662 68.677 16.5167 68.5291L7.55195 59.5518C7.25872 59.2586 7.25872 58.7824 7.55195 58.4892C7.84518 58.196 8.32136 58.196 8.61459 58.4892L17.5793 67.4665C17.8725 67.7597 17.8725 68.2359 17.5793 68.5291C17.4339 68.677 17.241 68.7496 17.048 68.7496Z" fill="#BEBDBD"/>
<path d="M21.3669 64.4415C21.1739 64.4415 20.9809 64.3689 20.8356 64.221L11.8684 55.2437C11.5751 54.9505 11.5751 54.4743 11.8684 54.1811C12.1616 53.8879 12.6378 53.8879 12.931 54.1811L21.8982 63.1584C22.1914 63.4516 22.1914 63.9278 21.8982 64.221C21.7504 64.3689 21.5574 64.4415 21.3669 64.4415Z" fill="#BEBDBD"/>
<path d="M25.6716 60.1307C25.4786 60.1307 25.2856 60.058 25.1403 59.9101L16.173 50.9354C15.8798 50.6422 15.8798 50.166 16.173 49.8728C16.4663 49.5795 16.9425 49.5795 17.2357 49.8728L26.2029 58.8475C26.4961 59.1407 26.4961 59.6169 26.2029 59.9101C26.055 60.058 25.8646 60.1307 25.6716 60.1307Z" fill="#BEBDBD"/>
<path d="M29.9802 55.825C29.7872 55.825 29.5942 55.7523 29.4489 55.6045L20.4816 46.6297C20.1884 46.3365 20.1884 45.8603 20.4816 45.5671C20.7749 45.2739 21.251 45.2739 21.5443 45.5671L30.5115 54.5418C30.8047 54.8351 30.8047 55.3112 30.5115 55.6045C30.3636 55.7523 30.1707 55.825 29.9802 55.825Z" fill="#BEBDBD"/>
<path d="M21.2669 36.3194C21.0739 36.3194 20.8809 36.2467 20.7355 36.0989C20.4423 35.8057 20.4423 35.3295 20.7355 35.0362L42.6373 13.1445C42.9306 12.8513 43.4067 12.8513 43.7 13.1445C43.9932 13.4377 43.9932 13.9139 43.7 14.2071L21.7982 36.0989C21.6503 36.2467 21.4573 36.3194 21.2669 36.3194Z" fill="#BEBDBD"/>
<path d="M16.97 32.0139C16.777 32.0139 16.584 31.9412 16.4387 31.7933C16.1454 31.5001 16.1454 31.0239 16.4387 30.7307L38.3355 8.83393C38.6287 8.54071 39.1049 8.54071 39.3981 8.83393C39.6913 9.12716 39.6913 9.60334 39.3981 9.89657L17.5013 31.7933C17.3559 31.9412 17.163 32.0139 16.97 32.0139Z" fill="#BEBDBD"/>
<path d="M12.6614 27.703C12.4684 27.703 12.2754 27.6303 12.1301 27.4824C11.8368 27.1892 11.8368 26.713 12.1301 26.4198L34.0294 4.52803C34.3226 4.2348 34.7988 4.2348 35.092 4.52803C35.3852 4.82125 35.3852 5.29743 35.092 5.59066L13.1927 27.4824C13.0448 27.6303 12.8544 27.703 12.6614 27.703Z" fill="#BEBDBD"/>
<path d="M8.3528 23.3974C8.15982 23.3974 7.96684 23.3247 7.82148 23.1768C7.52826 22.8836 7.52826 22.4074 7.82148 22.1142L29.7208 0.21992C30.014 -0.0733067 30.4902 -0.0733067 30.7834 0.21992C31.0766 0.513147 31.0766 0.989327 30.7834 1.28255L8.88412 23.1768C8.73625 23.3222 8.54327 23.3974 8.3528 23.3974Z" fill="#BEBDBD"/>
</svg>
